<?xml version="1.0" encoding="UTF-8" standalone="no"?>
<svg
   xmlns:dc="http://purl.org/dc/elements/1.1/"
   xmlns:cc="http://creativecommons.org/ns#"
   xmlns:rdf="http://www.w3.org/1999/02/22-rdf-syntax-ns#"
   xmlns:svg="http://www.w3.org/2000/svg"
   xmlns="http://www.w3.org/2000/svg"
   xmlns:sodipodi="http://sodipodi.sourceforge.net/DTD/sodipodi-0.dtd"
   xmlns:inkscape="http://www.inkscape.org/namespaces/inkscape"
   aria-hidden="true"
   focusable="false"
   data-prefix="far"
   data-icon="envelope"
   class="svg-inline--fa fa-envelope fa-w-16"
   role="img"
   viewBox="0 0 512 512"
   version="1.1"
   id="svg849"
   sodipodi:docname="email.svg"
   inkscape:version="0.92.3 (2405546, 2018-03-11)">
  <metadata
     id="metadata855">
    <rdf:RDF>
      <cc:Work
         rdf:about="">
        <dc:format>image/svg+xml</dc:format>
        <dc:type
           rdf:resource="http://purl.org/dc/dcmitype/StillImage" />
      </cc:Work>
    </rdf:RDF>
  </metadata>
  <defs
     id="defs853" />
  <sodipodi:namedview
     pagecolor="#ffffff"
     bordercolor="#666666"
     borderopacity="1"
     objecttolerance="10"
     gridtolerance="10"
     guidetolerance="10"
     inkscape:pageopacity="0"
     inkscape:pageshadow="2"
     inkscape:window-width="3840"
     inkscape:window-height="2066"
     id="namedview851"
     showgrid="false"
     inkscape:zoom="0.4609375"
     inkscape:cx="273.35593"
     inkscape:cy="256"
     inkscape:window-x="-11"
     inkscape:window-y="-11"
     inkscape:window-maximized="1"
     inkscape:current-layer="svg849" />
  <path
     fill="currentColor"
     d="M464 64H48C21.49 64 0 85.49 0 112v288c0 26.51 21.49 48 48 48h416c26.51 0 48-21.49 48-48V112c0-26.51-21.49-48-48-48zm0 48v40.805c-22.422 18.259-58.168 46.651-134.587 106.49-16.841 13.247-50.201 45.072-73.413 44.701-23.208.375-56.579-31.459-73.413-44.701C106.18 199.465 70.425 171.067 48 152.805V112h416zM48 400V214.398c22.914 18.251 55.409 43.862 104.938 82.646 21.857 17.205 60.134 55.186 103.062 54.955 42.717.231 80.509-37.199 103.053-54.947 49.528-38.783 82.032-64.401 104.947-82.653V400H48z"
     id="path847" />
  <path
     style="fill:#ffffff;fill-opacity:1;stroke-width:0.21694915;stroke-miterlimit:4;stroke-dasharray:none"
     d="M 27.832969,441.94102 C 17.241165,437.13033 6.7403527,425.00931 3.3441204,413.6737 -0.05921454,402.31437 -0.13143496,110.26306 3.26602,97.844068 6.6075028,85.629676 23.113383,70.024942 36.168919,66.73752 c 7.260448,-1.828202 67.741411,-2.520571 220.181061,-2.520571 234.4099,0 224.86452,-0.580693 239.63618,14.578287 15.41643,15.82067 14.71215,7.327386 14.71215,177.421714 0,167.24959 0.39831,161.70062 -12.58967,175.38512 -3.21805,3.39064 -9.47313,8.02792 -13.90017,10.30509 -7.76631,3.99479 -15.77169,4.13863 -227.79661,4.09266 -209.072776,-0.0453 -220.176457,-0.24251 -228.578891,-4.0588 z M 465.13898,307.2 c 0,-51.30847 -0.51848,-93.28814 -1.15219,-93.28814 -0.63369,0 -28.55758,21.72204 -62.05308,48.27119 -82.80563,65.6333 -89.51302,70.54963 -108.18456,79.29624 -28.66883,13.42978 -55.67885,11.8308 -85.69491,-5.07316 -14.34143,-8.07656 -14.49619,-8.19398 -98.5472,-74.76545 -32.390214,-25.65424 -59.833739,-46.96949 -60.985611,-47.36723 -1.32487,-0.45748 -2.09431,33.61692 -2.09431,92.74577 v 93.46892 H 255.78305 465.13898 Z m -184.39087,-9.98077 c 5.88912,-3.20525 25.62353,-17.72598 43.85427,-32.26826 18.23072,-14.54229 57.30948,-45.63339 86.84169,-69.09133 l 53.69491,-42.6508 V 132.5773 111.94576 H 255.78305 46.427119 v 20.43887 20.43887 l 47.18644,37.46469 c 25.952541,20.60558 63.294911,50.27485 82.983051,65.93173 41.3404,32.87569 53.32346,41.34762 64.56971,45.65027 11.08903,4.24248 26.58759,2.42137 39.58179,-4.65096 z"
     id="path1400"
     inkscape:connector-curvature="0" />
</svg>
