<?xml version="1.0" encoding="UTF-8" standalone="no"?>
<svg
   xmlns:dc="http://purl.org/dc/elements/1.1/"
   xmlns:cc="http://creativecommons.org/ns#"
   xmlns:rdf="http://www.w3.org/1999/02/22-rdf-syntax-ns#"
   xmlns:svg="http://www.w3.org/2000/svg"
   xmlns="http://www.w3.org/2000/svg"
   xmlns:sodipodi="http://sodipodi.sourceforge.net/DTD/sodipodi-0.dtd"
   xmlns:inkscape="http://www.inkscape.org/namespaces/inkscape"
   aria-hidden="true"
   focusable="false"
   data-prefix="fab"
   data-icon="github"
   class="svg-inline--fa fa-github fa-w-16"
   role="img"
   viewBox="0 0 496 512"
   version="1.1"
   id="svg1414"
   sodipodi:docname="github.svg"
   inkscape:version="0.92.3 (2405546, 2018-03-11)">
  <metadata
     id="metadata1420">
    <rdf:RDF>
      <cc:Work
         rdf:about="">
        <dc:format>image/svg+xml</dc:format>
        <dc:type
           rdf:resource="http://purl.org/dc/dcmitype/StillImage" />
      </cc:Work>
    </rdf:RDF>
  </metadata>
  <defs
     id="defs1418" />
  <sodipodi:namedview
     pagecolor="#ffffff"
     bordercolor="#666666"
     borderopacity="1"
     objecttolerance="10"
     gridtolerance="10"
     guidetolerance="10"
     inkscape:pageopacity="0"
     inkscape:pageshadow="2"
     inkscape:window-width="3840"
     inkscape:window-height="2066"
     id="namedview1416"
     showgrid="false"
     inkscape:zoom="0.4609375"
     inkscape:cx="265.35593"
     inkscape:cy="256"
     inkscape:window-x="-11"
     inkscape:window-y="-11"
     inkscape:window-maximized="1"
     inkscape:current-layer="svg1414" />
  <path
     fill="currentColor"
     d="M165.9 397.4c0 2-2.3 3.6-5.2 3.6-3.3.3-5.6-1.3-5.6-3.6 0-2 2.3-3.6 5.2-3.6 3-.3 5.6 1.3 5.6 3.6zm-31.1-4.5c-.7 2 1.3 4.3 4.3 4.9 2.6 1 5.6 0 6.2-2s-1.3-4.3-4.3-5.2c-2.6-.7-5.5.3-6.2 2.3zm44.2-1.7c-2.9.7-4.9 2.6-4.6 4.9.3 2 2.9 3.3 5.9 2.6 2.9-.7 4.9-2.6 4.6-4.6-.3-1.9-3-3.2-5.9-2.9zM244.8 8C106.1 8 0 113.3 0 252c0 110.9 69.8 205.8 169.5 239.2 12.8 2.3 17.3-5.6 17.3-12.1 0-6.2-.3-40.4-.3-61.4 0 0-70 15-84.7-29.8 0 0-11.4-29.1-27.8-36.6 0 0-22.9-15.7 1.6-15.4 0 0 24.9 2 38.6 25.8 21.9 38.6 58.6 27.5 72.9 20.9 2.3-16 8.8-27.1 16-33.7-55.9-6.2-112.3-14.3-112.3-110.5 0-27.5 7.6-41.3 23.6-58.9-2.6-6.5-11.1-33.3 2.6-67.9 20.9-6.5 69 27 69 27 20-5.6 41.5-8.5 62.8-8.5s42.8 2.9 62.8 8.5c0 0 48.1-33.6 69-27 13.7 34.7 5.2 61.4 2.6 67.9 16 17.7 25.8 31.5 25.8 58.9 0 96.5-58.9 104.2-114.8 110.5 9.2 7.9 17 22.9 17 46.4 0 33.7-.3 75.4-.3 83.6 0 6.5 4.6 14.4 17.3 12.1C428.2 457.8 496 362.9 496 252 496 113.3 383.5 8 244.8 8zM97.2 352.9c-1.3 1-1 3.3.7 5.2 1.6 1.6 3.9 2.3 5.2 1 1.3-1 1-3.3-.7-5.2-1.6-1.6-3.9-2.3-5.2-1zm-10.8-8.1c-.7 1.3.3 2.9 2.3 3.9 1.6 1 3.6.7 4.3-.7.7-1.3-.3-2.9-2.3-3.9-2-.6-3.6-.3-4.3.7zm32.4 35.6c-1.6 1.3-1 4.3 1.3 6.2 2.3 2.3 5.2 2.6 6.5 1 1.3-1.3.7-4.3-1.3-6.2-2.2-2.3-5.2-2.6-6.5-1zm-11.4-14.7c-1.6 1-1.6 3.6 0 5.9 1.6 2.3 4.3 3.3 5.6 2.3 1.6-1.3 1.6-3.9 0-6.2-1.4-2.3-4-3.3-5.6-2z"
     id="path1412" />
  <path
     style="fill:#ffffff;fill-opacity:1;stroke-width:0.21694915;stroke-miterlimit:4;stroke-dasharray:none"
     d="M 162.40856,487.18507 C 67.215126,453.66153 1.5457627,357.60161 1.5457627,251.87797 1.5457627,138.59569 70.557503,47.757512 179.6745,17.412194 c 27.46265,-7.6373336 79.5278,-9.6974013 110.19922,-4.360266 53.40774,9.293485 100.31224,33.988992 136.98793,72.125002 30.81801,32.04512 50.68722,67.19413 60.95546,107.8314 5.74401,22.73237 7.8943,74.83393 4.06999,98.61663 -8.79514,54.69572 -32.78323,102.40369 -70.34941,139.91224 -20.80581,20.77391 -41.09114,34.8992 -69.3276,48.27492 -22.59378,10.7028 -34.45601,12.38943 -38.18122,5.42881 -1.3606,-2.54232 -2.24582,-23.78451 -2.24582,-53.89249 0,-52.79714 -1.47185,-63.25281 -10.73558,-76.26251 l -4.74632,-6.66559 7.19859,-0.0284 c 13.71635,-0.0542 46.47367,-8.15263 59.42777,-14.69184 32.71084,-16.51237 48.34079,-50.04594 46.05104,-98.80112 -1.00192,-21.33357 -4.6602,-31.37871 -17.25933,-47.39158 -6.18496,-7.86079 -6.23603,-8.15757 -3.945,-22.92363 2.42981,-15.66058 0.22942,-38.3613 -4.78518,-49.36718 -4.46288,-9.79496 -23.91945,-5.65743 -53.65389,11.40975 l -18.24451,10.47212 -14.29786,-3.23944 c -9.35095,-2.11871 -25.9325,-3.23951 -47.92498,-3.23951 -21.99249,0 -38.57403,1.1208 -47.92498,3.23943 l -14.29786,3.23943 -17.42366,-9.9873 c -18.78068,-10.76515 -36.39852,-17.33478 -46.48684,-17.33478 -7.51512,0 -9.42807,3.90465 -12.9112,26.35398 -1.71918,11.0804 -1.69857,18.99667 0.076,29.18702 2.31992,13.32196 2.18695,14.31375 -2.81314,20.98364 -13.894177,18.53419 -15.506459,24.33747 -15.506459,55.81434 0,24.77156 0.775767,31.65477 5.030517,44.63475 11.698192,35.68773 36.213302,53.21867 83.918632,60.01094 9.54577,1.35912 17.63967,2.65357 17.98647,2.87657 0.34679,0.22302 -1.27831,3.70139 -3.61134,7.72975 -2.33303,4.02835 -5.42042,11.35451 -6.86087,16.28036 -2.229,7.62244 -3.82862,9.31853 -10.74206,11.38983 -11.27038,3.37671 -29.18673,3.04113 -37.51984,-0.70272 -9.3852,-4.21651 -14.14905,-8.67827 -25.0572,-23.46819 -12.15626,-16.48219 -23.357249,-23.76921 -38.461334,-25.02177 -10.891862,-0.90324 -11.801619,-0.62349 -11.801619,3.62895 0,4.82858 3.10021,8.39676 15.63517,17.99529 4.713769,3.60951 11.070127,12.60806 16.857239,23.8644 5.109584,9.93849 11.784284,20.75191 14.832664,24.02983 9.34437,10.04796 25.51298,14.65032 51.46818,14.65032 h 22.69827 v 31.04297 c 0,39.89784 -2.39681,43.57578 -23.54398,36.12854 z"
     id="path1965"
     inkscape:connector-curvature="0" />
</svg>
