<?xml version="1.0" encoding="UTF-8" standalone="no"?>
<svg
   xmlns:dc="http://purl.org/dc/elements/1.1/"
   xmlns:cc="http://creativecommons.org/ns#"
   xmlns:rdf="http://www.w3.org/1999/02/22-rdf-syntax-ns#"
   xmlns:svg="http://www.w3.org/2000/svg"
   xmlns="http://www.w3.org/2000/svg"
   xmlns:sodipodi="http://sodipodi.sourceforge.net/DTD/sodipodi-0.dtd"
   xmlns:inkscape="http://www.inkscape.org/namespaces/inkscape"
   aria-hidden="true"
   focusable="false"
   data-prefix="fab"
   data-icon="twitter-square"
   class="svg-inline--fa fa-twitter-square fa-w-14"
   role="img"
   viewBox="0 0 448 512"
   version="1.1"
   id="svg827"
   sodipodi:docname="twitter.svg">
  <metadata
     id="metadata833">
    <rdf:RDF>
      <cc:Work
         rdf:about="">
        <dc:format>image/svg+xml</dc:format>
        <dc:type
           rdf:resource="http://purl.org/dc/dcmitype/StillImage" />
      </cc:Work>
    </rdf:RDF>
  </metadata>
  <defs
     id="defs831" />
  <sodipodi:namedview
     pagecolor="#ffffff"
     bordercolor="#666666"
     borderopacity="1"
     objecttolerance="10"
     gridtolerance="10"
     guidetolerance="10"
     inkscape:pageopacity="0"
     inkscape:pageshadow="2"
     inkscape:window-width="640"
     inkscape:window-height="480"
     id="namedview829"
     showgrid="false" />
  <path
     fill="currentColor"
     d="M400 32H48C21.5 32 0 53.5 0 80v352c0 26.5 21.5 48 48 48h352c26.5 0 48-21.5 48-48V80c0-26.5-21.5-48-48-48zm-48.9 158.8c.2 2.8.2 5.7.2 8.5 0 86.7-66 186.6-186.6 186.6-37.2 0-71.7-10.8-100.7-29.4 5.3.6 10.4.8 15.8.8 30.7 0 58.9-10.4 81.4-28-28.8-.6-53-19.5-61.3-45.5 10.1 1.5 19.2 1.5 29.6-1.2-30-6.1-52.5-32.5-52.5-64.4v-.8c8.7 4.9 18.9 7.9 29.6 8.3a65.447 65.447 0 0 1-29.2-54.6c0-12.2 3.2-23.4 8.9-33.1 32.3 39.8 80.8 65.8 135.2 68.6-9.3-44.5 24-80.6 64-80.6 18.9 0 35.9 7.9 47.9 20.7 14.8-2.8 29-8.3 41.6-15.8-4.9 15.2-15.2 28-28.8 36.1 13.2-1.4 26-5.1 37.8-10.2-8.9 13.1-20.1 24.7-32.9 34z"
     id="path825" />
  <path
     style="fill:#a0a0a0;stroke:none;stroke-width:0.39287972"
     d="M 40.007441,479.12205 C 33.296223,477.997 24.82819,474.37583 19.524401,470.36288 10.568864,463.58696 4.6872549,454.73282 1.5099469,443.24404 L 0.46973385,439.48276 V 256.00793 72.533095 L 1.5246062,68.714017 C 3.7405609,60.691335 6.9892485,54.431909 11.809869,48.896832 19.353151,40.235573 28.951708,34.816149 40.233111,32.848837 43.178145,32.335266 65.870246,32.262923 224.0183,32.262923 c 158.14806,0 180.84014,0.07234 183.78517,0.585914 17.59909,3.06902 31.91892,15.388904 37.60134,32.349765 2.53643,7.570708 2.35535,-7.100309 2.35535,190.809328 0,198.10509 0.18572,183.22477 -2.38277,190.89119 -5.65951,16.89257 -20.31385,29.42779 -37.69862,32.24713 -3.3108,0.53691 -23.62528,0.5993 -184.05335,0.56512 C 70.875188,479.67876 42.791006,479.58871 40.007441,479.12205 Z M 180.40865,385.4335 c 35.34659,-2.51433 68.29465,-14.54708 95.46978,-34.86589 9.84659,-7.3623 21.54842,-18.29072 29.151,-27.22434 29.92097,-35.15946 46.82056,-80.99365 46.4583,-126.00184 l -0.0519,-6.44858 3.39404,-2.66494 c 8.08108,-6.34514 15.54239,-13.64135 21.88803,-21.40368 3.31732,-4.05793 7.44134,-9.71406 7.23396,-9.92144 -0.0888,-0.0888 -2.69576,0.80755 -5.79324,1.99189 -6.62013,2.53124 -10.65315,3.77885 -17.28167,5.34604 -4.85455,1.14777 -12.88208,2.54104 -13.14215,2.28098 -0.076,-0.076 1.14172,-1.02791 2.70601,-2.11541 8.97025,-6.23615 16.25747,-14.753 21.126,-24.69076 1.95265,-3.98579 3.65541,-8.43621 3.3461,-8.74552 -0.0933,-0.0933 -1.91668,0.81083 -4.0519,2.00924 -9.86747,5.53822 -22.52067,10.30083 -33.95803,12.78167 l -3.40771,0.73915 -1.1104,-1.18508 c -1.81146,-1.93329 -7.58296,-6.64764 -10.56242,-8.62773 -3.26065,-2.16697 -9.45165,-5.28967 -13.33501,-6.72609 -17.45043,-6.45477 -36.6422,-5.25876 -53.2352,3.31756 -17.85257,9.22734 -29.94393,25.1923 -34.18416,45.13545 -1.21606,5.71949 -1.5132,16.47753 -0.62895,22.77125 0.34792,2.47628 0.63257,4.64203 0.63257,4.81278 0,0.45376 -2.06163,0.38411 -8.5563,-0.28904 -38.52639,-3.99316 -73.65819,-19.06057 -103.02154,-44.18412 -5.29676,-4.53196 -15.569479,-14.80334 -19.847699,-19.84512 -1.650229,-1.94476 -3.156777,-3.59262 -3.347886,-3.66192 -0.483254,-0.17525 -4.394509,8.10278 -5.628446,11.91239 -4.421614,13.65113 -4.497813,28.41567 -0.214524,41.56647 4.097378,12.58001 12.347994,24.12918 22.963145,32.1437 1.19209,0.90004 2.10128,1.70259 2.02041,1.78346 -0.0809,0.0809 -2.11255,-0.11121 -4.51486,-0.42684 -7.482822,-0.98316 -14.555466,-3.11973 -20.894553,-6.31205 -1.502663,-0.75672 -2.851914,-1.37586 -2.998336,-1.37586 -0.146427,0 -0.159745,2.07735 -0.02958,4.61633 1.387258,27.06337 19.799158,50.92613 45.434499,58.88546 2.49754,0.77544 4.80618,1.50061 5.13031,1.61149 0.86418,0.29561 -1.07109,0.78039 -6.08964,1.52543 -3.39998,0.50476 -5.8718,0.58838 -11.58995,0.3921 -3.99755,-0.13723 -7.93457,-0.35578 -8.74894,-0.48567 l -1.480665,-0.23616 1.031515,2.89222 c 8.36517,23.45458 31.13539,40.74455 56.19187,42.66782 l 3.88413,0.29814 -3.92879,2.81084 c -25.08976,17.95037 -55.89368,26.70058 -86.400511,24.54307 -3.439171,-0.24323 -6.326475,-0.3688 -6.416229,-0.27904 -0.302434,0.30243 10.402206,6.45853 16.809203,9.66674 24.211767,12.12371 50.185717,18.74622 77.579057,19.78014 4.55955,0.17209 15.64251,-0.11237 22.00126,-0.56469 z"
     id="path837"
     inkscape:connector-curvature="0" />
  <path
     style="fill:#eeeee0;stroke:none;stroke-width:0.39287972;fill-opacity:0"
     d="M 41.918545,478.96777 C 33.057061,478.32344 22.143873,473.16332 15.118782,466.29602 9.0862743,460.39901 5.3096664,454.17874 2.4079345,445.36068 l -1.74342907,-5.2981 0.0138661,-183.96119 C 0.68599795,154.92274 0.73057228,71.786624 0.77742566,71.354456 0.82427901,70.922289 0.95137674,70.480299 1.0598651,70.372257 1.1683534,70.264215 1.8494894,68.343406 2.5735007,66.103793 5.8606456,55.935534 11.582341,47.89561 19.943345,41.696304 25.933857,37.25461 33.951771,33.946166 40.985884,33.01349 c 5.012859,-0.664672 361.030386,-0.667627 366.040396,-0.003 15.04006,1.995096 29.72205,13.04649 36.17947,27.232899 2.87552,6.317301 3.39027,8.466446 3.86896,16.154295 0.63053,10.126322 0.63053,349.094236 0,359.220556 -0.49452,7.94195 -1.0543,10.16938 -4.22947,16.8296 -4.38815,9.20466 -12.74867,17.65318 -22.14687,22.38 -3.56664,1.79381 -10.10809,3.73687 -13.94,4.14067 -4.12441,0.43461 -358.862489,0.43394 -364.839825,0 z M 176.28341,385.73305 c 2.0528,-0.094 4.57469,-0.18462 5.60421,-0.2014 1.02952,-0.0168 2.08537,-0.16245 2.34633,-0.32373 0.26096,-0.16129 1.13792,-0.24534 1.94879,-0.1868 0.81088,0.0586 1.69486,-0.0299 1.9644,-0.19644 0.26955,-0.16659 1.158,-0.25466 1.97433,-0.19572 0.90857,0.0656 1.48425,-0.0659 1.48425,-0.33894 0,-0.24536 0.18818,-0.32981 0.41818,-0.18767 0.5809,0.35902 9.40382,-1.0154 9.40382,-1.46491 0,-0.20078 0.17015,-0.25989 0.37812,-0.13136 0.45804,0.28309 5.51415,-0.55561 5.5173,-0.91519 0.001,-0.13988 0.7475,-0.28325 1.65842,-0.31859 0.9109,-0.0354 1.71396,-0.23757 1.78457,-0.44939 0.0706,-0.21182 0.47349,-0.29488 0.8953,-0.18458 0.43947,0.11493 0.76692,0.004 0.76692,-0.26133 0,-0.25404 0.16706,-0.35864 0.37125,-0.23244 0.43049,0.26605 5.5215,-0.94268 5.52284,-1.31126 3.9e-4,-0.13579 0.56724,-0.26756 1.25943,-0.29281 0.69219,-0.0253 1.32567,-0.24736 1.40774,-0.49356 0.0821,-0.24619 0.30094,-0.35384 0.48639,-0.23923 0.4926,0.30445 9.02482,-2.52851 9.02482,-2.99651 0,-0.21802 0.15648,-0.29968 0.34775,-0.18147 0.47656,0.29453 2.79528,-0.5482 2.79528,-1.01593 0,-0.2077 0.16582,-0.27515 0.36849,-0.1499 0.4588,0.28356 5.52471,-1.71101 5.52471,-2.17521 0,-0.18632 0.22099,-0.25554 0.4911,-0.15383 0.65205,0.24556 14.23656,-6.45471 19.93865,-9.83431 14.01196,-8.30482 25.37521,-17.31301 37.74179,-29.9197 13.31915,-13.57777 24.23982,-29.05755 33.40112,-47.34524 1.50817,-3.01061 2.63798,-5.64237 2.51068,-5.84834 -0.1273,-0.20598 -0.0148,-0.37451 0.25009,-0.37451 0.26485,0 0.3721,-0.10944 0.23834,-0.24321 -0.13377,-0.13376 -0.0103,-0.47609 0.27429,-0.76071 0.76338,-0.76338 4.62524,-10.34694 4.34936,-10.79333 -0.12986,-0.21011 -0.0655,-0.38202 0.14303,-0.38202 0.46467,0 1.70057,-3.49941 1.40488,-3.97785 -0.11687,-0.1891 -0.0398,-0.34382 0.17131,-0.34382 0.50012,0 2.54713,-6.14366 2.22219,-6.66942 -0.13679,-0.22133 -0.0895,-0.40242 0.10517,-0.40242 0.46038,0 1.37257,-3.04242 1.06258,-3.544 -0.13081,-0.21164 -0.0716,-0.3848 0.1316,-0.3848 0.45463,0 1.3584,-3.43307 1.03957,-3.94895 -0.12669,-0.205 -0.0608,-0.37272 0.14652,-0.37272 0.45991,0 1.40345,-3.741 1.07684,-4.26947 -0.12848,-0.20789 -0.0633,-0.43728 0.14489,-0.50975 0.47901,-0.16678 2.88675,-12.01649 2.63625,-12.97438 -0.10236,-0.39146 -0.007,-0.71175 0.21296,-0.71175 0.22475,0 0.32896,-0.60067 0.23855,-1.37508 -0.0883,-0.75629 10e-5,-1.37508 0.19644,-1.37508 0.19633,0 0.28473,-0.61878 0.19644,-1.37508 -0.0883,-0.75629 -7.9e-4,-1.37508 0.19472,-1.37508 0.19539,0 0.28781,-0.70718 0.20539,-1.57152 -0.0824,-0.86433 0.004,-1.57151 0.19309,-1.57151 0.18863,0 0.2817,-0.88411 0.20682,-1.96467 -0.0749,-1.08057 0.0236,-2.01782 0.21894,-2.08277 0.19539,-0.065 0.44056,-5.44892 0.54514,-11.97105 l 0.19004,-11.85297 4.39527,-3.51344 c 5.40364,-4.3195 13.57624,-12.14879 18.00458,-17.24824 3.4229,-3.94163 10.09435,-12.62703 10.09867,-13.1472 10e-4,-0.16207 -0.26275,-0.29466 -0.58688,-0.29466 -0.32412,0 -0.58932,0.18723 -0.58932,0.41607 0,0.22883 -0.14619,0.32571 -0.32487,0.21528 -0.17869,-0.11044 -3.3089,0.86593 -6.95603,2.1697 -3.64714,1.30377 -8.93742,2.95986 -11.75618,3.68022 -4.99961,1.27769 -13.4141,2.94784 -14.85169,2.94784 -0.41336,0 0.91501,-1.23187 3.12911,-2.9018 4.01384,-3.02734 10.09235,-9.04958 13.0193,-12.89877 2.44079,-3.20987 6.78249,-10.62927 6.55983,-11.20991 -0.10358,-0.27011 -0.0336,-0.4911 0.15557,-0.4911 0.47985,0 2.85995,-5.82994 2.57099,-6.2975 -0.12967,-0.2098 -0.0485,-0.38146 0.18031,-0.38146 0.22884,0 0.41607,-0.26519 0.41607,-0.58931 0,-0.32413 -0.1768,-0.58932 -0.39288,-0.58932 -0.21609,0 -0.39288,0.20626 -0.39288,0.45836 0,0.25209 -0.10578,0.35258 -0.23507,0.22329 -0.12928,-0.12928 -3.00221,1.15764 -6.38429,2.85984 -9.8386,4.95174 -19.35926,8.47057 -29.2133,10.79719 l -4.59871,1.08581 -2.866,-2.5611 c -5.28102,-4.71919 -10.17246,-8.08202 -15.83103,-10.88371 -5.72733,-2.83573 -12.38783,-5.24797 -14.61463,-5.29299 -0.71208,-0.0144 -1.29521,-0.17938 -1.29585,-0.36663 -7.8e-4,-0.18725 -0.44314,-0.25597 -0.98335,-0.1527 -0.54021,0.10326 -0.9822,0.0154 -0.9822,-0.19523 0,-0.21065 -0.52607,-0.30578 -1.16905,-0.21141 -0.64298,0.0944 -1.22767,-0.004 -1.29931,-0.21921 -0.17712,-0.53135 -15.21123,-0.88922 -15.21123,-0.36207 0,0.21445 -0.41119,0.31131 -0.91377,0.21524 -1.16362,-0.22244 -8.28014,0.98889 -8.43596,1.43591 -0.0644,0.18471 -0.46217,0.24558 -0.88398,0.13528 -0.43947,-0.11493 -0.76692,-0.004 -0.76692,0.26133 0,0.25404 -0.17316,0.35487 -0.3848,0.22407 -0.50158,-0.30999 -3.544,0.6022 -3.544,1.06258 0,0.19464 -0.15649,0.25717 -0.34775,0.13896 -0.45604,-0.28185 -2.79529,0.53861 -2.79529,0.98041 0,0.18816 -0.24239,0.2491 -0.53866,0.13541 -0.29626,-0.11369 -0.78245,0.0245 -1.08042,0.30699 -0.29796,0.28253 -0.89535,0.57367 -1.32751,0.64698 -1.13618,0.19272 -5.30388,2.46461 -5.30388,2.89124 0,0.19873 -0.15455,0.26581 -0.34345,0.14906 -0.18889,-0.11674 -2.26625,1.05115 -4.61633,2.5953 -5.37154,3.52945 -13.38156,11.40537 -16.90833,16.62526 -3.04145,4.50158 -6.16042,10.26942 -5.83656,10.79344 0.13721,0.222 0.0891,0.40363 -0.10701,0.40363 -0.45612,0 -1.70215,3.14064 -1.42436,3.59013 0.11512,0.18626 0.0467,0.33867 -0.15205,0.33867 -0.45824,0 -2.17159,5.36614 -1.86944,5.85502 0.12371,0.20017 0.0618,0.42324 -0.13763,0.49572 -0.19941,0.0725 -0.66407,1.54614 -1.03259,3.27481 -0.71401,3.34943 -1.29084,21.01549 -0.68642,21.0228 0.16979,0.002 0.35677,1.41643 0.4155,3.14304 l 0.10679,3.1393 -2.46407,-0.004 c -4.66392,-0.007 -16.12785,-1.55591 -24.85821,-3.35918 -29.94643,-6.18549 -57.63867,-19.54664 -81.71898,-39.42839 -4.45616,-3.6792 -17.269227,-16.29297 -21.683754,-21.34648 -1.840425,-2.10682 -3.487746,-3.83058 -3.660715,-3.83058 -0.499755,0 -2.418733,3.50549 -2.153712,3.9343 0.131673,0.21303 0.04175,0.38735 -0.199842,0.38735 -0.24159,0 -0.329988,0.17679 -0.19644,0.39288 0.133547,0.21608 0.07208,0.39288 -0.136593,0.39288 -0.483049,0 -2.915006,5.79833 -2.627245,6.26394 0.11826,0.19135 0.03603,0.40756 -0.182697,0.48047 -0.509691,0.1699 -2.842297,9.33564 -2.607838,10.24724 0.0972,0.37794 0.0045,0.79358 -0.205951,0.92366 -0.210474,0.13008 -0.334494,0.79579 -0.275601,1.47935 0.05889,0.68356 0.0061,1.41709 -0.11742,1.63006 -0.267579,0.46154 -0.319954,13.60853 -0.05598,14.05343 0.100601,0.16956 0.252284,1.39373 0.337067,2.72037 0.08479,1.32664 0.291556,2.51388 0.459489,2.63831 0.167932,0.12442 0.34936,0.93334 0.403169,1.79761 0.05381,0.86426 0.264872,1.62707 0.469028,1.69512 0.204156,0.068 0.280669,0.35964 0.17003,0.64796 -0.505766,1.318 5.484232,15.92596 6.530447,15.92596 0.242105,0 0.334907,0.17034 0.206231,0.37855 -0.128676,0.2082 0.08188,0.70912 0.467915,1.11315 0.386028,0.40404 0.759673,0.98169 0.83032,1.28366 0.191557,0.8188 3.179026,4.88071 6.087959,8.2775 2.294814,2.67968 6.203657,6.35451 10.098933,9.49434 l 1.36424,1.09966 -2.55372,-0.23741 c -6.639284,-0.61721 -14.647537,-2.85865 -21.169882,-5.92527 -2.027708,-0.95337 -3.829984,-1.73339 -4.005055,-1.73339 -0.449365,0 -0.148768,10.74438 0.304831,10.89558 0.204965,0.0683 0.295453,0.6503 0.201088,1.29328 -0.09437,0.64297 -0.01894,1.17005 0.167669,1.17127 0.18659,0.001 0.368171,0.74751 0.403515,1.65842 0.03536,0.91091 0.257438,1.72059 0.493547,1.79929 0.236105,0.0787 0.325477,0.31106 0.198601,0.51635 -0.427009,0.69092 2.222556,7.96562 4.776329,13.11399 1.393411,2.80909 3.724107,6.78699 5.179322,8.83979 3.400276,4.79659 10.669356,12.06569 15.325315,15.32537 3.94779,2.76388 11.0467,6.74045 11.67557,6.54026 0.21415,-0.0682 0.63474,0.12142 0.93463,0.42132 0.2999,0.29989 0.78767,0.45224 1.08393,0.33856 0.29626,-0.11369 0.53866,-0.0528 0.53866,0.13541 0,0.4418 2.33925,1.26226 2.79529,0.98041 0.19126,-0.11821 0.34775,-0.051 0.34775,0.14938 0,0.20036 1.10498,0.67228 2.4555,1.04872 3.4632,0.96531 3.52486,1.08602 0.88183,1.72624 -2.97764,0.72128 -24.57611,0.96321 -25.037917,0.28045 -0.165635,-0.24488 -0.291207,-0.062 -0.29466,0.42918 -0.0031,0.47075 0.21498,1.08954 0.485087,1.37508 0.2701,0.28554 0.53731,0.96115 0.59379,1.50136 0.17672,1.69032 5.00638,11.03379 7.61551,14.73299 2.65812,3.76865 12.25503,13.76145 12.85823,13.38865 0.19817,-0.12247 0.45525,0.0248 0.57131,0.32722 0.24857,0.64778 3.79458,3.16466 3.81207,2.70573 0.007,-0.17244 0.19423,-3.9e-4 0.41702,0.38227 0.2228,0.38269 0.57101,0.59325 0.77381,0.46792 0.20281,-0.12535 0.36874,-0.0575 0.36874,0.15084 0,0.44584 3.4725,2.54875 4.20871,2.54875 0.27821,0 0.50584,0.15777 0.50584,0.35059 0,0.19283 0.1768,0.24132 0.39288,0.10777 0.21609,-0.13354 0.39288,-0.0452 0.39288,0.19644 0,0.24159 0.1768,0.32999 0.39288,0.19644 0.21609,-0.13354 0.39288,-0.0452 0.39288,0.19644 0,0.24159 0.1768,0.32999 0.39288,0.19644 0.21609,-0.13354 0.39288,-0.0883 0.39288,0.10049 0,0.48018 2.7241,1.72995 3.17002,1.45436 0.20125,-0.12438 0.3659,-0.0555 0.3659,0.15299 0,0.46467 3.49941,1.70057 3.97785,1.40488 0.18911,-0.11687 0.34383,-0.006 0.34383,0.24561 0,0.25195 0.25377,0.36072 0.56393,0.2417 0.31017,-0.11903 0.62741,-0.026 0.70497,0.2067 0.0776,0.23271 0.70738,0.44377 1.39957,0.46903 0.69219,0.0253 1.25894,0.15436 1.25943,0.2869 0.001,0.36744 4.58628,1.2603 5.03804,0.9811 0.21783,-0.13463 0.45802,-0.0589 0.53375,0.1683 0.0757,0.2272 1.55375,0.48445 3.2845,0.57168 1.73074,0.0872 3.57282,0.31619 4.0935,0.5088 0.88112,0.32595 0.66271,0.54746 -3.15271,3.19732 -16.35571,11.35924 -34.88161,19.00241 -53.80195,22.19689 -9.457987,1.59688 -14.822454,1.9335 -27.040479,1.69679 -9.397003,-0.18205 -11.073064,-0.13203 -10.620631,0.317 0.962437,0.95519 10.658171,6.44552 11.004537,6.23146 0.185279,-0.11451 0.336867,-0.0105 0.336867,0.23106 0,0.24159 0.176796,0.32998 0.39288,0.19644 0.216084,-0.13355 0.39288,-0.0425 0.39288,0.20237 0,0.56208 12.863483,6.78216 13.373732,6.4668 0.207381,-0.12817 0.377058,-0.0694 0.377058,0.13065 0,0.47262 3.908187,2.09908 4.365173,1.81665 0.192161,-0.11876 0.349384,-0.0555 0.349384,0.14054 0,0.45612 3.140641,1.70215 3.590123,1.42436 0.186268,-0.11512 0.338674,-0.0383 0.338674,0.17068 0,0.4434 4.669132,2.0981 5.125092,1.8163 0.16946,-0.10473 0.36741,-0.0177 0.43989,0.19333 0.0725,0.21106 0.57376,0.43316 1.11397,0.49355 0.54021,0.0604 1.07255,0.22867 1.18298,0.37396 0.35161,0.46261 9.8113,3.12562 10.21554,2.87578 0.21333,-0.13185 0.38787,-0.0319 0.38787,0.22217 0,0.26846 0.32906,0.37584 0.78576,0.25641 0.43217,-0.11302 0.78576,-0.0246 0.78576,0.19644 0,0.22106 0.35359,0.30945 0.78576,0.19644 0.43217,-0.11302 0.78576,-0.0754 0.78576,0.0837 0,0.39834 6.20258,1.69962 6.68377,1.40223 0.21344,-0.13191 0.38807,-0.032 0.38807,0.22203 0,0.27906 0.38332,0.38859 0.96849,0.27673 0.53267,-0.10183 1.01886,-0.0354 1.08042,0.14755 0.0616,0.18298 1.03883,0.37828 2.17173,0.434 1.13289,0.0557 2.06106,0.20334 2.06262,0.32805 0.004,0.3409 7.39445,1.23987 7.85462,0.95547 0.21927,-0.13552 0.39867,-0.0414 0.39867,0.20924 0,0.29891 0.60809,0.40726 1.76796,0.31501 0.97237,-0.0773 1.76795,0.01 1.76795,0.19324 0,0.18362 0.97262,0.27329 2.16138,0.19927 1.18875,-0.074 2.16113,-0.009 2.16084,0.14356 -10e-4,0.5757 15.45751,0.68702 26.3224,0.18955 z"
     id="path839"
     inkscape:connector-curvature="0" />
  <path
     style="fill:#a0a0a0;stroke:none;stroke-width:0.39287972"
     d="M 41.918545,478.96777 C 33.057061,478.32344 22.143873,473.16332 15.118782,466.29602 9.0862743,460.39901 5.3096664,454.17874 2.4079345,445.36068 l -1.74342907,-5.2981 0.0138661,-183.96119 C 0.68599795,154.92274 0.73057228,71.786624 0.77742566,71.354456 0.82427901,70.922289 0.95137674,70.480299 1.0598651,70.372257 1.1683534,70.264215 1.8494894,68.343406 2.5735007,66.103793 5.8606456,55.935534 11.582341,47.89561 19.943345,41.696304 25.933857,37.25461 33.951771,33.946166 40.985884,33.01349 c 5.012859,-0.664672 361.030386,-0.667627 366.040396,-0.003 15.04006,1.995096 29.72205,13.04649 36.17947,27.232899 2.87552,6.317301 3.39027,8.466446 3.86896,16.154295 0.63053,10.126322 0.63053,349.094236 0,359.220556 -0.49452,7.94195 -1.0543,10.16938 -4.22947,16.8296 -4.38815,9.20466 -12.74867,17.65318 -22.14687,22.38 -3.56664,1.79381 -10.10809,3.73687 -13.94,4.14067 -4.12441,0.43461 -358.862489,0.43394 -364.839825,0 z M 176.28341,385.73305 c 2.0528,-0.094 4.57469,-0.18462 5.60421,-0.2014 1.02952,-0.0168 2.08537,-0.16245 2.34633,-0.32373 0.26096,-0.16129 1.13792,-0.24534 1.94879,-0.1868 0.81088,0.0586 1.69486,-0.0299 1.9644,-0.19644 0.26955,-0.16659 1.158,-0.25466 1.97433,-0.19572 0.90857,0.0656 1.48425,-0.0659 1.48425,-0.33894 0,-0.24536 0.18818,-0.32981 0.41818,-0.18767 0.5809,0.35902 9.40382,-1.0154 9.40382,-1.46491 0,-0.20078 0.17015,-0.25989 0.37812,-0.13136 0.45804,0.28309 5.51415,-0.55561 5.5173,-0.91519 0.001,-0.13988 0.7475,-0.28325 1.65842,-0.31859 0.9109,-0.0354 1.71396,-0.23757 1.78457,-0.44939 0.0706,-0.21182 0.47349,-0.29488 0.8953,-0.18458 0.43947,0.11493 0.76692,0.004 0.76692,-0.26133 0,-0.25404 0.16706,-0.35864 0.37125,-0.23244 0.43049,0.26605 5.5215,-0.94268 5.52284,-1.31126 3.9e-4,-0.13579 0.56724,-0.26756 1.25943,-0.29281 0.69219,-0.0253 1.32567,-0.24736 1.40774,-0.49356 0.0821,-0.24619 0.30094,-0.35384 0.48639,-0.23923 0.4926,0.30445 9.02482,-2.52851 9.02482,-2.99651 0,-0.21802 0.15648,-0.29968 0.34775,-0.18147 0.47656,0.29453 2.79528,-0.5482 2.79528,-1.01593 0,-0.2077 0.16582,-0.27515 0.36849,-0.1499 0.4588,0.28356 5.52471,-1.71101 5.52471,-2.17521 0,-0.18632 0.22099,-0.25554 0.4911,-0.15383 0.65205,0.24556 14.23656,-6.45471 19.93865,-9.83431 14.01196,-8.30482 25.37521,-17.31301 37.74179,-29.9197 13.31915,-13.57777 24.23982,-29.05755 33.40112,-47.34524 1.50817,-3.01061 2.63798,-5.64237 2.51068,-5.84834 -0.1273,-0.20598 -0.0148,-0.37451 0.25009,-0.37451 0.26485,0 0.3721,-0.10944 0.23834,-0.24321 -0.13377,-0.13376 -0.0103,-0.47609 0.27429,-0.76071 0.76338,-0.76338 4.62524,-10.34694 4.34936,-10.79333 -0.12986,-0.21011 -0.0655,-0.38202 0.14303,-0.38202 0.46467,0 1.70057,-3.49941 1.40488,-3.97785 -0.11687,-0.1891 -0.0398,-0.34382 0.17131,-0.34382 0.50012,0 2.54713,-6.14366 2.22219,-6.66942 -0.13679,-0.22133 -0.0895,-0.40242 0.10517,-0.40242 0.46038,0 1.37257,-3.04242 1.06258,-3.544 -0.13081,-0.21164 -0.0716,-0.3848 0.1316,-0.3848 0.45463,0 1.3584,-3.43307 1.03957,-3.94895 -0.12669,-0.205 -0.0608,-0.37272 0.14652,-0.37272 0.45991,0 1.40345,-3.741 1.07684,-4.26947 -0.12848,-0.20789 -0.0633,-0.43728 0.14489,-0.50975 0.47901,-0.16678 2.88675,-12.01649 2.63625,-12.97438 -0.10236,-0.39146 -0.007,-0.71175 0.21296,-0.71175 0.22475,0 0.32896,-0.60067 0.23855,-1.37508 -0.0883,-0.75629 10e-5,-1.37508 0.19644,-1.37508 0.19633,0 0.28473,-0.61878 0.19644,-1.37508 -0.0883,-0.75629 -7.9e-4,-1.37508 0.19472,-1.37508 0.19539,0 0.28781,-0.70718 0.20539,-1.57152 -0.0824,-0.86433 0.004,-1.57151 0.19309,-1.57151 0.18863,0 0.2817,-0.88411 0.20682,-1.96467 -0.0749,-1.08057 0.0236,-2.01782 0.21894,-2.08277 0.19539,-0.065 0.44056,-5.44892 0.54514,-11.97105 l 0.19004,-11.85297 4.39527,-3.51344 c 5.40364,-4.3195 13.57624,-12.14879 18.00458,-17.24824 3.4229,-3.94163 10.09435,-12.62703 10.09867,-13.1472 10e-4,-0.16207 -0.26275,-0.29466 -0.58688,-0.29466 -0.32412,0 -0.58932,0.18723 -0.58932,0.41607 0,0.22883 -0.14619,0.32571 -0.32487,0.21528 -0.17869,-0.11044 -3.3089,0.86593 -6.95603,2.1697 -3.64714,1.30377 -8.93742,2.95986 -11.75618,3.68022 -4.99961,1.27769 -13.4141,2.94784 -14.85169,2.94784 -0.41336,0 0.91501,-1.23187 3.12911,-2.9018 4.01384,-3.02734 10.09235,-9.04958 13.0193,-12.89877 2.44079,-3.20987 6.78249,-10.62927 6.55983,-11.20991 -0.10358,-0.27011 -0.0336,-0.4911 0.15557,-0.4911 0.47985,0 2.85995,-5.82994 2.57099,-6.2975 -0.12967,-0.2098 -0.0485,-0.38146 0.18031,-0.38146 0.22884,0 0.41607,-0.26519 0.41607,-0.58931 0,-0.32413 -0.1768,-0.58932 -0.39288,-0.58932 -0.21609,0 -0.39288,0.20626 -0.39288,0.45836 0,0.25209 -0.10578,0.35258 -0.23507,0.22329 -0.12928,-0.12928 -3.00221,1.15764 -6.38429,2.85984 -9.8386,4.95174 -19.35926,8.47057 -29.2133,10.79719 l -4.59871,1.08581 -2.866,-2.5611 c -5.28102,-4.71919 -10.17246,-8.08202 -15.83103,-10.88371 -5.72733,-2.83573 -12.38783,-5.24797 -14.61463,-5.29299 -0.71208,-0.0144 -1.29521,-0.17938 -1.29585,-0.36663 -7.8e-4,-0.18725 -0.44314,-0.25597 -0.98335,-0.1527 -0.54021,0.10326 -0.9822,0.0154 -0.9822,-0.19523 0,-0.21065 -0.52607,-0.30578 -1.16905,-0.21141 -0.64298,0.0944 -1.22767,-0.004 -1.29931,-0.21921 -0.17712,-0.53135 -15.21123,-0.88922 -15.21123,-0.36207 0,0.21445 -0.41119,0.31131 -0.91377,0.21524 -1.16362,-0.22244 -8.28014,0.98889 -8.43596,1.43591 -0.0644,0.18471 -0.46217,0.24558 -0.88398,0.13528 -0.43947,-0.11493 -0.76692,-0.004 -0.76692,0.26133 0,0.25404 -0.17316,0.35487 -0.3848,0.22407 -0.50158,-0.30999 -3.544,0.6022 -3.544,1.06258 0,0.19464 -0.15649,0.25717 -0.34775,0.13896 -0.45604,-0.28185 -2.79529,0.53861 -2.79529,0.98041 0,0.18816 -0.24239,0.2491 -0.53866,0.13541 -0.29626,-0.11369 -0.78245,0.0245 -1.08042,0.30699 -0.29796,0.28253 -0.89535,0.57367 -1.32751,0.64698 -1.13618,0.19272 -5.30388,2.46461 -5.30388,2.89124 0,0.19873 -0.15455,0.26581 -0.34345,0.14906 -0.18889,-0.11674 -2.26625,1.05115 -4.61633,2.5953 -5.37154,3.52945 -13.38156,11.40537 -16.90833,16.62526 -3.04145,4.50158 -6.16042,10.26942 -5.83656,10.79344 0.13721,0.222 0.0891,0.40363 -0.10701,0.40363 -0.45612,0 -1.70215,3.14064 -1.42436,3.59013 0.11512,0.18626 0.0467,0.33867 -0.15205,0.33867 -0.45824,0 -2.17159,5.36614 -1.86944,5.85502 0.12371,0.20017 0.0618,0.42324 -0.13763,0.49572 -0.19941,0.0725 -0.66407,1.54614 -1.03259,3.27481 -0.71401,3.34943 -1.29084,21.01549 -0.68642,21.0228 0.16979,0.002 0.35677,1.41643 0.4155,3.14304 l 0.10679,3.1393 -2.46407,-0.004 c -4.66392,-0.007 -16.12785,-1.55591 -24.85821,-3.35918 -29.94643,-6.18549 -57.63867,-19.54664 -81.71898,-39.42839 -4.45616,-3.6792 -17.269227,-16.29297 -21.683754,-21.34648 -1.840425,-2.10682 -3.487746,-3.83058 -3.660715,-3.83058 -0.499755,0 -2.418733,3.50549 -2.153712,3.9343 0.131673,0.21303 0.04175,0.38735 -0.199842,0.38735 -0.24159,0 -0.329988,0.17679 -0.19644,0.39288 0.133547,0.21608 0.07208,0.39288 -0.136593,0.39288 -0.483049,0 -2.915006,5.79833 -2.627245,6.26394 0.11826,0.19135 0.03603,0.40756 -0.182697,0.48047 -0.509691,0.1699 -2.842297,9.33564 -2.607838,10.24724 0.0972,0.37794 0.0045,0.79358 -0.205951,0.92366 -0.210474,0.13008 -0.334494,0.79579 -0.275601,1.47935 0.05889,0.68356 0.0061,1.41709 -0.11742,1.63006 -0.267579,0.46154 -0.319954,13.60853 -0.05598,14.05343 0.100601,0.16956 0.252284,1.39373 0.337067,2.72037 0.08479,1.32664 0.291556,2.51388 0.459489,2.63831 0.167932,0.12442 0.34936,0.93334 0.403169,1.79761 0.05381,0.86426 0.264872,1.62707 0.469028,1.69512 0.204156,0.068 0.280669,0.35964 0.17003,0.64796 -0.505766,1.318 5.484232,15.92596 6.530447,15.92596 0.242105,0 0.334907,0.17034 0.206231,0.37855 -0.128676,0.2082 0.08188,0.70912 0.467915,1.11315 0.386028,0.40404 0.759673,0.98169 0.83032,1.28366 0.191557,0.8188 3.179026,4.88071 6.087959,8.2775 2.294814,2.67968 6.203657,6.35451 10.098933,9.49434 l 1.36424,1.09966 -2.55372,-0.23741 c -6.639284,-0.61721 -14.647537,-2.85865 -21.169882,-5.92527 -2.027708,-0.95337 -3.829984,-1.73339 -4.005055,-1.73339 -0.449365,0 -0.148768,10.74438 0.304831,10.89558 0.204965,0.0683 0.295453,0.6503 0.201088,1.29328 -0.09437,0.64297 -0.01894,1.17005 0.167669,1.17127 0.18659,0.001 0.368171,0.74751 0.403515,1.65842 0.03536,0.91091 0.257438,1.72059 0.493547,1.79929 0.236105,0.0787 0.325477,0.31106 0.198601,0.51635 -0.427009,0.69092 2.222556,7.96562 4.776329,13.11399 1.393411,2.80909 3.724107,6.78699 5.179322,8.83979 3.400276,4.79659 10.669356,12.06569 15.325315,15.32537 3.94779,2.76388 11.0467,6.74045 11.67557,6.54026 0.21415,-0.0682 0.63474,0.12142 0.93463,0.42132 0.2999,0.29989 0.78767,0.45224 1.08393,0.33856 0.29626,-0.11369 0.53866,-0.0528 0.53866,0.13541 0,0.4418 2.33925,1.26226 2.79529,0.98041 0.19126,-0.11821 0.34775,-0.051 0.34775,0.14938 0,0.20036 1.10498,0.67228 2.4555,1.04872 3.4632,0.96531 3.52486,1.08602 0.88183,1.72624 -2.97764,0.72128 -24.57611,0.96321 -25.037917,0.28045 -0.165635,-0.24488 -0.291207,-0.062 -0.29466,0.42918 -0.0031,0.47075 0.21498,1.08954 0.485087,1.37508 0.2701,0.28554 0.53731,0.96115 0.59379,1.50136 0.17672,1.69032 5.00638,11.03379 7.61551,14.73299 2.65812,3.76865 12.25503,13.76145 12.85823,13.38865 0.19817,-0.12247 0.45525,0.0248 0.57131,0.32722 0.24857,0.64778 3.79458,3.16466 3.81207,2.70573 0.007,-0.17244 0.19423,-3.9e-4 0.41702,0.38227 0.2228,0.38269 0.57101,0.59325 0.77381,0.46792 0.20281,-0.12535 0.36874,-0.0575 0.36874,0.15084 0,0.44584 3.4725,2.54875 4.20871,2.54875 0.27821,0 0.50584,0.15777 0.50584,0.35059 0,0.19283 0.1768,0.24132 0.39288,0.10777 0.21609,-0.13354 0.39288,-0.0452 0.39288,0.19644 0,0.24159 0.1768,0.32999 0.39288,0.19644 0.21609,-0.13354 0.39288,-0.0452 0.39288,0.19644 0,0.24159 0.1768,0.32999 0.39288,0.19644 0.21609,-0.13354 0.39288,-0.0883 0.39288,0.10049 0,0.48018 2.7241,1.72995 3.17002,1.45436 0.20125,-0.12438 0.3659,-0.0555 0.3659,0.15299 0,0.46467 3.49941,1.70057 3.97785,1.40488 0.18911,-0.11687 0.34383,-0.006 0.34383,0.24561 0,0.25195 0.25377,0.36072 0.56393,0.2417 0.31017,-0.11903 0.62741,-0.026 0.70497,0.2067 0.0776,0.23271 0.70738,0.44377 1.39957,0.46903 0.69219,0.0253 1.25894,0.15436 1.25943,0.2869 0.001,0.36744 4.58628,1.2603 5.03804,0.9811 0.21783,-0.13463 0.45802,-0.0589 0.53375,0.1683 0.0757,0.2272 1.55375,0.48445 3.2845,0.57168 1.73074,0.0872 3.57282,0.31619 4.0935,0.5088 0.88112,0.32595 0.66271,0.54746 -3.15271,3.19732 -16.35571,11.35924 -34.88161,19.00241 -53.80195,22.19689 -9.457987,1.59688 -14.822454,1.9335 -27.040479,1.69679 -9.397003,-0.18205 -11.073064,-0.13203 -10.620631,0.317 0.962437,0.95519 10.658171,6.44552 11.004537,6.23146 0.185279,-0.11451 0.336867,-0.0105 0.336867,0.23106 0,0.24159 0.176796,0.32998 0.39288,0.19644 0.216084,-0.13355 0.39288,-0.0425 0.39288,0.20237 0,0.56208 12.863483,6.78216 13.373732,6.4668 0.207381,-0.12817 0.377058,-0.0694 0.377058,0.13065 0,0.47262 3.908187,2.09908 4.365173,1.81665 0.192161,-0.11876 0.349384,-0.0555 0.349384,0.14054 0,0.45612 3.140641,1.70215 3.590123,1.42436 0.186268,-0.11512 0.338674,-0.0383 0.338674,0.17068 0,0.4434 4.669132,2.0981 5.125092,1.8163 0.16946,-0.10473 0.36741,-0.0177 0.43989,0.19333 0.0725,0.21106 0.57376,0.43316 1.11397,0.49355 0.54021,0.0604 1.07255,0.22867 1.18298,0.37396 0.35161,0.46261 9.8113,3.12562 10.21554,2.87578 0.21333,-0.13185 0.38787,-0.0319 0.38787,0.22217 0,0.26846 0.32906,0.37584 0.78576,0.25641 0.43217,-0.11302 0.78576,-0.0246 0.78576,0.19644 0,0.22106 0.35359,0.30945 0.78576,0.19644 0.43217,-0.11302 0.78576,-0.0754 0.78576,0.0837 0,0.39834 6.20258,1.69962 6.68377,1.40223 0.21344,-0.13191 0.38807,-0.032 0.38807,0.22203 0,0.27906 0.38332,0.38859 0.96849,0.27673 0.53267,-0.10183 1.01886,-0.0354 1.08042,0.14755 0.0616,0.18298 1.03883,0.37828 2.17173,0.434 1.13289,0.0557 2.06106,0.20334 2.06262,0.32805 0.004,0.3409 7.39445,1.23987 7.85462,0.95547 0.21927,-0.13552 0.39867,-0.0414 0.39867,0.20924 0,0.29891 0.60809,0.40726 1.76796,0.31501 0.97237,-0.0773 1.76795,0.01 1.76795,0.19324 0,0.18362 0.97262,0.27329 2.16138,0.19927 1.18875,-0.074 2.16113,-0.009 2.16084,0.14356 -10e-4,0.5757 15.45751,0.68702 26.3224,0.18955 z"
     id="path841"
     inkscape:connector-curvature="0" />
  <path
     style="fill:#eeeeee;stroke:none;stroke-width:0.39287972;fill-opacity:0.93333334"
     d="M 41.722106,478.94781 C 32.54202,478.25685 21.862813,473.03387 14.427583,465.59866 8.7171418,459.88819 5.2814203,454.09294 2.3809755,445.27876 l -1.71647357,-5.21622 0.0104817,-184.1576 C 0.68074853,154.61826 0.7428192,71.482142 0.81291846,71.158016 0.88301771,70.833891 1.0528381,70.303503 1.1902972,69.979377 1.3277562,69.655251 1.8960893,67.975691 2.4532596,66.24702 7.7169273,49.916019 19.888231,38.348142 36.614669,33.779255 c 3.139062,-0.857446 3.218329,-0.858975 62.664317,-1.209017 76.226364,-0.448852 304.037324,-0.07424 308.302074,0.506966 3.57128,0.486698 9.99172,2.539304 13.5338,4.326735 4.40368,2.222214 8.28635,5.103961 12.34491,9.162522 5.86849,5.868471 9.37219,11.536695 12.11885,19.605634 0.85644,2.516001 1.12552,4.318835 1.49534,10.018432 0.64267,9.905806 0.64267,349.729003 0,359.634803 -0.50304,7.75305 -1.10926,10.14129 -4.21925,16.62247 -4.43487,9.24206 -12.76565,17.65695 -22.15634,22.38 -3.56664,1.79381 -10.10809,3.73687 -13.94,4.14067 -4.27233,0.4502 -359.047245,0.43013 -365.036264,-0.0208 z M 176.28341,385.68709 c 2.0528,-0.0841 4.57469,-0.1603 5.60421,-0.16939 1.02952,-0.009 2.08537,-0.1485 2.34633,-0.30978 0.26096,-0.16129 1.13792,-0.24534 1.94879,-0.1868 0.81088,0.0586 1.69724,-0.0313 1.9697,-0.19971 0.27245,-0.16838 1.05465,-0.25797 1.73821,-0.19908 0.68356,0.0589 1.36131,-0.0846 1.5061,-0.3189 0.1448,-0.23428 0.43374,-0.32061 0.64208,-0.19184 0.48746,0.30126 8.66213,-0.96881 9.2286,-1.43382 0.23596,-0.19371 0.52418,-0.25703 0.64048,-0.14073 0.26336,0.26336 5.41224,-0.6625 5.41504,-0.97373 0.001,-0.12471 0.75224,-0.27016 1.66915,-0.32323 0.91692,-0.0531 1.72007,-0.25529 1.78477,-0.44939 0.0647,-0.1941 0.46275,-0.26266 0.88456,-0.15236 0.43947,0.11493 0.76692,0.004 0.76692,-0.26133 0,-0.25404 0.17536,-0.35351 0.3897,-0.22104 0.38892,0.24036 5.13114,-0.91826 5.50349,-1.34462 0.10805,-0.12371 0.72683,-0.28149 1.37508,-0.35061 0.64826,-0.0691 1.23794,-0.29122 1.31042,-0.49355 0.0725,-0.20233 0.28159,-0.27528 0.4647,-0.16211 0.43361,0.26798 8.79206,-2.51935 8.96441,-2.98941 0.0725,-0.19766 0.27316,-0.27201 0.44597,-0.16521 0.45197,0.27934 2.76173,-0.58767 2.76173,-1.03666 0,-0.2077 0.15241,-0.28344 0.33868,-0.16832 0.42879,0.26501 3.59012,-0.95796 3.59012,-1.38885 0,-0.17652 0.2424,-0.22793 0.53866,-0.11424 0.29627,0.11368 0.78667,-0.0245 1.08978,-0.307 0.30311,-0.28253 0.81209,-0.56392 1.13107,-0.62531 1.20417,-0.23177 2.74081,-0.97985 2.74081,-1.33431 0,-0.20262 0.16885,-0.26404 0.37523,-0.13649 0.4889,0.30215 14.56721,-6.83412 14.82922,-7.51692 0.11011,-0.28693 0.33472,-0.43855 0.49915,-0.33693 1.04512,0.64592 24.37013,-15.72963 24.37013,-17.10929 0,-0.22719 0.15899,-0.31482 0.3533,-0.19472 0.19432,0.12009 0.9015,-0.40602 1.57152,-1.16913 0.67002,-0.76311 1.21975,-1.24872 1.22163,-1.07914 0.012,1.08515 17.42672,-16.8967 22.5307,-23.26445 4.79619,-5.98377 14.62525,-20.13561 14.24744,-20.51341 -0.098,-0.098 0.16705,-0.52357 0.58909,-0.94561 0.42205,-0.42204 0.66207,-0.9377 0.5334,-1.1459 -0.12868,-0.2082 -0.0622,-0.37855 0.1478,-0.37855 0.79915,0 9.67968,-17.04934 9.24601,-17.75103 -0.10926,-0.17679 -9.9e-4,-0.32144 0.2406,-0.32144 0.24158,0 0.32998,-0.17679 0.19644,-0.39288 -0.13355,-0.21608 -0.0845,-0.39287 0.10893,-0.39287 0.46371,0 2.49084,-4.71506 2.21737,-5.15756 -0.11651,-0.18852 -0.0462,-0.34276 0.15633,-0.34276 0.38356,0 2.16644,-4.4035 2.16644,-5.35088 0,-0.29828 0.13071,-0.54232 0.29047,-0.54232 0.38294,0 1.58426,-3.54414 1.33695,-3.94429 -0.10547,-0.17065 -0.0363,-0.36957 0.15366,-0.44205 0.47441,-0.18098 2.45924,-6.21619 2.18845,-6.65434 -0.11994,-0.19405 -0.0588,-0.35283 0.13582,-0.35283 0.46038,0 1.37257,-3.04242 1.06258,-3.544 -0.13081,-0.21164 -0.0716,-0.3848 0.1316,-0.3848 0.45463,0 1.3584,-3.43307 1.03957,-3.94895 -0.12669,-0.205 -0.0628,-0.37272 0.14199,-0.37272 0.34252,0 0.86381,-1.83398 1.06088,-3.73236 0.0449,-0.43217 0.25805,-1.22775 0.47376,-1.76796 0.55973,-1.4018 2.1374,-9.55641 2.20648,-11.4048 0.032,-0.85568 0.21008,-1.55679 0.39579,-1.55801 0.1857,-10e-4 0.2654,-0.62101 0.17711,-1.3773 -0.0883,-0.75629 10e-5,-1.37508 0.19644,-1.37508 0.19633,0 0.28473,-0.61878 0.19644,-1.37508 -0.0883,-0.75629 -7.9e-4,-1.37508 0.19472,-1.37508 0.19539,0 0.28781,-0.70718 0.20539,-1.57152 -0.0824,-0.86433 3.9e-4,-1.57151 0.1843,-1.57151 0.18379,0 0.2891,-0.84915 0.23402,-1.887 -0.0551,-1.03785 0.0326,-2.10176 0.19481,-2.36426 0.16224,-0.2625 0.25186,-1.53364 0.19917,-2.82475 -0.0527,-1.29111 0.0233,-2.4666 0.16893,-2.61221 0.14561,-0.1456 0.26474,-4.27671 0.26474,-9.18023 v -8.91549 l 4.81278,-3.9235 c 6.1576,-5.01983 13.12796,-11.69718 17.51497,-16.7787 3.94613,-4.57085 9.42028,-11.69718 9.58244,-12.47458 0.0602,-0.28873 0.28631,-0.65485 0.50239,-0.81361 0.22186,-0.163 0.0936,-0.29126 -0.29466,-0.29466 -0.37815,-0.003 -0.68754,0.13316 -0.68754,0.30326 0,0.1701 -0.39517,0.33904 -0.87816,0.37542 -0.48299,0.0364 -0.94008,0.25191 -1.01575,0.47894 -0.0757,0.22703 -0.27247,0.32943 -0.4373,0.22755 -0.16484,-0.10187 -2.84587,0.70697 -5.95786,1.79743 -8.12177,2.84591 -22.06198,6.2405 -25.62721,6.2405 -0.50185,0 0.46148,-0.92703 2.72065,-2.61813 1.92369,-1.43997 5.28409,-4.4013 7.46756,-6.58073 4.12113,-4.1135 8.96461,-10.25161 8.58019,-10.87362 -0.12144,-0.19649 -0.0372,-0.35726 0.18732,-0.35726 0.5148,0 2.80528,-3.96502 2.53919,-4.39556 -0.10844,-0.17545 5.1e-4,-0.319 0.2421,-0.319 0.24159,0 0.32999,-0.1768 0.19644,-0.39288 -0.13355,-0.21609 -0.0451,-0.39288 0.19644,-0.39288 0.24159,0 0.32999,-0.1768 0.19644,-0.39288 -0.13355,-0.21608 -0.0452,-0.39288 0.19644,-0.39288 0.24159,0 0.32999,-0.1768 0.19644,-0.39288 -0.13355,-0.21608 -0.0721,-0.39288 0.13659,-0.39288 0.50434,0 2.90856,-5.80877 2.60651,-6.2975 -0.12967,-0.2098 -0.0485,-0.38146 0.18031,-0.38146 0.22884,0 0.41607,-0.26519 0.41607,-0.58931 0,-0.32413 -0.1768,-0.58932 -0.39288,-0.58932 -0.21609,0 -0.39288,0.17679 -0.39288,0.39288 0,0.21608 -0.24394,0.39287 -0.54209,0.39287 -0.29814,0 -3.34787,1.39677 -6.77717,3.10393 -9.73407,4.84577 -18.69797,8.1315 -28.49335,10.44427 l -4.57867,1.08106 -3.5966,-3.09117 c -1.97813,-1.70014 -3.68707,-3.00277 -3.79766,-2.89473 -0.11058,0.10804 -0.37198,-0.10897 -0.58087,-0.48225 -0.37182,-0.66441 -3.8866,-3.28232 -3.8866,-2.89486 0,0.1081 -0.4355,-0.20706 -0.96779,-0.70037 -2.55548,-2.36833 -16.99672,-8.44742 -20.4866,-8.6239 -0.73101,-0.037 -1.3299,-0.22042 -1.33087,-0.40767 -7.9e-4,-0.18725 -0.44375,-0.25597 -0.98396,-0.1527 -0.54021,0.10326 -0.9822,0.0222 -0.9822,-0.18025 0,-0.20241 -0.48629,-0.317 -1.08065,-0.25466 -0.59436,0.0624 -1.31733,-0.0329 -1.6066,-0.21169 -0.71142,-0.43969 -13.5521,-0.82118 -14.46387,-0.42972 -0.3987,0.17118 -1.11063,0.27387 -1.58208,0.22821 -1.19168,-0.11542 -7.9439,1.15721 -8.18175,1.54206 -0.107,0.17312 -0.54795,0.22234 -0.9799,0.10938 -0.45635,-0.11933 -0.78537,-0.0119 -0.78537,0.25651 0,0.25404 -0.14327,0.37335 -0.31837,0.26513 -0.45998,-0.28428 -3.61043,0.5743 -3.61043,0.98394 0,0.1898 -0.13259,0.31141 -0.29466,0.27024 -0.59963,-0.15231 -2.84838,0.54204 -2.84838,0.87949 0,0.19214 -0.24239,0.25632 -0.53866,0.14263 -0.29626,-0.11369 -0.78666,0.0245 -1.08977,0.30699 -0.30311,0.28253 -0.81209,0.57071 -1.13108,0.6404 -1.21737,0.26597 -5.49096,2.55361 -5.49096,2.9393 0,0.22244 -0.10436,0.30007 -0.23192,0.17251 -0.30654,-0.30654 -5.67018,2.96294 -7.1903,4.38294 -0.65646,0.61323 -1.26616,1.04235 -1.3549,0.95361 -0.0887,-0.0887 -0.61392,0.37652 -1.16706,1.0339 -0.55315,0.65737 -1.15388,1.19523 -1.33496,1.19523 -0.18109,0 -1.73532,1.41436 -3.45385,3.14304 -1.71853,1.72867 -3.028,3.14303 -2.90992,3.14303 0.11807,0 -0.54621,0.81708 -1.47619,1.81572 -0.92998,0.99864 -1.59489,1.97102 -1.47757,2.16084 0.11731,0.18981 0.0346,0.34512 -0.18389,0.34512 -0.4386,0 -2.68886,3.11167 -2.8727,3.97238 -0.0638,0.29859 -0.32848,0.72033 -0.58822,0.93719 -0.71722,0.59883 -3.65419,6.55703 -3.41941,6.93691 0.11313,0.18303 0.0453,0.33279 -0.15079,0.33279 -0.45612,0 -1.70215,3.14064 -1.42436,3.59013 0.11512,0.18626 0.0544,0.33867 -0.135,0.33867 -0.34643,0 -1.6293,3.65161 -1.84016,5.2379 -0.0623,0.46845 -0.29149,1.29372 -0.50938,1.83393 -0.38536,0.95543 -1.24086,5.88867 -1.22636,7.07184 0.004,0.32413 -0.10741,3.98971 -0.24752,8.14574 -0.1401,4.15604 -0.13772,7.74577 0.005,7.9772 0.14303,0.23142 0.3422,1.82551 0.44262,3.54242 l 0.18256,3.12166 -2.47802,-3.9e-4 c -6.31329,-0.001 -20.77253,-2.25412 -31.74755,-4.94651 -27.07056,-6.64095 -51.72621,-19.0048 -73.86139,-37.03862 -4.83231,-3.93693 -17.857915,-16.65338 -22.690662,-22.15209 -1.851654,-2.10682 -3.511221,-3.83058 -3.687919,-3.83058 -0.448566,0 -1.92999,2.99085 -1.630011,3.29083 0.134797,0.1348 0.02841,0.24509 -0.236458,0.24509 -0.264852,0 -0.372281,0.17679 -0.238734,0.39288 0.133548,0.21608 0.04515,0.39288 -0.196439,0.39288 -0.24159,0 -0.329988,0.17679 -0.19644,0.39288 0.133547,0.21608 0.07738,0.39288 -0.124822,0.39288 -0.449231,0 -2.884578,5.86661 -2.615848,6.30143 0.105515,0.17073 0.01489,0.36971 -0.201414,0.44219 -0.436399,0.14623 -2.304754,7.14303 -2.507021,9.38853 -0.07085,0.78661 -0.249977,1.62623 -0.398054,1.86582 -0.148076,0.2396 -0.271982,1.01736 -0.275345,1.72836 -0.0035,0.711 -0.02082,4.38666 -0.03878,8.16813 -0.03481,7.32961 0.25516,12.17622 0.750444,12.54357 0.166864,0.12376 0.36044,0.92972 0.430176,1.79101 0.06973,0.86129 0.246528,1.65687 0.392879,1.76796 0.146348,0.11108 0.305193,0.73066 0.352987,1.37683 0.04779,0.64618 0.269889,1.23586 0.493547,1.31042 0.223659,0.0745 0.308112,0.29499 0.187671,0.48986 -0.51811,0.83835 4.866818,13.32937 5.746361,13.32937 0.22402,0 0.302027,0.17034 0.173351,0.37855 -0.128676,0.2082 0.126083,0.73858 0.566135,1.17864 0.440049,0.44005 0.709184,0.80008 0.598073,0.80008 -0.111106,0 0.26598,0.70719 0.83797,1.57152 0.571989,0.86434 1.193281,1.57152 1.380654,1.57152 0.187368,0 0.296471,0.16175 0.24245,0.35945 -0.131855,0.48254 4.311988,5.92663 4.837728,5.92663 0.227866,0 0.323411,0.14706 0.21232,0.32681 -0.111087,0.17974 0.67406,1.18967 1.744775,2.24429 1.070711,1.05461 1.946751,1.81479 1.946751,1.68928 0,-0.12551 0.751382,0.5058 1.669745,1.40291 0.91835,0.89711 2.37692,2.21107 3.24125,2.9199 l 1.57152,1.28879 -2.55372,-0.24316 c -6.607465,-0.62915 -14.593547,-2.82865 -20.756384,-5.71666 -1.814374,-0.85024 -3.455499,-1.44909 -3.64695,-1.33076 -0.191446,0.11832 -0.348087,0.0279 -0.348087,-0.20094 0,-0.22883 -0.132597,-0.41608 -0.29466,-0.4161 -0.416771,-5e-5 -0.311691,9.94454 0.112324,10.63061 0.192405,0.31132 0.298813,1.05232 0.236471,1.64668 -0.06235,0.59436 0.03257,1.08106 0.210913,1.08155 0.178352,4e-4 0.342116,0.5115 0.363925,1.13556 0.0218,0.62406 0.177652,1.46344 0.346319,1.86529 0.168664,0.40184 0.367422,1.19027 0.44168,1.75207 0.587736,4.44633 8.457644,20.78337 10.011801,20.78337 0.222193,0 0.303559,0.16251 0.180803,0.36113 -0.122755,0.19862 0.370895,0.99104 1.096995,1.76093 0.726105,0.7699 1.252159,1.46784 1.16901,1.55099 -0.08315,0.0832 0.473542,0.69969 1.237092,1.3701 0.763554,0.67041 1.388276,1.36356 1.388276,1.54035 0,0.17679 0.883979,1.19212 1.964398,2.25629 1.08042,1.06418 1.964399,1.84656 1.964399,1.73863 0,-0.10793 0.986603,0.73674 2.192455,1.87703 3.35109,3.16894 13.00826,9.24075 15.29069,9.61382 0.43217,0.0706 1.02955,0.3596 1.32752,0.64213 0.29797,0.28253 0.78416,0.42067 1.08042,0.30699 0.29626,-0.11369 0.53866,-0.0528 0.53866,0.13541 0,0.42679 2.33188,1.26681 2.76814,0.99719 0.17634,-0.10898 0.427,-0.026 0.55705,0.18442 0.13004,0.21041 1.29622,0.67993 2.59152,1.04337 1.2953,0.36345 2.43757,0.79427 2.53838,0.95738 0.10081,0.16312 -0.92056,0.52936 -2.26972,0.81387 -3.18407,0.67146 -24.31124,0.83574 -24.742921,0.1924 -0.177268,-0.26419 -0.290963,-0.16488 -0.29466,0.25737 -0.0031,0.37815 0.165233,0.68754 0.374541,0.68754 0.2093,0 0.27878,0.26519 0.1544,0.58932 -0.12438,0.32413 -0.0746,0.58945 0.11055,0.5896 0.18519,1.5e-4 0.35995,0.40614 0.38837,0.90219 0.0852,1.48724 3.85562,9.07029 6.54038,13.15401 2.96313,4.50715 11.67685,14.42618 11.67685,13.29202 0,-0.16505 0.45811,0.24434 1.01801,0.90975 0.55991,0.66541 1.17869,1.11053 1.37508,0.98916 0.19639,-0.12138 0.35707,-0.0444 0.35707,0.17097 0,0.4499 3.55441,3.09505 3.75947,2.79776 0.0745,-0.10804 0.40269,0.15715 0.72924,0.58932 0.32655,0.43216 0.60207,0.60896 0.61225,0.39288 0.0105,-0.22234 0.14381,-0.20103 0.30715,0.0491 0.47194,0.72263 4.10791,2.89018 4.47135,2.66555 0.18448,-0.11401 0.33541,-0.01 0.33541,0.23196 0,0.24159 0.1768,0.32999 0.39288,0.19644 0.21609,-0.13354 0.39288,-0.0452 0.39288,0.19644 0,0.24159 0.1768,0.32999 0.39288,0.19644 0.21609,-0.13354 0.39288,-0.0452 0.39288,0.19644 0,0.24159 0.1768,0.32999 0.39288,0.19644 0.21609,-0.13354 0.39288,-0.077 0.39288,0.12559 0,0.40335 2.11609,1.38045 2.98961,1.38045 0.30047,0 0.54631,0.13071 0.54631,0.29047 0,0.40205 3.55416,1.57807 3.97785,1.31621 0.18911,-0.11687 0.34383,-0.006 0.34383,0.24561 0,0.25195 0.25377,0.36072 0.56393,0.2417 0.31017,-0.11903 0.61956,-0.0619 0.68754,0.12695 0.068,0.18884 0.65399,0.39991 1.30225,0.46903 0.64825,0.0691 1.28749,0.27449 1.42053,0.45637 0.13305,0.18188 0.97183,0.35868 1.86396,0.39288 0.89213,0.0342 1.62306,0.20743 1.62428,0.38496 0.001,0.17753 0.40001,0.27138 0.8862,0.20856 0.48619,-0.0628 1.11611,0.0303 1.39983,0.2068 0.28372,0.17656 1.78825,0.38211 3.34341,0.45676 1.55516,0.0747 3.25617,0.29429 3.78002,0.48808 0.889,0.32886 0.67934,0.54201 -3.14697,3.19944 -18.54831,12.88203 -39.77078,20.93278 -61.36269,23.27796 -2.430373,0.26397 -4.507257,0.57733 -4.615299,0.69634 -0.302675,0.3334 -21.215801,0.25624 -21.215643,-0.0783 1.88e-4,-0.4052 -3.215045,-0.3614 -3.868455,0.0527 -0.382928,0.24268 0.14951,0.74757 1.927142,1.82742 1.350944,0.82065 2.694019,1.4921 2.984613,1.4921 0.290597,0 0.528356,0.14279 0.528356,0.31731 0,0.17452 0.530388,0.59158 1.178639,0.92681 0.648252,0.33522 1.178639,0.50967 1.178639,0.38766 0,-0.12201 0.386928,0.13865 0.859841,0.57923 0.472914,0.44059 1.180097,0.80107 1.571519,0.80107 0.391422,0 0.711678,0.18723 0.711678,0.41606 0,0.22884 0.176796,0.3068 0.39288,0.17326 0.216084,-0.13355 0.39288,-0.0451 0.39288,0.19644 0,0.24159 0.176796,0.32998 0.392879,0.19644 0.216084,-0.13355 0.39288,-0.0641 0.39288,0.15424 0,0.424 10.687307,5.76762 11.991908,5.99592 0.427178,0.0747 0.865081,0.2434 0.973123,0.37478 0.40825,0.49643 4.029355,1.9062 4.364376,1.69914 0.192601,-0.11903 0.350181,-0.0458 0.350181,0.16271 0,0.42641 3.532539,1.73605 3.541933,1.31313 0.0031,-0.14894 0.135905,-0.0761 0.294659,0.16189 0.376391,0.56424 4.765721,2.19276 5.195011,1.92744 0.18172,-0.11231 0.3897,-0.0315 0.46218,0.17955 0.0725,0.21106 0.57376,0.43316 1.11397,0.49355 0.54021,0.0604 1.0718,0.22746 1.18132,0.37127 0.33165,0.43552 9.86676,3.09505 10.24918,2.8587 0.19574,-0.12097 0.35589,-0.0121 0.35589,0.24194 0,0.26846 0.32906,0.37584 0.78576,0.25641 0.43217,-0.11302 0.78576,-0.0341 0.78576,0.17531 0,0.20944 0.3094,0.3299 0.68754,0.26769 0.37815,-0.0622 0.88891,0.0134 1.13502,0.16796 0.72757,0.45703 6.07255,1.49046 6.46243,1.2495 0.1971,-0.12181 0.35837,-0.0216 0.35837,0.2227 0,0.2443 0.39779,0.39279 0.88398,0.32997 0.48618,-0.0628 1.09571,0.0176 1.35448,0.17879 0.25878,0.16114 1.23116,0.35869 2.16084,0.439 0.92969,0.0803 1.95553,0.24564 2.27965,0.36742 1.04407,0.39226 7.07159,1.0837 7.44347,0.85386 0.19791,-0.12231 0.47843,-0.0305 0.62339,0.20406 0.14496,0.23454 0.91348,0.37952 1.70784,0.32216 0.79435,-0.0574 1.66464,0.0319 1.93397,0.19837 0.26933,0.16646 1.23678,0.26672 2.14989,0.22279 0.9131,-0.0439 1.97194,0.0512 2.35296,0.2114 0.38102,0.16019 1.92798,0.22146 3.4377,0.13615 1.53613,-0.0868 2.74493,0.005 2.74493,0.20922 0,0.32649 6.68125,0.22112 19.64398,-0.30979 z"
     id="path843"
     inkscape:connector-curvature="0" />
  <path
     style="fill:#a0a0a0;stroke:none;stroke-width:0.39287972"
     d="M 39.443403,478.53143 C 31.541513,477.39189 21.955415,472.49712 15.364659,466.23654 9.5411595,460.70479 5.4379306,453.977 2.5157164,445.16899 1.6932091,442.6898 0.91406236,440.6172 0.78427917,440.56318 0.65449603,440.5092 0.63670773,357.23833 0.74474966,255.51685 L 0.94118952,70.568697 2.5761189,66.180385 C 8.6557127,49.862155 18.547221,39.985031 34.072153,34.730152 l 4.192611,-1.419115 23.769224,-0.296755 c 29.632144,-0.369952 293.815452,-0.364448 324.518662,0.0068 l 22.59058,0.273126 3.51396,1.076278 c 5.44641,1.668154 9.10396,3.326465 12.8219,5.813338 6.98607,4.6729 13.07433,11.40829 16.6341,18.402079 2.97154,5.838206 4.04937,9.278566 4.62568,14.765159 0.71599,6.81629 0.72636,358.600438 0.0106,364.985518 -0.64743,5.77686 -1.32577,8.2293 -3.58746,12.96919 -5.76339,12.0787 -15.96883,21.49335 -27.41201,25.28782 -7.75077,2.57011 8.06814,2.37826 -191.78603,2.32573 -100.18976,-0.0264 -183.224074,-0.20091 -184.520577,-0.38785 z M 169.93767,385.90611 c -0.40015,-0.15742 1.5446,-0.21051 4.32168,-0.11797 2.77708,0.0925 6.8172,-0.0455 8.97803,-0.30676 9.26449,-1.12013 16.0543,-2.02578 16.29282,-2.17319 0.14106,-0.0872 1.83676,-0.42555 3.76822,-0.75193 6.7322,-1.1376 19.50316,-4.61719 26.88809,-7.32594 13.63311,-5.00055 27.13466,-11.73364 37.52002,-18.71089 10.93839,-7.34879 17.17531,-12.44262 26.13648,-21.34623 11.38044,-11.30736 18.01029,-19.3014 25.74094,-31.0375 11.48175,-17.43076 21.20333,-39.28578 25.93544,-58.30533 0.54274,-2.18136 1.24205,-4.93849 1.55404,-6.12695 0.71244,-2.71395 1.9303,-9.60677 2.91546,-16.50095 1.09216,-7.64301 1.59627,-15.23524 1.6058,-24.18432 l 0.008,-7.83538 4.7793,-3.92879 c 7.07382,-5.81498 15.0372,-13.70087 20.17684,-19.98052 4.50459,-5.50372 7.79665,-10.04529 7.49803,-10.34391 -0.0851,-0.0851 -3.66896,1.0032 -7.96411,2.41848 -8.92811,2.94187 -20.39124,5.92848 -24.12545,6.28566 l -2.54213,0.24315 1.73115,-1.4907 c 11.55944,-9.95393 15.62096,-14.80104 20.39073,-24.33479 2.11662,-4.23068 3.84774,-8.6777 3.50964,-9.0158 -0.11784,-0.11784 -0.54087,-0.0323 -0.94006,0.18998 -1.66218,0.92576 -15.0812,7.09737 -17.61962,8.10354 -4.93582,1.95643 -10.49943,3.75093 -16.46584,5.31091 -5.60624,1.46581 -5.89531,1.50266 -6.72396,0.85732 -0.47624,-0.37088 -2.96718,-2.36122 -5.53543,-4.42297 -5.76084,-4.6247 -8.65726,-6.49344 -13.70578,-8.84283 -18.5379,-8.62682 -38.43069,-8.69304 -56.57468,-0.18834 -3.52609,1.6528 -8.56105,4.55839 -11.14241,6.43009 -3.45574,2.5057 -9.34496,8.08822 -11.44818,10.85196 -1.18846,1.56171 -2.63536,3.40758 -3.21532,4.10194 -0.93674,1.1215 -5.03515,7.89573 -5.03515,8.32256 0,0.0921 -0.45697,1.09469 -1.01549,2.22807 -2.35676,4.78249 -5.39929,15.48578 -5.19258,18.26698 0.0683,0.91836 0.009,1.66974 -0.13102,1.66974 -0.34345,0 -0.34228,14.24521 0.002,18.59854 l 0.27426,3.47268 -3.54908,-0.2536 c -22.71466,-1.6231 -47.13603,-8.31175 -68.0294,-18.63223 -22.25175,-10.99147 -39.14423,-23.96412 -58.57194,-44.9806 -2.332256,-2.52298 -4.132522,-4.16362 -4.392451,-4.00297 -0.677882,0.41895 -4.248802,8.06878 -5.56144,11.91402 -0.645113,1.88979 -1.611436,5.55753 -2.147391,8.15054 -0.916309,4.4332 -0.964621,5.27725 -0.809599,14.14367 0.151459,8.66248 0.249793,9.74854 1.209465,13.35791 0.574531,2.16084 1.213295,4.61837 1.419478,5.46119 0.747124,3.05404 3.834518,9.91791 5.849319,13.00416 0.423198,0.64825 0.936519,1.53223 1.140715,1.96439 0.444641,0.94107 3.996518,5.69682 6.37817,8.54 2.206774,2.6344 3.831132,4.23211 7.494594,7.37163 2.88088,2.46887 2.94251,2.55777 1.8546,2.67563 -3.149717,0.34123 -12.380901,-2.00898 -20.015757,-5.09591 -5.777111,-2.33581 -6.311628,-2.527 -5.556592,-1.98756 0.372686,0.26626 0.402234,0.46167 0.09822,0.64956 -1.358523,0.83961 0.211841,13.57788 2.54379,20.63436 1.25995,3.8126 6.890698,15.21489 8.197408,16.59977 0.551788,0.5848 1.00325,1.15786 1.00325,1.27346 0,0.11561 0.609019,1.00804 1.353373,1.9832 6.393406,8.37582 17.239048,16.6951 26.442868,20.2833 0.48619,0.18955 1.28177,0.52051 1.76796,0.73547 0.48619,0.21496 2.28381,0.84165 3.99472,1.39264 1.71091,0.55099 3.29499,1.11567 3.52018,1.25484 1.11149,0.68694 -3.01856,1.01966 -14.29208,1.15137 -6.80664,0.0795 -12.326673,0.2283 -12.266739,0.33061 0.135398,0.23113 0.24588,0.55501 1.272479,3.73018 1.07881,3.33667 5.31698,11.09046 8.01319,14.66025 2.74231,3.63082 8.45998,10.09272 9.41972,10.64582 0.40804,0.23515 1.11522,0.75094 1.57152,1.1462 1.87279,1.62227 4.76371,3.79947 5.04497,3.79947 0.16553,0 1.14114,0.59582 2.16805,1.32403 1.02689,0.72823 3.72344,2.24835 5.99232,3.37805 2.26888,1.12971 4.40617,2.19718 4.74954,2.37216 2.38216,1.21396 14.98992,4.31927 17.53648,4.31927 1.71596,0 3.64404,0.43678 3.64404,0.82551 0,0.43059 -10.11558,7.08276 -14.79373,9.72861 -11.33505,6.41083 -26.10895,11.86493 -38.83788,14.33783 -11.38569,2.21195 -13.670891,2.41264 -27.571836,2.42149 -7.171348,0.005 -13.157519,0.12701 -13.302601,0.2721 -0.245326,0.24532 2.684319,2.26036 4.92947,3.39054 0.540209,0.27193 2.573362,1.37028 4.518116,2.44078 3.800185,2.09184 14.203326,7.33141 16.119455,8.11861 14.321836,5.88383 25.254106,9.296 37.449416,11.68869 2.73362,0.53632 5.85419,1.1521 6.93461,1.36839 2.32397,0.46523 15.79005,1.91789 19.44754,2.09792 5.23512,0.25767 16.67126,0.21158 15.96983,-0.0644 z"
     id="path845"
     inkscape:connector-curvature="0" />
  <path
     style="fill:#a0a0a0;stroke:none;stroke-width:0.39287972"
     d="M 156.32512,478.57685 C 43.701874,478.38764 37.769939,478.34313 35.800559,477.67252 c -1.139228,-0.38793 -2.229102,-0.60782 -2.421942,-0.48866 -0.19284,0.1192 -0.409917,0.0668 -0.482393,-0.11649 -0.07248,-0.18324 -1.597855,-0.9637 -3.389729,-1.73433 -4.989982,-2.14611 -9.599234,-5.2275 -13.890854,-9.28646 C 9.6381611,460.3932 5.8944573,454.35236 2.6836066,445.17952 1.965048,443.12672 1.2790484,441.35876 1.159163,441.25072 1.0392776,441.14268 0.89358181,440.82307 0.83539459,440.54047 0.60194947,439.40666 0.97862735,74.023194 1.2171064,70.274037 c 0.023266,-0.365766 0.18276,-1.015574 0.3134027,-1.276859 0.054021,-0.108042 0.1230267,-0.329037 0.153346,-0.4911 0.030319,-0.162063 0.1861173,-0.500554 0.3462176,-0.752203 C 2.1901731,67.502226 2.0990679,67.20679 1.8276168,67.097352 1.5449478,66.983391 1.6457947,66.88512 2.0636425,66.867356 2.5300012,66.84753 2.7151422,66.632883 2.576813,66.272403 2.4577915,65.962238 2.5008725,65.652845 2.6725485,65.584863 2.8442245,65.516881 3.7248096,63.766484 4.6294042,61.695092 10.061907,49.255435 19.440026,40.370282 32.175128,35.597323 c 1.620629,-0.607391 3.034996,-1.208319 3.143038,-1.335395 0.366594,-0.431177 1.755369,-0.519933 13.161471,-0.841142 14.352187,-0.404174 360.523613,-0.407815 361.056473,-0.0038 0.21608,0.163832 1.94853,0.775186 3.84983,1.358564 8.01494,2.459191 13.35272,5.75276 19.73698,12.178302 4.71998,4.750511 7.26097,8.306408 9.85,13.784143 3.32102,7.026441 3.36368,7.325263 3.70596,25.93877 0.39539,21.503665 0.39689,319.936285 0,339.644525 -0.34774,17.3401 -0.50571,18.36265 -3.91516,25.34075 -5.33944,10.92818 -14.96471,20.07289 -25.4403,24.17015 -2.1986,0.8599 -4.18755,1.56347 -4.4199,1.56347 -0.23239,0 -0.4225,0.13259 -0.4225,0.29466 0,0.16206 -0.66299,0.32947 -1.4733,0.37198 -4.99464,0.26209 -83.66557,0.83086 -107.55083,0.77754 -15.77412,-0.0353 -81.98418,-0.15357 -147.13346,-0.26299 z m 21.48857,-92.71806 c 2.63515,0.0379 5.00129,-0.0609 5.25808,-0.2196 0.2568,-0.15871 1.1063,-0.32581 1.88778,-0.37134 3.40739,-0.19849 7.32394,-0.67797 7.50748,-0.91909 0.19031,-0.25001 1.84851,-0.40217 4.61937,-0.42387 0.70227,-0.005 1.27685,-0.16781 1.27685,-0.3607 0,-0.19289 0.44199,-0.26621 0.9822,-0.16295 0.54021,0.10327 0.9822,0.0149 0.9822,-0.19643 0,-0.21132 0.44199,-0.29971 0.9822,-0.19644 0.54021,0.10326 0.9832,0.0345 0.98443,-0.15271 0.001,-0.18725 0.71228,-0.36723 1.58013,-0.39995 0.86786,-0.0327 1.88343,-0.18577 2.25684,-0.3401 0.3734,-0.15433 1.28307,-0.34275 2.02146,-0.41872 0.7384,-0.076 1.51133,-0.30689 1.71762,-0.51318 0.20628,-0.20628 0.61872,-0.28157 0.91651,-0.16729 0.29779,0.11427 0.54224,0.0563 0.54321,-0.12892 7.8e-4,-0.18519 0.63169,-0.36916 1.40162,-0.40884 0.76992,-0.0397 1.62517,-0.25913 1.90056,-0.48769 0.27539,-0.22855 0.60528,-0.31098 0.73308,-0.18318 0.12781,0.12781 0.46513,0.0872 0.74961,-0.0903 0.28448,-0.17745 0.87083,-0.37428 1.303,-0.43741 1.20342,-0.17579 6.65318,-1.79728 6.8754,-2.04566 0.10804,-0.12077 0.63843,-0.26898 1.17864,-0.32937 0.54021,-0.0604 1.03781,-0.27145 1.1058,-0.46903 0.068,-0.19758 0.37737,-0.26185 0.68754,-0.14283 0.31016,0.11902 0.56393,0.0103 0.56393,-0.2417 0,-0.25195 0.16208,-0.35793 0.36017,-0.2355 0.3306,0.20432 6.65378,-2.03863 7.10455,-2.52012 0.10804,-0.1154 0.46163,-0.26716 0.78576,-0.33725 1.45841,-0.31535 8.1953,-3.37636 8.02771,-3.64752 -0.1029,-0.1665 0.14406,-0.27779 0.54883,-0.2473 0.79389,0.0598 11.46032,-5.14759 11.46032,-5.59497 0,-0.14864 0.221,-0.27366 0.4911,-0.27782 0.59506,-0.009 4.71566,-2.41644 5.05314,-2.95206 0.13221,-0.20981 0.35505,-0.3628 0.49522,-0.33997 0.49601,0.0808 2.6039,-1.17881 2.6039,-1.55601 0,-0.21054 0.13561,-0.33859 0.30135,-0.28457 0.56441,0.18396 4.41123,-2.53372 4.16056,-2.93933 -0.13998,-0.22648 -0.01,-0.32079 0.29618,-0.21472 0.75049,0.26008 3.97094,-1.988 3.63246,-2.53569 -0.16735,-0.27077 -0.0487,-0.35069 0.31397,-0.21151 0.76691,0.29429 6.34201,-3.90453 5.97431,-4.49948 -0.17273,-0.27948 -0.0488,-0.35345 0.34124,-0.20377 0.3977,0.15261 1.38457,-0.48359 2.81461,-1.81446 1.2112,-1.12722 2.20218,-1.96769 2.20218,-1.86772 0,0.1 0.43655,-0.22835 0.9701,-0.7296 0.53355,-0.50124 0.88457,-1.04972 0.78005,-1.21883 -0.10452,-0.16912 0.19028,-0.4282 0.65512,-0.57573 0.98975,-0.31413 13.76896,-12.72135 13.51913,-13.12559 -0.0931,-0.15063 0.88252,-1.19971 2.16804,-2.33127 1.28552,-1.13156 2.33731,-2.21016 2.33731,-2.39688 0,-0.18672 0.53039,-0.86988 1.17864,-1.51813 0.64825,-0.64825 1.17864,-1.46787 1.17864,-1.82137 0,-0.3535 0.15142,-0.54914 0.3365,-0.43476 0.33971,0.20996 2.80654,-2.59135 2.80654,-3.18709 0,-0.17678 0.34865,-0.53914 0.77478,-0.80527 0.49825,-0.31116 0.68476,-0.71846 0.52255,-1.14115 -0.16334,-0.42568 -0.0989,-0.56252 0.18298,-0.38833 0.43212,0.26707 3.11947,-3.18924 2.93452,-3.77421 -0.0512,-0.16206 0.0537,-0.29466 0.23312,-0.29466 0.54359,0 2.71492,-3.30303 2.5262,-3.84285 -0.0968,-0.27686 0.0616,-0.45366 0.35195,-0.39288 0.32279,0.0676 0.47955,-0.17199 0.40344,-0.61647 -0.0712,-0.4156 0.0466,-0.62123 0.27494,-0.48009 0.39446,0.24379 1.46979,-1.26695 1.3081,-1.83776 -0.0459,-0.16207 0.0933,-0.29466 0.30941,-0.29466 0.21608,0 0.39288,-0.25046 0.39288,-0.55658 0,-0.30612 0.15654,-0.61551 0.34786,-0.68754 0.67357,-0.25359 6.57727,-10.41466 6.41051,-11.03337 -0.0437,-0.16207 0.10782,-0.29466 0.33665,-0.29466 0.22884,0 0.31613,-0.1617 0.194,-0.35933 -0.12215,-0.19762 -0.0652,-0.41862 0.12655,-0.4911 0.58825,-0.22234 4.6636,-8.7394 4.45999,-9.32092 -0.10511,-0.30018 -0.0159,-0.43749 0.19826,-0.30514 0.29926,0.18495 2.55858,-4.24795 2.67001,-5.2387 0.0121,-0.10804 0.30651,-0.72828 0.65413,-1.3783 0.34761,-0.65002 0.6938,-1.534 0.76929,-1.9644 0.0755,-0.43039 0.27871,-0.88685 0.4516,-1.01433 0.17289,-0.12748 0.34311,-0.61367 0.37827,-1.08042 0.0352,-0.46675 0.22201,-0.84863 0.41523,-0.84863 0.19322,0 0.24954,-0.26519 0.12516,-0.58932 -0.12438,-0.32412 -0.0722,-0.58932 0.11598,-0.58932 0.42675,0 1.22421,-2.20684 0.91074,-2.52032 -0.12642,-0.12641 -0.005,-0.22984 0.27055,-0.22984 0.27522,0 0.40301,-0.25377 0.28399,-0.56393 -0.11902,-0.31017 -0.0763,-0.61956 0.095,-0.68754 0.45607,-0.18104 3.21967,-8.58201 2.96089,-9.00071 -0.12086,-0.19556 -0.054,-0.35557 0.14853,-0.35557 0.42613,0 1.30074,-3.13535 1.00712,-3.61043 -0.10821,-0.1751 0.009,-0.31837 0.26134,-0.31837 0.25195,0 0.3646,-0.24365 0.25033,-0.54144 -0.11428,-0.29779 -0.0475,-0.70175 0.14846,-0.89768 0.19593,-0.19593 0.42406,-0.88045 0.50696,-1.52117 0.0829,-0.64072 0.25364,-1.43014 0.37943,-1.75426 0.55139,-1.42084 1.07001,-3.97672 0.87195,-4.29719 -0.11906,-0.19264 -0.0289,-0.4128 0.20044,-0.48923 0.2293,-0.0764 0.4514,-0.79792 0.49355,-1.60331 0.0421,-0.80539 0.22188,-1.46514 0.39941,-1.46611 0.17753,-7.8e-4 0.27138,-0.39955 0.20856,-0.88574 -0.0628,-0.48619 0.0286,-1.11344 0.20314,-1.39389 0.17454,-0.28045 0.22101,-0.76098 0.10326,-1.06784 -0.11776,-0.30685 -0.0346,-0.66887 0.18482,-0.80447 0.21941,-0.1356 0.36219,-0.62745 0.3173,-1.093 -0.0449,-0.46555 0.0342,-1.11165 0.17571,-1.43577 0.14152,-0.32413 0.34605,-1.5617 0.4545,-2.75016 0.10845,-1.18846 0.29241,-2.77962 0.4088,-3.53592 0.11639,-0.75629 0.20168,-2.12646 0.18953,-3.04482 -0.0121,-0.91835 0.16246,-1.66974 0.38802,-1.66974 0.26657,0 0.31616,-0.70833 0.14167,-2.02373 -0.19813,-1.49353 -0.14873,-1.94973 0.18856,-1.74127 0.32181,0.19889 0.44907,-0.2194 0.43015,-1.41397 -0.0148,-0.93303 0.0737,-6.38151 0.19664,-12.10773 l 0.2235,-10.41132 1.31704,-1.17864 c 4.24119,-3.79552 5.55672,-4.91099 5.79178,-4.91099 0.14454,0 0.78163,-0.57459 1.41575,-1.27686 0.63412,-0.70227 1.49222,-1.47193 1.90688,-1.71036 0.41465,-0.23842 2.37878,-2.20842 4.36471,-4.37776 1.98593,-2.16935 3.68384,-3.87122 3.77313,-3.78193 0.2934,0.29341 3.42027,-3.35741 3.42027,-3.99337 0,-0.34171 0.16019,-0.52228 0.35598,-0.40128 0.48338,0.29875 3.801,-3.71844 3.64477,-4.41332 -0.0685,-0.30455 0.0486,-0.44674 0.26016,-0.31599 0.21157,0.13076 0.94543,-0.47029 1.63081,-1.33565 0.68538,-0.86536 1.09869,-1.57876 0.91847,-1.58533 -0.18022,-0.007 -0.0563,-0.17091 0.27549,-0.36518 0.84654,-0.49577 3.68592,-4.69744 3.38067,-5.00268 -0.13831,-0.13831 -0.25147,-0.0508 -0.25147,0.19456 0,0.24531 -0.2652,0.34426 -0.58932,0.21988 -0.32413,-0.12438 -0.89871,-0.0923 -1.27686,0.0714 -0.37815,0.16362 -0.97373,0.35468 -1.32352,0.42458 -0.3498,0.0699 -2.82494,0.81913 -5.50032,1.66497 -10.3388,3.26868 -20.88855,5.93704 -23.50017,5.94393 l -1.34912,0.004 2.46963,-2.35728 c 1.3583,-1.2965 2.57655,-2.35728 2.70724,-2.35728 0.46671,0 7.53758,-7.27787 7.53869,-7.75937 7.8e-4,-0.27011 0.17533,-0.4911 0.38826,-0.4911 0.54355,0 3.93537,-4.39538 3.69364,-4.7865 -0.10909,-0.17649 -0.0157,-0.32092 0.20762,-0.32092 0.3942,0 1.66267,-2.09153 1.5792,-2.60389 -0.0228,-0.14017 0.14959,-0.37296 0.38317,-0.51732 0.61297,-0.37884 4.35369,-7.95979 4.11679,-8.3431 -0.10948,-0.17714 -0.0473,-0.32208 0.13808,-0.32208 0.3795,0 1.35466,-2.48106 1.50558,-3.83058 0.0544,-0.48618 -0.0576,-0.88397 -0.24891,-0.88397 -0.89894,0 -3.90539,1.79687 -3.91073,2.33734 -0.005,0.48003 -0.076,0.49893 -0.33579,0.0891 -0.2687,-0.4238 -0.44081,-0.40908 -0.92941,0.0795 -0.3298,0.32981 -0.70909,0.4902 -0.84285,0.35643 -0.13377,-0.13376 -0.24321,-0.0664 -0.24321,0.14967 0,0.21609 -0.24229,0.39288 -0.53841,0.39288 -0.29613,0 -3.12194,1.17542 -6.27958,2.61204 -3.15765,1.43661 -8.08664,3.40317 -10.95333,4.37012 -4.88479,1.64768 -15.2512,4.5383 -16.28526,4.54107 -0.25595,7.9e-4 -1.80024,-1.05953 -3.43175,-2.35603 -1.63151,-1.29651 -3.05746,-2.35728 -3.16878,-2.35728 -0.11131,0 -0.53742,-0.30939 -0.9469,-0.68754 -2.69149,-2.48553 -7.29162,-5.68192 -7.65468,-5.31885 -0.13429,0.13428 -0.24416,0.0434 -0.24416,-0.20188 0,-0.25685 -0.29161,-0.34139 -0.68754,-0.19932 -0.37814,0.13569 -0.55558,0.10131 -0.39429,-0.0764 0.3452,-0.38035 -1.84768,-1.79924 -2.90363,-1.87878 -0.401,-0.0302 -0.7291,-0.20452 -0.7291,-0.38738 0,-0.18285 -0.17679,-0.22319 -0.39287,-0.0897 -0.21609,0.13355 -0.39288,0.084 -0.39288,-0.11019 0,-0.41668 -1.97834,-1.38191 -2.25838,-1.10186 -0.10585,0.10584 -0.45939,-0.0745 -0.78565,-0.40077 -0.32627,-0.32626 -0.83561,-0.50018 -1.13187,-0.3865 -0.29626,0.11369 -0.53866,0.041 -0.53866,-0.16151 0,-0.20253 -0.2652,-0.26646 -0.58932,-0.14208 -0.32413,0.12438 -0.58932,0.036 -0.58932,-0.19644 0,-0.23273 -0.29371,-0.30987 -0.65377,-0.17171 -0.4753,0.18239 -0.56578,0.10851 -0.33144,-0.27065 0.24074,-0.38954 0.11266,-0.46671 -0.50604,-0.30492 -0.45559,0.11914 -0.88103,0.0637 -0.94541,-0.12319 -0.0644,-0.1869 -0.55905,-0.42018 -1.09926,-0.51842 -0.54021,-0.0982 -0.9822,-0.20527 -0.9822,-0.23786 0,-0.0326 -0.26519,-0.12258 -0.58932,-0.19997 -0.32412,-0.0774 -1.1197,-0.29421 -1.76796,-0.4818 -0.64825,-0.18759 -1.53223,-0.33173 -1.96439,-0.32031 -0.43217,0.0114 -0.87777,-0.1008 -0.99022,-0.24936 -0.60306,-0.79673 -12.95223,-1.40287 -18.26089,-0.89631 -1.08042,0.1031 -2.22959,0.2016 -2.55372,0.2189 -1.4066,0.0751 -7.07183,1.27395 -7.07183,1.49654 0,0.13479 -0.52533,0.26653 -1.1674,0.29277 -0.64207,0.0262 -1.48185,0.18353 -1.86618,0.34952 -0.38433,0.166 -1.01294,0.36327 -1.39691,0.43838 -0.38397,0.0751 -1.31535,0.39446 -2.06975,0.70967 -0.75439,0.3152 -1.43825,0.53658 -1.51968,0.49195 -0.0814,-0.0446 -0.5213,0.25662 -0.97748,0.66946 -0.45618,0.41283 -0.938,0.64202 -1.07072,0.5093 -0.2879,-0.28789 -4.93207,1.98914 -5.3464,2.62134 -0.15875,0.24223 -0.29135,0.30423 -0.29466,0.13778 -0.008,-0.4046 -3.14905,1.2115 -3.14905,1.62023 0,0.17567 -0.23151,0.31941 -0.51445,0.31941 -0.72009,0 -5.38129,3.21636 -5.64063,3.89218 -0.11733,0.30577 -0.35379,0.46914 -0.52546,0.36304 -0.17168,-0.1061 -0.85493,0.4253 -1.51836,1.1809 -0.66341,0.75559 -1.34895,1.3738 -1.52341,1.3738 -0.17446,0 -1.54529,1.23757 -3.04628,2.75016 -1.501,1.51258 -2.57739,2.75015 -2.39198,2.75015 0.18541,0 -0.12873,0.36643 -0.69808,0.81428 -0.56935,0.44785 -1.03518,1.02411 -1.03518,1.28057 0,0.25646 -0.37081,0.69787 -0.82402,0.98091 -0.45321,0.28303 -0.71953,0.61909 -0.59182,0.7468 0.12771,0.12771 -0.11286,0.47389 -0.5346,0.76929 -0.47659,0.33382 -0.67342,0.78046 -0.52006,1.18011 0.16,0.41694 0.0921,0.54742 -0.19318,0.37113 -0.49714,-0.30725 -1.48891,1.23046 -1.32127,2.04859 0.0598,0.2918 -0.071,0.41944 -0.29074,0.28366 -0.45101,-0.27874 -1.33291,1.10741 -0.94888,1.49144 0.13645,0.13645 0.0464,0.2481 -0.20018,0.2481 -0.54009,0 -1.71863,2.15477 -1.3695,2.50391 0.13544,0.13543 0.0296,0.24624 -0.23529,0.24624 -0.26485,0 -0.37228,0.1768 -0.23874,0.39288 0.13355,0.21609 0.0824,0.39288 -0.11358,0.39288 -0.41025,0 -1.78533,2.88465 -1.78533,3.74525 0,0.31704 -0.15777,0.57643 -0.35059,0.57643 -0.19282,0 -0.24887,0.16458 -0.12455,0.36573 0.12432,0.20116 0.0518,0.47341 -0.16112,0.60501 -0.6103,0.37718 -2.3859,6.40346 -2.10354,7.13928 0.17153,0.44698 0.10472,0.5699 -0.20552,0.37816 -0.29589,-0.18287 -0.48096,0.0391 -0.51948,0.62309 -0.0965,1.46202 -0.14059,1.66611 -0.47646,2.20284 -0.1755,0.28045 -0.22275,0.76098 -0.105,1.06783 0.11776,0.30686 0.0573,0.65484 -0.13436,0.77329 -0.47728,0.29498 -0.54509,2.19121 -0.54477,15.23448 l 2.8e-4,11.29944 -1.79542,-0.19811 c -0.98749,-0.10896 -3.82858,-0.39045 -6.31355,-0.62553 -6.96129,-0.65856 -17.92529,-2.60085 -25.73362,-4.55876 -28.24261,-7.08172 -53.55327,-20.05222 -75.58581,-38.73409 -2.29283,-1.94414 -8.63194,-8.01957 -14.08692,-13.50096 -5.454981,-5.48139 -10.179729,-9.96616 -10.499443,-9.96616 -0.635821,0 -1.899896,2.10654 -1.502526,2.50391 0.135438,0.13544 0.02954,0.24625 -0.235295,0.24625 -0.264852,0 -0.372281,0.17679 -0.238734,0.39288 0.133548,0.21608 0.0675,0.39288 -0.146779,0.39288 -0.410249,0 -1.057774,1.52467 -0.89687,2.11179 0.05183,0.18911 -0.178489,0.64518 -0.511812,1.0135 -0.800776,0.88485 -2.650116,5.46311 -2.381999,5.89692 0.115499,0.18688 0.02837,0.40034 -0.193658,0.47434 -0.222009,0.074 -0.444104,0.70754 -0.493547,1.40786 -0.04944,0.70031 -0.243107,1.27365 -0.430373,1.27408 -0.187266,3.9e-4 -0.248017,0.35437 -0.135001,0.78654 0.113016,0.43217 0.02463,0.78576 -0.19644,0.78576 -0.221058,0 -0.309499,0.35341 -0.196542,0.78537 0.112957,0.43195 0.02931,0.89419 -0.185903,1.02719 -0.220912,0.13653 -0.284036,0.86372 -0.14498,1.67013 0.163893,0.95042 0.122598,1.2438 -0.123423,0.87686 -0.651568,-0.97184 -0.934135,4.14991 -0.694816,12.5941 0.12461,4.39682 0.232267,8.40972 0.239236,8.91756 0.007,0.50784 0.127356,1.1089 0.267524,1.33569 0.140164,0.22679 0.310646,1.03422 0.378846,1.79428 0.0682,0.76006 0.292786,1.55071 0.499071,1.757 0.206285,0.20628 0.270439,0.64772 0.142564,0.98096 -0.156193,0.40703 -0.07647,0.50946 0.242886,0.31209 0.346206,-0.21397 0.406156,-0.018 0.220614,0.72131 -0.140128,0.55831 -0.103013,1.01546 0.08247,1.0159 0.18549,3.9e-4 0.373447,0.5195 0.417682,1.1535 0.102828,1.47367 2.46822,7.48907 2.944873,7.48907 0.198302,0 0.251282,0.1768 0.117734,0.39288 -0.133547,0.21608 -0.05558,0.39288 0.173252,0.39288 0.228837,0 0.37403,0.1326 0.322653,0.29466 -0.157533,0.49691 0.951103,2.84838 1.342906,2.84838 0.20262,0 0.259619,0.17601 0.12666,0.39114 -0.132958,0.21513 0.226236,0.82485 0.79821,1.35494 0.57197,0.53009 0.924309,1.1509 0.78297,1.37959 -0.141338,0.22869 -0.01006,0.51055 0.291765,0.62637 0.301806,0.11581 0.548743,0.42673 0.548743,0.69093 0,0.63444 2.853536,4.59326 3.310852,4.59326 0.195811,0 0.356024,0.26112 0.356024,0.58026 0,0.31915 0.440473,0.86887 0.978824,1.22162 0.538355,0.35274 0.896116,0.77518 0.795024,0.93875 -0.224397,0.36308 5.010222,5.81457 8.244588,8.58617 l 2.35728,2.02 -2.22632,0.006 c -1.408918,0.004 -2.299078,0.18586 -2.424485,0.49665 -0.134785,0.33403 -0.208081,0.30148 -0.229179,-0.10179 -0.02173,-0.41494 -1.003819,-0.81138 -3.272275,-1.32086 -1.782692,-0.40038 -5.451206,-1.51509 -8.152255,-2.47713 -2.701048,-0.96204 -5.17619,-1.78203 -5.500316,-1.82218 -0.324126,-0.0402 -0.693574,-0.21439 -0.820993,-0.38717 -0.127422,-0.17278 -1.017715,-0.55072 -1.978432,-0.83985 -1.680653,-0.5058 -1.749435,-0.49391 -1.817532,0.31415 -0.378147,4.48708 0.450448,13.40885 1.202176,12.94426 0.253541,-0.1567 0.303771,0.014 0.134161,0.45604 -0.364962,0.95107 0.122421,3.40693 0.615631,3.10211 0.237185,-0.14659 0.294765,0.0638 0.145864,0.53296 -0.277703,0.87497 1.503032,6.51473 2.122163,6.72111 0.221023,0.0737 0.301925,0.29565 0.179782,0.49327 -0.122138,0.19763 -0.04039,0.35933 0.181664,0.35933 0.222055,0 0.301971,0.26519 0.177593,0.58932 -0.124382,0.32412 -0.02,0.58932 0.231956,0.58932 0.251954,0 0.348834,0.17679 0.215287,0.39288 -0.133548,0.21608 -0.04515,0.39288 0.19644,0.39288 0.241589,0 0.329987,0.17679 0.19644,0.39288 -0.133548,0.21608 -0.04515,0.39288 0.196439,0.39288 0.24159,0 0.338796,0.16254 0.216017,0.3612 -0.122782,0.19867 -7.85e-4,0.60066 0.271472,0.89334 0.272089,0.29267 0.552169,0.79311 0.622397,1.11209 0.07023,0.31898 0.292322,0.63926 0.493547,0.71174 0.201225,0.0725 0.265928,0.29347 0.143786,0.4911 -0.122138,0.19763 -0.03485,0.35932 0.193992,0.35932 0.228837,0 0.381039,0.1326 0.338227,0.29466 -0.153644,0.58163 0.532454,2.06262 0.955554,2.06262 0.237539,0 0.320244,0.11165 0.183789,0.2481 -0.384024,0.38403 0.497873,1.77018 0.948883,1.49144 0.228357,-0.14113 0.346123,0.0645 0.274949,0.4801 -0.07732,0.45148 0.07987,0.68365 0.414802,0.61268 0.33959,-0.072 0.454798,0.10591 0.311118,0.48034 -0.131685,0.34317 0.09609,0.82177 0.538618,1.13173 0.421745,0.2954 0.654228,0.64966 0.516633,0.78726 -0.137594,0.1376 0.03931,0.36126 0.393124,0.49703 0.353811,0.13577 0.561539,0.37914 0.461618,0.54081 -0.220901,0.35743 5.970888,7.43547 7.02975,8.03595 0.414657,0.23515 1.277967,1.00808 1.918463,1.71761 0.640496,0.70953 1.257752,1.19684 1.371682,1.08292 0.11392,-0.11393 0.45088,0.14086 0.7488,0.56619 0.75203,1.07368 9.91103,7.14362 10.3602,6.86601 0.20113,-0.1243 0.36568,-0.009 0.36568,0.25555 0,0.26485 0.10945,0.3721 0.24322,0.23834 0.13376,-0.13377 0.5016,0.0152 0.81743,0.331 0.31582,0.31582 0.73676,0.47377 0.93543,0.35099 0.19866,-0.12278 0.3612,-0.007 0.3612,0.25831 0,0.26485 0.10945,0.3721 0.24321,0.23833 0.13377,-0.13376 0.51016,0.0237 0.83642,0.35 0.32626,0.32626 0.83561,0.50018 1.13187,0.3865 0.29626,-0.11369 0.53866,-0.025 0.53866,0.19703 0,0.22206 0.1768,0.29447 0.39288,0.16092 0.21608,-0.13354 0.39288,-0.0367 0.39288,0.21529 0,0.25195 0.26519,0.35634 0.58932,0.23196 0.32412,-0.12438 0.58932,-0.0445 0.58932,0.17759 0,0.22205 0.1617,0.3038 0.35932,0.18166 0.19763,-0.12214 0.41862,-0.0707 0.4911,0.11432 0.0725,0.18502 1.4467,0.77176 3.05382,1.30386 1.60712,0.53211 3.00023,1.20202 3.09579,1.4887 0.0956,0.28668 0.0182,0.42955 -0.17189,0.31749 -0.19009,-0.11206 -5.38431,-0.0448 -11.5427,0.14941 -6.15839,0.19423 -11.96128,0.37496 -12.89531,0.40162 -1.625236,0.0464 -1.687331,0.0925 -1.444256,1.07277 0.139696,0.56336 0.398946,1.07697 0.576116,1.14135 0.17717,0.0644 0.23188,0.46217 0.12157,0.88398 -0.1103,0.4218 -0.0408,0.76692 0.15454,0.76692 0.19531,0 0.38487,0.39517 0.42125,0.87816 0.0364,0.48299 0.2519,0.94008 0.47893,1.01575 0.22703,0.0757 0.31285,0.2993 0.19071,0.49692 -0.12214,0.19763 -0.0349,0.35933 0.19399,0.35933 0.22884,0 0.37187,0.13619 0.31785,0.30265 -0.17733,0.54643 1.3784,3.60976 1.72458,3.39581 0.18592,-0.11491 0.36497,0.0225 0.39788,0.30537 0.11858,1.01911 0.20892,1.31656 0.72293,2.38046 0.2871,0.59423 0.65124,1.08042 0.80922,1.08042 0.15797,0 0.39052,0.41157 0.51677,0.9146 0.12626,0.50303 0.65726,1.3761 1.18,1.94015 0.52275,0.56405 0.86339,1.11261 0.75698,1.21902 -0.1064,0.1064 0.17735,0.42504 0.63056,0.70807 0.45321,0.28304 0.82401,0.72444 0.82401,0.98091 0,0.25646 0.436,0.80925 0.96888,1.22841 0.53288,0.41917 0.88054,0.85046 0.77256,0.95843 -0.10797,0.10797 0.43457,0.75023 1.20564,1.42724 0.77107,0.67701 1.27058,1.23092 1.11003,1.23092 -0.49187,0 3.0534,3.47848 5.9811,5.86842 3.26093,2.66196 4.89122,3.77333 4.89122,3.33435 0,-0.17419 0.25958,0.0265 0.57683,0.44592 0.31725,0.41944 0.58244,0.63847 0.58932,0.48673 0.007,-0.15175 0.48219,0.1594 1.05627,0.69144 0.57408,0.53203 1.12551,0.8856 1.22541,0.78571 0.0999,-0.0999 0.43841,0.0751 0.75225,0.38897 0.31383,0.31384 0.91157,0.57061 1.3283,0.57061 0.41674,0 0.7577,0.1768 0.7577,0.39288 0,0.21609 0.26519,0.39288 0.58932,0.39288 0.32413,0 0.58932,0.20627 0.58932,0.45837 0,0.25209 0.10944,0.34891 0.24321,0.21514 0.13377,-0.13376 0.49248,0.006 0.79713,0.31071 0.30466,0.30465 0.843,0.44299 1.19632,0.3074 0.42966,-0.16487 0.54832,-0.0943 0.35832,0.21314 -0.25439,0.41161 0.20887,0.63727 1.03916,0.50617 0.16206,-0.0256 0.29466,0.11107 0.29466,0.30369 0,0.44998 3.08762,1.6948 3.52826,1.42248 0.18338,-0.11334 0.39526,-0.0205 0.47084,0.20619 0.0756,0.22674 0.57687,0.46919 1.11398,0.53878 0.5371,0.0696 1.43471,0.31214 1.99468,0.53898 1.3743,0.55675 3.45974,0.96082 4.79095,0.9283 0.60198,-0.0147 0.99595,0.13275 0.87548,0.32766 -0.12046,0.19492 0.0942,0.36623 0.47701,0.38069 1.44856,0.0547 2.71691,0.28127 3.18118,0.56821 0.2646,0.16353 1.08597,0.24521 1.82527,0.18151 0.7393,-0.0637 1.47153,0.0115 1.62718,0.16719 0.15565,0.15564 0.68508,0.28299 1.17653,0.28299 1.87651,0 1.22402,0.84099 -2.68168,3.45635 -9.78012,6.54905 -16.31508,10.02215 -26.23803,13.9446 -9.93909,3.92884 -18.41569,6.27419 -29.485842,8.15834 -4.021792,0.68451 -7.507146,0.89076 -19.623376,1.16123 -8.103145,0.18089 -14.798837,0.34223 -14.879314,0.35854 -0.384402,0.0779 0.90017,1.20828 1.373067,1.20828 0.29767,0 0.541216,0.13868 0.541216,0.30817 0,0.50617 2.11748,1.56759 2.706627,1.35674 0.306568,-0.10972 0.436705,-0.0188 0.296915,0.20735 -0.200133,0.32382 0.79716,1.0425 1.233945,0.88922 0.06174,-0.0216 0.385387,0.23375 0.719213,0.56758 0.33383,0.33382 0.769506,0.5065 0.96817,0.38372 0.198663,-0.12278 0.361205,-0.007 0.361205,0.25831 0,0.26485 0.109445,0.3721 0.243213,0.23834 0.133763,-0.13377 0.501609,0.0152 0.817433,0.33101 0.31582,0.31582 0.718239,0.48521 0.894261,0.37642 0.176018,-0.10878 0.425713,0.0776 0.554868,0.41418 0.129159,0.33658 0.412877,0.50192 0.630489,0.36743 0.217609,-0.13451 0.395654,-0.0469 0.395654,0.19471 0,0.24159 0.176796,0.32998 0.39288,0.19644 0.216084,-0.13355 0.392879,-0.0452 0.392879,0.19644 0,0.24159 0.176796,0.32998 0.39288,0.19644 0.216084,-0.13355 0.39288,-0.0452 0.39288,0.19644 0,0.24158 0.161697,0.33931 0.359324,0.21718 0.197626,-0.12215 0.418621,-0.0701 0.491099,0.11562 0.198385,0.50839 8.850394,4.76485 9.125732,4.48951 0.131297,-0.1313 0.238718,-0.0608 0.238718,0.15658 0,0.54531 1.926769,1.37681 2.446321,1.05571 0.232671,-0.1438 0.643768,0.0404 0.913543,0.40935 0.269779,0.36895 0.861743,0.69877 1.315479,0.73295 0.453737,0.0342 0.824973,0.17302 0.824973,0.30853 0,0.28183 2.767681,1.25168 3.295554,1.15483 0.191922,-0.0352 0.457115,0.0927 0.589319,0.28436 0.235202,0.34091 3.520915,1.68397 4.473475,1.82858 0.2648,0.0402 0.65825,0.17717 0.87433,0.30438 0.41167,0.24237 4.20891,1.51752 5.02642,1.68792 0.26064,0.0543 0.97492,0.30402 1.58729,0.55485 0.61236,0.25083 1.27534,0.35596 1.47329,0.23362 0.19795,-0.12234 0.35991,-0.0163 0.35991,0.23566 0,0.25196 0.25954,0.35851 0.57674,0.23679 0.31721,-0.12173 0.68868,-0.0402 0.8255,0.18119 0.13682,0.22138 0.49607,0.3076 0.79834,0.19161 0.30227,-0.11599 0.54958,-0.0593 0.54958,0.12593 0,0.2865 2.06411,0.90734 3.33948,1.00445 0.21608,0.0165 0.62564,0.17554 0.91012,0.35353 0.28448,0.17799 0.6218,0.21905 0.74961,0.0912 0.1278,-0.1278 0.46738,-0.0373 0.75462,0.20106 0.28723,0.23838 0.77827,0.33518 1.09118,0.2151 0.31292,-0.12008 0.62456,-0.0601 0.69254,0.13334 0.068,0.19341 0.74888,0.41493 1.5131,0.49226 0.76423,0.0773 1.56733,0.25052 1.78467,0.38484 0.3521,0.21761 2.43484,0.59409 4.70327,0.85017 0.44308,0.05 0.97347,0.19094 1.17864,0.31316 0.46765,0.27857 5.79907,1.17724 6.29375,1.06088 0.20095,-0.0473 0.68248,0.0524 1.07007,0.22149 0.38758,0.16909 1.31973,0.20763 2.07142,0.0856 0.82935,-0.13458 1.27486,-0.0732 1.1331,0.15623 -0.13018,0.21063 0.25734,0.3619 0.87517,0.34164 0.60984,-0.02 1.99278,0.0697 3.0732,0.19928 1.08042,0.1296 3.2852,0.32855 4.89952,0.4421 1.61432,0.11355 2.9803,0.25164 3.03552,0.30687 0.0552,0.0552 4.56868,0.0311 10.02991,-0.0537 5.46123,-0.0847 12.08554,-0.12305 14.72069,-0.0851 z"
     id="path847"
     inkscape:connector-curvature="0" />
</svg>
