<?xml version="1.0" encoding="UTF-8" standalone="no"?>
<svg
   xmlns:dc="http://purl.org/dc/elements/1.1/"
   xmlns:cc="http://creativecommons.org/ns#"
   xmlns:rdf="http://www.w3.org/1999/02/22-rdf-syntax-ns#"
   xmlns:svg="http://www.w3.org/2000/svg"
   xmlns="http://www.w3.org/2000/svg"
   xmlns:sodipodi="http://sodipodi.sourceforge.net/DTD/sodipodi-0.dtd"
   xmlns:inkscape="http://www.inkscape.org/namespaces/inkscape"
   aria-hidden="true"
   focusable="false"
   data-prefix="fab"
   data-icon="twitter"
   class="svg-inline--fa fa-twitter fa-w-16"
   role="img"
   viewBox="0 0 512 512"
   version="1.1"
   id="svg2544"
   sodipodi:docname="twitter.svg"
   inkscape:version="0.92.3 (2405546, 2018-03-11)">
  <metadata
     id="metadata2550">
    <rdf:RDF>
      <cc:Work
         rdf:about="">
        <dc:format>image/svg+xml</dc:format>
        <dc:type
           rdf:resource="http://purl.org/dc/dcmitype/StillImage" />
      </cc:Work>
    </rdf:RDF>
  </metadata>
  <defs
     id="defs2548" />
  <sodipodi:namedview
     pagecolor="#ffffff"
     bordercolor="#666666"
     borderopacity="1"
     objecttolerance="10"
     gridtolerance="10"
     guidetolerance="10"
     inkscape:pageopacity="0"
     inkscape:pageshadow="2"
     inkscape:window-width="3840"
     inkscape:window-height="2066"
     id="namedview2546"
     showgrid="false"
     inkscape:zoom="0.4609375"
     inkscape:cx="256"
     inkscape:cy="256"
     inkscape:window-x="-11"
     inkscape:window-y="-11"
     inkscape:window-maximized="1"
     inkscape:current-layer="svg2544" />
  <path
     fill="currentColor"
     d="M459.37 151.716c.325 4.548.325 9.097.325 13.645 0 138.72-105.583 298.558-298.558 298.558-59.452 0-114.68-17.219-161.137-47.106 8.447.974 16.568 1.299 25.34 1.299 49.055 0 94.213-16.568 130.274-44.832-46.132-.975-84.792-31.188-98.112-72.772 6.498.974 12.995 1.624 19.818 1.624 9.421 0 18.843-1.3 27.614-3.573-48.081-9.747-84.143-51.98-84.143-102.985v-1.299c13.969 7.797 30.214 12.67 47.431 13.319-28.264-18.843-46.781-51.005-46.781-87.391 0-19.492 5.197-37.36 14.294-52.954 51.655 63.675 129.3 105.258 216.365 109.807-1.624-7.797-2.599-15.918-2.599-24.04 0-57.828 46.782-104.934 104.934-104.934 30.213 0 57.502 12.67 76.67 33.137 23.715-4.548 46.456-13.32 66.599-25.34-7.798 24.366-24.366 44.833-46.132 57.827 21.117-2.273 41.584-8.122 60.426-16.243-14.292 20.791-32.161 39.308-52.628 54.253z"
     id="path2542" />
  <path
     style="fill:#ffffff;fill-opacity:1;stroke-width:0.21694915;stroke-miterlimit:4;stroke-dasharray:none"
     d="M 128.01905,461.09839 C 94.086025,457.16103 56.494295,445.86114 26.901695,430.70301 3.7755869,418.8572 2.0248015,417.2588 13.884746,418.8191 c 22.62108,2.97605 66.485758,-4.92205 95.712654,-17.23361 15.89476,-6.69553 45.30429,-24.39843 45.30429,-27.27066 0,-0.76377 -6.54465,-2.47314 -14.54367,-3.79863 -30.28536,-5.01845 -61.978747,-28.06342 -75.143087,-54.63823 l -5.910845,-11.93221 11.45982,-0.51848 C 101.17556,302.05134 113.42978,298.5802 98.451298,295.5845 78.488294,291.5919 51.447708,271.74287 38.590635,251.64403 29.882759,238.03142 22.562712,216.96209 22.562712,205.51077 v -8.53797 l 10.752219,4.08552 c 9.308531,3.53696 34.807103,8.88637 34.807103,7.30226 0,-0.30549 -6.219557,-6.77499 -13.821236,-14.37667 C 31.519447,171.20256 21.056704,144.3752 23.151811,114.11525 24.111486,100.25453 30.78188,74.800041 34.403482,71.17844 35.012756,70.569164 44.306172,78.865586 55.055516,89.614928 99.612488,134.1719 155.20113,163.1306 216.47401,173.7053 c 10.59697,1.82886 23.032,3.32521 27.63336,3.32521 h 8.3661 l -1.28102,-15.72882 c -2.5014,-30.71258 8.05769,-58.6485 30.74163,-81.332449 31.26912,-31.269109 76.73849,-39.26695 116.76173,-20.537815 7.60428,3.558471 17.72893,9.996037 22.49921,14.305701 4.77028,4.309665 10.21299,7.835754 12.09492,7.835754 5.67708,0 38.73829,-10.997573 49.67523,-16.524108 5.62812,-2.843944 10.8108,-5.170807 11.51705,-5.170807 0.70624,0 -1.87433,5.925779 -5.73459,13.168399 -4.38832,8.233312 -12.66551,18.396494 -22.08625,27.118645 -12.70218,11.76027 -14.25979,13.9326 -9.92208,13.83782 5.33363,-0.11655 39.14869,-8.74472 45.82341,-11.6922 9.08859,-4.013434 2.35045,5.18925 -19.72731,26.94273 l -23.52393,23.1784 -1.29274,24.77395 c -5.7536,110.26103 -68.06536,207.71016 -163.20206,255.23103 -49.13727,24.54411 -110.86714,35.15145 -166.79762,28.66165 z"
     id="path6799"
     inkscape:connector-curvature="0" />
</svg>
