<?xml version="1.0" encoding="UTF-8" standalone="no"?>
<!-- Generator: Adobe Illustrator 19.0.0, SVG Export Plug-In . SVG Version: 6.00 Build 0)  -->

<svg
   xmlns:dc="http://purl.org/dc/elements/1.1/"
   xmlns:cc="http://creativecommons.org/ns#"
   xmlns:rdf="http://www.w3.org/1999/02/22-rdf-syntax-ns#"
   xmlns:svg="http://www.w3.org/2000/svg"
   xmlns="http://www.w3.org/2000/svg"
   xmlns:sodipodi="http://sodipodi.sourceforge.net/DTD/sodipodi-0.dtd"
   xmlns:inkscape="http://www.inkscape.org/namespaces/inkscape"
   version="1.1"
   id="Capa_1"
   x="0px"
   y="0px"
   viewBox="0 0 512 512"
   style="enable-background:new 0 0 512 512;"
   xml:space="preserve"
   sodipodi:docname="data.svg"
   inkscape:version="0.92.3 (2405546, 2018-03-11)"><metadata
   id="metadata4758"><rdf:RDF><cc:Work
       rdf:about=""><dc:format>image/svg+xml</dc:format><dc:type
         rdf:resource="http://purl.org/dc/dcmitype/StillImage" /></cc:Work></rdf:RDF></metadata><defs
   id="defs4756" /><sodipodi:namedview
   pagecolor="#ffffff"
   bordercolor="#666666"
   borderopacity="1"
   objecttolerance="10"
   gridtolerance="10"
   guidetolerance="10"
   inkscape:pageopacity="0"
   inkscape:pageshadow="2"
   inkscape:window-width="3840"
   inkscape:window-height="2066"
   id="namedview4754"
   showgrid="false"
   inkscape:zoom="2.6074563"
   inkscape:cx="510.81788"
   inkscape:cy="236.84947"
   inkscape:window-x="2869"
   inkscape:window-y="-11"
   inkscape:window-maximized="1"
   inkscape:current-layer="Capa_1" />
<g
   id="g4685">
	<g
   id="g4683">
		<path
   d="M395.5,173V99c0-12.39-14.556-21.721-44.5-28.527c-23.674-5.38-54.5-8.509-87.5-8.922v-7.599    c12-3.274,20.25-13.889,20.25-26.452c0-15.164-12.211-27.5-27.375-27.5s-27.688,12.336-27.688,27.5    c0,12.563,8.813,23.178,19.813,26.452v7.599c-32,0.413-63.826,3.542-87.5,8.922C131.056,77.279,116.5,86.61,116.5,99v17.75    c0,4.142,3.608,7.5,7.75,7.5c3.848,0,7.14-2.9,7.571-6.633c7.202,3.771,17.088,7.062,29.617,9.909    c25.46,5.786,59.23,8.973,95.031,8.973c35.801,0,69.555-3.187,95.016-8.973c12.498-2.841,22.313-6.123,29.51-9.882l0.01,55.266    c-0.021,0.083-3.727,8.593-41.17,15.722c-23.236,4.428-52.832,6.867-83.335,6.867s-60.349-2.439-83.587-6.868    C135.484,181.507,132.5,173,131.5,173v-26.25c0-4.142-3.358-7.5-7.5-7.5c-4.142,0-7.5,3.358-7.5,7.5V173    c0,9.332,8.221,16.937,24.979,23c-16.759,6.063-24.979,13.668-24.979,23v74c0,9.332,8.221,16.937,24.979,23    c-16.759,6.063-24.979,13.668-24.979,23v74c0,12.391,14.556,21.722,44.5,28.527c23.674,5.38,55.5,8.509,87.5,8.922v7.599    c-11,3.274-19.75,13.889-19.75,26.452c0,15.164,12.461,27.5,27.625,27.5s27.312-12.336,27.312-27.5    c0-12.563-8.187-23.178-20.187-26.452v-7.599c33-0.413,63.826-3.542,87.5-8.922c29.944-6.805,44.5-16.137,44.5-28.527v-9    c0-4.142-3.108-7.5-7.25-7.5c-4.142,0-7.375,3.358-7.375,7.5l0.071,8.91c-0.018,0.073-3.222,7.629-35.242,14.53    c-24.115,5.197-55.791,8.06-89.219,8.06c-33.428,0-65.362-2.862-89.477-8.06C135.022,420.547,132.5,413,131.5,413v-55.353    c8,3.759,17.254,7.041,29.75,9.881c25.46,5.786,59.323,8.973,95.125,8.973s69.352-3.187,94.812-8.973    c12.497-2.84,22.313-6.122,29.313-9.881V371.5c0,4.142,3.358,7.5,7.5,7.5c4.142,0,7.5-3.358,7.5-7.5V339    c0-9.332-8.22-16.937-24.979-23c16.759-6.063,24.979-13.668,24.979-23v-74c0-9.332-8.22-16.937-24.979-23    C387.28,189.937,395.5,182.332,395.5,173z M244,27.5c0-6.893,5.607-12.5,12.5-12.5S269,20.607,269,27.5S263.393,40,256.5,40    S244,34.393,244,27.5z M345.734,113.44c-24.116,5.198-55.806,8.06-89.234,8.06c-33.428,0-65.118-2.862-89.234-8.06    c-30.123-6.492-34.771-13.563-35.232-14.44c0.46-0.876,4.859-7.948,34.982-14.44c22.303-4.807,51.484-7.611,81.484-8.006V99    c0,4.142,3.358,7.5,7.5,7.5c4.142,0,7.5-3.358,7.5-7.5V76.554c31,0.395,59.68,3.199,81.984,8.006    c30.123,6.492,34.896,13.563,35.357,14.44C380.38,99.876,375.856,106.948,345.734,113.44z M256.5,472    c6.893,0,12.5,5.607,12.5,12.5s-5.607,12.5-12.5,12.5s-12.5-5.607-12.5-12.5S249.607,472,256.5,472z M380.966,339    c-0.459,0.875-5.106,7.948-35.231,14.44c-24.115,5.197-55.806,8.06-89.235,8.06s-65.12-2.862-89.235-8.06    c-30.125-6.493-34.771-13.565-35.231-14.44c0.485-0.918,5.641-8.691,39.779-15.367c23.905,4.428,53.892,6.867,84.686,6.867    c30.795,0,60.783-2.439,84.687-6.867C375.325,330.309,380.481,338.082,380.966,339z M380.982,218.999    c-0.844,2.496-12.808,12.336-58.806,18.465c-4.105,0.547-6.991,4.319-6.443,8.425c0.502,3.77,3.723,6.51,7.425,6.51    c0.33,0,0.664-0.022,1-0.067c25.958-3.458,44.931-8.362,56.845-14.654l0.006,55.232c-0.021,0.083-3.729,8.593-41.172,15.722    c-23.236,4.428-52.833,6.867-83.336,6.867s-60.35-2.439-83.587-6.868C135.484,301.507,132.5,293,131.5,293v-55.353    c8,3.759,17.254,7.041,29.75,9.881c25.46,5.786,59.323,8.973,95.125,8.973c12.653,0,25.236-0.401,37.275-1.192    c4.133-0.271,7.295-3.842,7.023-7.976c-0.272-4.134-3.828-7.261-7.96-6.992c-11.713,0.77-23.895,1.16-36.221,1.16    c-33.429,0-65.116-2.862-89.231-8.06c-30.125-6.493-34.769-13.565-35.229-14.44c0.485-0.918,5.642-8.691,39.78-15.367    c23.905,4.428,53.892,6.867,84.687,6.867c30.796,0,60.785-2.439,84.689-6.867C371.583,209.581,380.248,216.773,380.982,218.999z"
   id="path4681"
   style="fill:#e31b6d;fill-opacity:1" />
	</g>
</g>
<g
   id="g4691">
	<g
   id="g4689">
		<circle
   cx="166.97"
   cy="169.75"
   r="7.5"
   id="circle4687"
   style="fill:#e31b6d;fill-opacity:1" />
	</g>
</g>
<g
   id="g4697">
	<g
   id="g4695">
		<circle
   cx="167.03"
   cy="148.25"
   r="7.5"
   id="circle4693"
   style="fill:#e31b6d;fill-opacity:1" />
	</g>
</g>
<g
   id="g4703">
	<g
   id="g4701">
		<circle
   cx="166.97"
   cy="289.06"
   r="7.5"
   id="circle4699"
   style="fill:#e31b6d;fill-opacity:1" />
	</g>
</g>
<g
   id="g4709">
	<g
   id="g4707">
		<circle
   cx="167.03"
   cy="267.56"
   r="7.5"
   id="circle4705"
   style="fill:#e31b6d;fill-opacity:1" />
	</g>
</g>
<g
   id="g4715">
	<g
   id="g4713">
		<circle
   cx="166.97"
   cy="408.37"
   r="7.5"
   id="circle4711"
   style="fill:#e31b6d;fill-opacity:1" />
	</g>
</g>
<g
   id="g4721">
	<g
   id="g4719">
		<circle
   cx="167.03"
   cy="386.87"
   r="7.5"
   id="circle4717"
   style="fill:#e31b6d;fill-opacity:1" />
	</g>
</g>
<g
   id="g4723">
</g>
<g
   id="g4725">
</g>
<g
   id="g4727">
</g>
<g
   id="g4729">
</g>
<g
   id="g4731">
</g>
<g
   id="g4733">
</g>
<g
   id="g4735">
</g>
<g
   id="g4737">
</g>
<g
   id="g4739">
</g>
<g
   id="g4741">
</g>
<g
   id="g4743">
</g>
<g
   id="g4745">
</g>
<g
   id="g4747">
</g>
<g
   id="g4749">
</g>
<g
   id="g4751">
</g>
</svg>