<?xml version="1.0" encoding="UTF-8" standalone="no"?>
<!-- Generator: Adobe Illustrator 19.0.0, SVG Export Plug-In . SVG Version: 6.00 Build 0)  -->

<svg
   xmlns:dc="http://purl.org/dc/elements/1.1/"
   xmlns:cc="http://creativecommons.org/ns#"
   xmlns:rdf="http://www.w3.org/1999/02/22-rdf-syntax-ns#"
   xmlns:svg="http://www.w3.org/2000/svg"
   xmlns="http://www.w3.org/2000/svg"
   xmlns:sodipodi="http://sodipodi.sourceforge.net/DTD/sodipodi-0.dtd"
   xmlns:inkscape="http://www.inkscape.org/namespaces/inkscape"
   version="1.1"
   id="Capa_1"
   x="0px"
   y="0px"
   viewBox="0 0 512 512"
   style="enable-background:new 0 0 512 512;"
   xml:space="preserve"
   sodipodi:docname="thinking.svg"
   inkscape:version="0.92.3 (2405546, 2018-03-11)"><metadata
   id="metadata911"><rdf:RDF><cc:Work
       rdf:about=""><dc:format>image/svg+xml</dc:format><dc:type
         rdf:resource="http://purl.org/dc/dcmitype/StillImage" /></cc:Work></rdf:RDF></metadata><defs
   id="defs909" /><sodipodi:namedview
   pagecolor="#ffffff"
   bordercolor="#666666"
   borderopacity="1"
   objecttolerance="10"
   gridtolerance="10"
   guidetolerance="10"
   inkscape:pageopacity="0"
   inkscape:pageshadow="2"
   inkscape:window-width="3840"
   inkscape:window-height="2066"
   id="namedview907"
   showgrid="false"
   inkscape:zoom="3.5996094"
   inkscape:cx="475.57763"
   inkscape:cy="140.55063"
   inkscape:window-x="2869"
   inkscape:window-y="-11"
   inkscape:window-maximized="1"
   inkscape:current-layer="Capa_1" />
<g
   id="g874">
	<g
   id="g872">
		<g
   id="g870">
			<path
   d="M401.052,327.37C462.229,327.37,512,277.599,512,216.422c0-26.864-9.762-52.803-27.488-73.037     c-15.228-17.383-35.387-29.527-57.572-34.857c-15.48-56.165-66.927-95.935-126.029-95.935c-34.072,0-66.456,13.212-90.709,36.641     c-14.924-8.453-31.718-12.868-49.262-12.868c-51.057,0-93.635,38.803-99.477,88.463c-16.17,6.825-30.547,17.946-41.2,32.021     C7.007,174.363,0,195.232,0,217.2c0,55.228,44.932,100.159,100.159,100.159c14.055,0,27.91-2.984,40.71-8.71     c27.378,31.294,67.337,49.64,109.289,49.64c38.442,0,75.062-15.257,102.246-42.235     C367.553,323.486,384.148,327.37,401.052,327.37z M338.012,287.48c-22.055,25.935-54.076,40.809-87.854,40.809     c-36.761,0-71.591-17.755-93.171-47.494c-2.921-4.024-7.494-6.191-12.151-6.191c-2.698,0-5.426,0.727-7.876,2.242     c-11.128,6.878-23.854,10.514-36.801,10.514C61.474,287.359,30,255.886,30,217.2c0-30.765,20.595-58.413,50.084-67.235     c6.293-1.883,10.629-7.642,10.699-14.21c0.411-38.262,31.883-69.39,70.156-69.39c15.549,0,30.24,4.932,42.484,14.261     c6.358,4.846,15.399,3.854,20.555-2.257c19.186-22.736,47.227-35.776,76.932-35.776c48.217,0,89.818,34.344,98.92,81.662     c1.21,6.293,6.284,11.122,12.629,12.02C452.104,141.882,482,176.338,482,216.422c0,44.635-36.313,80.948-80.948,80.948     c-15.379,0-30.432-4.429-43.53-12.808C351.203,280.52,342.87,281.766,338.012,287.48z"
   id="path864"
   style="fill:#e31b6d;fill-opacity:1;stroke-width:0.1;stroke-miterlimit:4;stroke-dasharray:none" />
			<path
   d="M354,349.407c-30.327,0-55,24.673-55,55c0,30.327,24.673,55,55,55c30.327,0,55-24.673,55-55     C409,374.08,384.327,349.407,354,349.407z M354,429.407c-13.785,0-25-11.215-25-25c0-13.785,11.215-25,25-25     c13.785,0,25,11.215,25,25C379,418.192,367.785,429.407,354,429.407z"
   id="path866" />
			<path
   d="M467,409.407c-24.813,0-45,20.187-45,45s20.187,45,45,45s45-20.187,45-45S491.813,409.407,467,409.407z M467,469.407     c-8.271,0-15-6.729-15-15s6.729-15,15-15s15,6.729,15,15S475.271,469.407,467,469.407z"
   id="path868"
   style="fill:#e31b6d;fill-opacity:1;stroke-width:0.1;stroke-miterlimit:4;stroke-dasharray:none" />
		</g>
	</g>
</g>
<g
   id="g876">
</g>
<g
   id="g878">
</g>
<g
   id="g880">
</g>
<g
   id="g882">
</g>
<g
   id="g884">
</g>
<g
   id="g886">
</g>
<g
   id="g888">
</g>
<g
   id="g890">
</g>
<g
   id="g892">
</g>
<g
   id="g894">
</g>
<g
   id="g896">
</g>
<g
   id="g898">
</g>
<g
   id="g900">
</g>
<g
   id="g902">
</g>
<g
   id="g904">
</g>
<path
   style="fill:#e31b6d;fill-opacity:1;stroke-width:0.02778079;stroke-miterlimit:4;stroke-dasharray:none"
   d="M 303.92969 12.847656 C 302.1086 12.830483 300.15759 12.8483 297.97461 12.894531 C 288.16635 13.102249 282.35741 13.767694 273.17188 15.736328 C 251.20726 20.443754 230.92481 30.846745 213.61133 46.283203 C 211.89759 47.811146 210.39287 49.098281 210.26953 49.144531 C 210.14618 49.190781 208.27411 48.342253 206.10938 47.257812 C 169.53521 28.935841 126.30451 34.340542 95.515625 61.085938 C 77.689335 76.571112 65.702607 98.100872 62.154297 121.00781 L 61.541016 124.96484 L 59.054688 126.04492 C 57.686355 126.63874 54.677528 128.16728 52.369141 129.44141 C 25.433665 144.30864 6.7476493 170.2577 1.6542969 199.86523 C 0.48887853 206.63977 0.18708796 211.06966 0.33789062 219.21875 C 0.57026806 231.77599 2.3891514 241.40526 6.6640625 252.69531 C 9.3872386 259.88723 14.083081 268.62611 18.830078 275.33789 C 23.443942 281.86145 32.037708 290.85566 38.314453 295.73047 C 53.729687 307.7026 70.779135 314.60517 90.259766 316.75977 C 95.003592 317.28446 106.19836 317.21353 111.0957 316.62891 C 120.33439 315.52607 128.98992 313.31362 137.81055 309.79688 L 140.77344 308.61523 L 146.83984 314.71484 C 152.92538 320.83317 157.33455 324.71218 163.12891 329.04492 C 185.93262 346.0965 213.82699 356.3203 241.94336 357.93164 C 245.79987 358.15266 255.91634 358.09382 259.76953 357.82812 C 293.01809 355.53548 323.91037 342.18606 348.66992 319.4082 L 352.4668 315.91406 L 355.19727 317.19141 C 362.96072 320.82349 372.60116 323.84813 381.54688 325.46094 C 413.75727 331.26807 446.77643 322.4904 472.01367 301.41211 C 491.5104 285.12831 504.81216 262.74908 509.72266 237.9707 C 515.06591 211.00879 510.25314 183.3009 496.11328 159.62891 C 489.02676 147.76519 479.8999 137.47256 468.77344 128.79492 C 457.40521 119.92869 443.33823 113.00154 428.97656 109.19727 C 427.56794 108.82414 426.68555 108.44836 426.68555 108.22266 C 426.68555 108.02069 426.04711 105.87793 425.26758 103.46094 C 409.94447 55.95067 368.63353 21.05566 319.45117 14.080078 C 313.67444 13.26076 309.39295 12.899175 303.92969 12.847656 z M 301.49414 42.660156 C 306.10376 42.690159 310.72758 42.868786 313.0625 43.181641 C 336.70779 46.349851 356.9658 56.436089 373.20703 73.125 C 378.03581 78.086872 381.19082 81.985882 384.86719 87.537109 C 392.13917 98.517642 396.61733 109.09369 399.45703 121.98633 C 400.5547 126.96989 401.68631 129.43267 403.91602 131.69727 C 406.6669 134.4912 408.94716 135.53909 414.22656 136.43555 C 418.46305 137.15492 422.27864 138.0943 426.26758 139.39844 C 448.77649 146.75751 467.62194 164.50596 476.35938 186.57617 C 488.35683 216.88097 481.22929 250.9482 458.08008 273.94727 C 445.32984 286.61481 429.27318 294.43687 410.98828 296.89062 C 403.81408 297.85339 393.3098 297.48602 385.70898 296.00781 C 376.86346 294.28751 367.13256 290.54019 359.46484 285.90039 C 355.64898 283.59139 354.00377 282.88907 351.51367 282.50195 C 348.57321 282.04481 345.81596 282.50574 342.87695 283.94922 C 340.81484 284.96202 340.29142 285.40397 337.20117 288.74219 C 332.45321 293.87116 328.23822 297.95807 324.17383 301.37305 C 306.84018 315.93721 285.60671 325.06459 262.91797 327.70312 C 259.2406 328.13079 246.40328 328.47254 243.19336 328.22852 C 227.19218 327.01205 213.08219 323.2559 199.4375 316.57812 C 183.24487 308.65341 169.37159 297.22195 158.08203 282.50391 C 156.82868 280.86993 155.21489 279.01277 154.49414 278.37695 C 151.92169 276.10758 148.36069 274.7793 144.84961 274.7793 C 142.1989 274.7793 140.00951 275.39345 137.34766 276.88477 C 123.98732 284.37001 113.49176 287.33703 100.26172 287.36523 C 89.793292 287.38754 80.599432 285.4617 71.369141 281.3125 C 63.467545 277.76057 57.042447 273.27125 50.515625 266.74219 C 44.718279 260.94285 41.049599 255.90148 37.462891 248.80469 C 32.312926 238.61481 29.974609 228.76975 29.974609 217.27344 C 29.974609 211.83134 30.28293 208.52279 31.228516 203.80078 C 33.953406 190.19335 40.246681 178.2638 49.96875 168.27734 C 58.179404 159.84341 66.442414 154.61074 78.089844 150.4707 C 84.152558 148.31573 86.300164 146.81711 88.449219 143.23828 C 89.991478 140.66996 90.468256 138.6082 90.796875 133.08398 C 91.425002 122.52491 93.763055 113.71438 98.298828 104.81836 C 100.19204 101.1052 103.51362 95.928123 106.0918 92.675781 C 108.46671 89.679856 114.58053 83.615832 117.48438 81.375 C 126.91356 74.09863 137.10991 69.497707 148.4375 67.40625 C 163.69376 64.589427 179.82691 67.01302 193.48047 74.175781 C 196.36061 75.686728 199.32272 77.548806 204.10742 80.851562 C 207.8949 83.465969 212.49458 84.198994 216.8125 82.876953 C 219.93873 81.91978 221.69767 80.572973 226.03906 75.814453 C 243.06889 57.148339 264.43899 46.197519 290.00391 43.033203 C 292.28857 42.750418 296.88452 42.630153 301.49414 42.660156 z M 354.02539 349.42383 C 353.87604 349.42382 353.73528 349.43444 353.58594 349.43555 C 352.84726 349.44102 352.10938 349.46507 351.37305 349.5 C 351.14495 349.5105 350.89804 349.5063 350.67578 349.51953 C 345.52276 349.82631 340.42009 350.86778 335.5625 352.60156 C 335.31227 352.69088 335.06736 352.79562 334.81836 352.88867 C 334.63819 352.95604 334.45881 353.02639 334.2793 353.0957 C 332.71012 353.70132 331.16825 354.37942 329.6582 355.12891 C 329.54215 355.18649 329.42617 355.24434 329.31055 355.30273 C 327.65154 356.14078 326.03422 357.06129 324.4668 358.0625 C 324.44138 358.07875 324.41602 358.09503 324.39062 358.11133 C 323.87955 358.43896 323.37492 358.77495 322.875 359.11914 C 322.80957 359.16423 322.74494 359.21048 322.67969 359.25586 C 320.8629 360.51828 319.11354 361.87621 317.4668 363.3457 C 315.32246 365.25923 313.13124 367.54657 311.37695 369.70508 L 311.00781 370.16016 L 311.00781 370.29492 L 311.00781 370.42773 L 311.31836 370.04102 C 311.50275 369.81178 311.69726 369.59177 311.88672 369.36719 C 311.88908 369.36438 311.89217 369.36218 311.89453 369.35938 L 311.79883 369.48438 L 311.78906 369.49805 C 311.78377 369.50446 311.77872 369.51117 311.77344 369.51758 C 311.7075 369.6023 311.52486 369.83142 311.3457 370.05273 L 311.00781 370.46875 L 311.00781 370.49414 C 308.60491 373.54479 306.47475 376.87073 304.71289 380.48633 C 294.42164 401.60555 298.68306 426.61959 315.4082 443.27344 C 324.08053 451.90881 335.71569 457.5222 347.87891 458.93945 C 355.2446 459.79769 363.96897 458.86393 371.26172 456.4375 C 396.27323 448.1157 411.31013 423.45972 408.45898 398.29688 L 408.46289 398.29688 L 408.45117 398.22461 L 408.45117 398.21875 C 408.34274 397.274 408.21402 396.33006 408.05469 395.38477 C 408.10155 395.66481 408.14062 395.92754 408.18555 396.2207 C 408.2809 396.84992 408.39017 397.52757 408.42969 397.88086 C 408.45159 398.07669 408.47352 398.25068 408.47852 398.26758 C 408.48382 398.28448 408.5216 398.29687 408.5625 398.29688 C 408.65772 398.29688 408.65882 398.32558 408.55273 397.48438 C 408.51051 397.14956 408.45046 396.821 408.40234 396.48828 C 408.39549 396.44104 408.39591 396.43225 408.38867 396.38281 C 408.38207 396.33774 408.3739 396.29309 408.36719 396.24805 C 408.27222 395.61117 408.1696 394.97594 408.05273 394.3457 C 407.80999 393.03669 407.51881 391.7395 407.17969 390.45117 C 407.16943 390.41219 407.16074 390.37295 407.15039 390.33398 C 407.14812 390.32542 407.14485 390.31715 407.14258 390.30859 C 407.00369 389.78671 406.8523 389.26588 406.69727 388.74609 C 406.6295 388.51844 406.56096 388.29111 406.49023 388.06445 C 406.40413 387.78882 406.33094 387.51161 406.24023 387.23633 C 406.15044 386.96383 406.05103 386.69465 405.95703 386.42383 C 405.95588 386.42052 405.95427 386.41737 405.95312 386.41406 C 405.95177 386.41017 405.95057 386.40623 405.94922 386.40234 C 402.67846 376.992 396.88122 368.60474 389.17773 362.17773 C 380.96917 355.32935 371.06869 351.07618 360.53906 349.81836 C 360.52928 349.81719 360.51955 349.81562 360.50977 349.81445 C 360.49739 349.813 360.48503 349.81199 360.47266 349.81055 C 359.43403 349.68776 358.39165 349.58344 357.3418 349.51953 C 356.29649 349.4559 355.1638 349.42386 354.02539 349.42383 z M 353.88672 349.57227 C 354.05744 349.57189 354.22775 349.58081 354.39844 349.58203 C 354.17255 349.58045 353.94629 349.573 353.7207 349.57422 C 353.78344 349.57404 353.82202 349.57234 353.88672 349.57227 z M 353.45703 349.57812 C 353.1609 349.58121 352.86581 349.5915 352.57031 349.59961 C 352.7031 349.5961 352.83596 349.58847 352.96875 349.58594 C 353.13178 349.58385 353.28092 349.57917 353.45703 349.57812 z M 355.81055 349.60742 C 356.19305 349.61999 356.57502 349.63572 356.95703 349.65625 C 356.57454 349.63566 356.19239 349.61996 355.81055 349.60742 z M 351.68359 349.62695 C 351.21184 349.64782 350.73944 349.67193 350.26953 349.70508 C 350.49044 349.68988 350.71063 349.66486 350.93164 349.65234 C 351.18212 349.63816 351.43303 349.63767 351.68359 349.62695 z M 350.13867 349.7168 C 349.11658 349.79138 348.10008 349.89575 347.08789 350.02539 C 347.09774 350.02152 347.19547 350.0111 347.2207 350.00586 C 347.57779 349.9564 347.9343 349.90296 348.29297 349.86523 C 348.90748 349.8006 349.52289 349.76066 350.13867 349.7168 z M 358.44727 349.75977 C 358.72099 349.78193 358.99624 349.79017 359.26953 349.81641 C 359.27668 349.81709 359.28386 349.81767 359.29102 349.81836 C 359.2943 349.81868 359.2975 349.82 359.30078 349.82031 C 359.60334 349.84954 359.90313 349.89547 360.20508 349.92969 C 359.61894 349.86309 359.03254 349.80729 358.44727 349.75977 z M 361.27148 350.06055 C 361.7046 350.1182 362.1369 350.17623 362.56836 350.24414 C 362.13574 350.17593 361.70394 350.11825 361.27148 350.06055 z M 364.40625 350.56641 C 364.58075 350.59997 364.7575 350.62295 364.93164 350.6582 C 364.93364 350.65861 364.93551 350.65975 364.9375 350.66016 C 364.94338 350.66135 364.9492 350.66287 364.95508 350.66406 C 365.22892 350.71962 365.49858 350.79184 365.77148 350.85156 C 365.31639 350.75213 364.8616 350.654 364.40625 350.56641 z M 366.74414 351.07422 C 367.00753 351.13691 367.27277 351.19123 367.53516 351.25781 C 367.6657 351.29094 367.79553 351.3253 367.92578 351.35938 C 368.73397 351.57085 369.53874 351.79853 370.33594 352.04688 C 370.39627 352.06567 370.45732 352.08256 370.51758 352.10156 C 370.59515 352.12603 370.67059 352.15683 370.74805 352.18164 C 370.08786 351.97 369.41635 351.78577 368.74609 351.59961 C 368.68132 351.58162 368.6176 351.56072 368.55273 351.54297 C 368.54178 351.53996 368.53049 351.53816 368.51953 351.53516 C 368.32169 351.48116 368.12836 351.41503 367.92969 351.36328 C 367.53466 351.2604 367.13959 351.16805 366.74414 351.07422 z M 370.80859 352.20117 C 371.71431 352.49247 372.61129 352.80969 373.5 353.14844 C 373.298 353.07128 373.0898 353.00836 372.88672 352.93359 C 372.77912 352.89402 372.67038 352.85725 372.5625 352.81836 C 371.97979 352.60807 371.39982 352.39149 370.80859 352.20117 z M 373.61719 353.19531 C 374.34832 353.47598 375.07692 353.76163 375.79492 354.07422 C 376.3113 354.29902 376.82255 354.53433 377.33008 354.77734 C 377.53918 354.87747 377.74532 354.98332 377.95312 355.08594 C 377.9636 355.09236 378.03185 355.12689 378.0293 355.12695 C 378.01579 355.12725 377.95031 355.0979 377.88281 355.0625 C 377.84776 355.0441 377.70829 354.98592 377.66211 354.96289 C 376.83587 354.56477 375.99996 354.1866 375.15234 353.83008 C 375.06679 353.79386 374.9868 353.75332 374.9082 353.7207 C 374.78437 353.66931 374.65745 353.62468 374.5332 353.57422 C 374.22695 353.44987 373.92603 353.31412 373.61719 353.19531 z M 328.01562 356.1543 C 327.70273 356.32364 327.39166 356.49638 327.08203 356.67188 C 327.0758 356.67466 327.02657 356.7012 327.02539 356.70117 C 326.99815 356.70042 327.39748 356.47388 327.68945 356.31641 C 327.76901 356.27367 327.84917 356.23217 327.92969 356.19141 C 327.95627 356.17953 328.02478 356.14691 328.01562 356.1543 z M 400.58008 375.5918 C 400.5906 375.60865 400.60082 375.62571 400.61133 375.64258 C 400.60303 375.63424 400.59396 375.62795 400.58398 375.60938 C 400.57886 375.5998 400.58296 375.59937 400.58008 375.5918 z M 400.77148 375.90039 C 400.78683 375.9253 400.80305 375.94968 400.81836 375.97461 C 400.81123 375.97357 400.79344 375.95408 400.7793 375.92773 C 400.7712 375.91259 400.77362 375.90942 400.77148 375.90039 z M 400.8457 376.01953 C 400.85778 376.03924 400.87076 376.0584 400.88281 376.07812 C 400.90276 376.10069 401.07642 376.41855 401.1582 376.55273 C 401.07587 376.41311 400.98784 376.27748 400.9043 376.13867 C 400.89566 376.12411 400.88747 376.10815 400.87891 376.09375 C 400.85457 376.05275 400.84747 376.03139 400.8457 376.01953 z M 401.42578 377.01172 C 401.65725 377.40711 401.78637 377.61443 401.98242 377.9707 C 402.0713 378.13612 402.15778 378.30249 402.24414 378.46875 C 402.21381 378.42099 402.1223 378.26102 402.00977 378.06055 C 401.81711 377.70969 401.62549 377.35796 401.42578 377.01172 z M 354.05469 379.39648 C 356.31438 379.39935 358.58166 379.61155 360.15039 380.0332 C 360.76449 380.19826 361.45051 380.42393 362.16602 380.69141 C 362.1714 380.69342 362.17625 380.69525 362.18164 380.69727 C 362.21996 380.71162 362.26032 380.73149 362.29883 380.74609 C 362.97965 381.00412 363.68299 381.29373 364.375 381.60742 C 364.38013 381.60975 364.38549 381.61095 364.39062 381.61328 C 364.43576 381.63376 364.47646 381.65709 364.52148 381.67773 C 365.9443 382.33033 367.30697 383.0593 368.2793 383.72266 C 368.75916 384.05004 369.29191 384.46553 369.8418 384.93359 C 370.38865 385.39908 370.95187 385.91722 371.5 386.45508 C 371.50304 386.45806 371.50673 386.45991 371.50977 386.46289 C 371.52897 386.48176 371.54529 386.50256 371.56445 386.52148 C 372.0725 387.02271 372.56337 387.53901 373.01367 388.04492 C 373.34948 388.42301 373.65771 388.79275 373.93945 389.15234 C 374.07769 389.32909 374.22051 389.50712 374.33984 389.67383 C 374.70879 390.18923 375.08167 390.78253 375.44727 391.41406 C 375.57261 391.63102 375.69285 391.87023 375.81641 392.09766 C 376.08729 392.59571 376.35625 393.10044 376.60742 393.62695 C 376.71744 393.85754 376.81306 394.09122 376.91797 394.32422 C 377.35566 395.298 377.76136 396.28144 378.06445 397.20508 C 378.18396 397.56927 378.28959 397.92479 378.38086 398.26562 C 379.16166 401.18156 379.23823 407.04021 378.5332 409.89453 C 377.29475 414.90837 374.78763 419.2083 371.03906 422.74609 C 367.43943 426.1433 363.24569 428.25058 358.34375 429.12695 C 353.81971 429.93576 348.65494 429.36337 344.37305 427.58008 C 331.66993 422.28959 326.20519 408.33112 330.22656 396.42578 C 330.22893 396.41878 330.23005 396.4113 330.23242 396.4043 C 330.38823 395.94439 330.55987 395.48634 330.74414 395.0332 C 330.75316 395.01103 330.7624 394.98895 330.77148 394.9668 C 331.53363 393.10822 332.53603 391.31332 333.78906 389.62305 C 333.80229 389.6052 333.81679 389.58814 333.83008 389.57031 C 334.09395 389.21633 334.37226 388.86771 334.6582 388.52344 C 334.7782 388.37911 334.90301 388.23692 335.02734 388.09375 C 335.28989 387.79147 335.55576 387.49101 335.83594 387.19727 C 335.8935 387.13654 335.95356 387.07788 336.01172 387.01758 C 336.39798 386.61926 336.78583 386.23696 337.17578 385.875 C 337.21795 385.83596 337.2604 385.79848 337.30273 385.75977 C 337.69366 385.40128 338.08757 385.05885 338.48633 384.73438 C 338.56493 384.67041 338.6439 384.61137 338.72266 384.54883 C 339.07428 384.26973 339.42815 384.00092 339.78906 383.74609 C 340.02901 383.57671 340.27782 383.42129 340.52344 383.26172 C 341.57268 382.57982 342.67595 381.98688 343.85352 381.4707 C 344.15663 381.33782 344.46042 381.20381 344.77539 381.08008 C 345.10858 380.94926 345.45022 380.82582 345.79688 380.70508 C 346.09396 380.60143 346.40047 380.50325 346.70898 380.40625 C 347.07906 380.29019 347.44922 380.17315 347.83594 380.06641 C 347.98225 380.02685 348.12694 379.99385 348.25586 379.96289 C 348.56455 379.88692 348.88298 379.81438 349.23633 379.75391 C 349.28215 379.74602 349.33052 379.73809 349.37695 379.73047 C 349.79774 379.66184 350.24132 379.60202 350.70703 379.55469 C 350.74654 379.55064 350.78641 379.54686 350.82617 379.54297 C 351.32521 379.49452 351.84339 379.45798 352.37305 379.43359 C 352.92613 379.40813 353.48976 379.39577 354.05469 379.39648 z M 407.39648 392.10352 C 407.40507 392.14015 407.41531 392.17623 407.42383 392.21289 C 407.42209 392.21167 407.41816 392.20001 407.41602 392.19531 C 407.40986 392.16862 407.40268 392.14192 407.39648 392.11523 C 407.39587 392.11009 407.3969 392.1082 407.39648 392.10352 z M 407.44531 392.30273 C 407.46074 392.36962 407.48091 392.43498 407.49609 392.50195 C 407.49725 392.50705 407.49689 392.51248 407.49805 392.51758 C 407.48343 392.45237 407.46408 392.38746 407.44922 392.32227 C 407.44865 392.31636 407.44542 392.30702 407.44531 392.30273 z M 407.55664 392.81055 C 407.71161 393.51263 407.8572 394.21761 407.98438 394.92969 C 407.99469 394.98819 408.00329 395.05506 408.01367 395.11523 C 407.88023 394.34715 407.72424 393.57789 407.55664 392.81055 z M 466.37695 409.57227 C 461.03569 409.64524 455.67571 410.68314 450.54102 412.71289 C 436.60194 418.22302 426.24075 430.51135 423.05273 445.31055 C 422.63788 447.23631 422.43282 449.4442 422.32617 453.13281 C 422.14799 459.29571 422.68641 463.16323 424.45898 468.46484 C 426.75771 475.34016 430.11216 480.7203 435.43555 486.06641 C 442.45529 493.11612 451.04489 497.44238 460.80664 498.84375 C 464.64648 499.39498 472.07935 499.1813 475.71875 498.41406 C 481.65979 497.16159 487.10456 494.8667 492.25977 491.44531 C 496.09592 488.89934 501.53739 483.37128 504.27344 479.24023 C 518.01758 458.4885 512.48668 430.89897 491.82227 417.13281 C 484.13272 412.01021 475.27905 409.45064 466.37695 409.57227 z M 467.17383 439.30469 C 468.14388 439.32549 469.13595 439.44431 470.16211 439.66016 C 472.96409 440.24953 475.4091 441.58212 477.55469 443.6875 C 481.27744 447.3405 482.8787 452.84564 481.6875 457.89844 C 480.37692 463.45763 475.41602 468.22504 469.90234 469.22461 C 460.38026 470.95085 451.95425 463.9576 451.96875 454.3418 C 451.97728 448.69447 454.98648 443.70408 459.95117 441.10156 C 462.04355 440.00472 464.08401 439.41624 466.21094 439.31641 C 466.52998 439.30143 466.85048 439.29775 467.17383 439.30469 z "
   id="path913" /><path
   style="fill:#e31b6d;fill-opacity:1;stroke-width:0.0024555;stroke-miterlimit:4;stroke-dasharray:none"
   d=""
   id="path928"
   inkscape:connector-curvature="0" /><path
   style="fill:#e31b6d;fill-opacity:1;stroke-width:0.0024555;stroke-miterlimit:4;stroke-dasharray:none"
   d=""
   id="path930"
   inkscape:connector-curvature="0" /><path
   style="fill:#e31b6d;fill-opacity:1;stroke-width:0.0024555;stroke-miterlimit:4;stroke-dasharray:none"
   d=""
   id="path932"
   inkscape:connector-curvature="0" /><path
   style="fill:#e31b6d;fill-opacity:1;stroke-width:0.0024555;stroke-miterlimit:4;stroke-dasharray:none"
   d=""
   id="path934"
   inkscape:connector-curvature="0" /><path
   style="fill:#e31b6d;fill-opacity:1;stroke-width:0.0024555;stroke-miterlimit:4;stroke-dasharray:none"
   d=""
   id="path936"
   inkscape:connector-curvature="0" /><path
   style="fill:#e31b6d;fill-opacity:1;stroke-width:0.0024555;stroke-miterlimit:4;stroke-dasharray:none"
   d="m 311.00716,384.39314 v -13.90445 l 0.39157,-0.48528 c 0.42891,-0.53156 0.56762,-0.72076 0.38201,-0.52109 -0.0979,0.10532 -0.63102,0.74676 -0.73649,0.88614 -0.0325,0.043 -0.0355,0.0365 -0.0353,-0.0758 2.4e-4,-0.12217 0.002,-0.12514 0.39338,-0.6016 2.4606,-2.99686 5.37471,-5.88663 8.19905,-8.13061 2.58859,-2.05666 5.17993,-3.78783 7.98037,-5.33138 2.31064,-1.27358 4.3805,-2.22712 7.19461,-3.31441 3.43482,-1.3271 7.48697,-2.36817 11.39352,-2.9272 2.67514,-0.38281 4.96285,-0.53493 8.09086,-0.53799 2.27633,-0.002 3.76818,0.0867 6.15103,0.3666 5.22417,0.61369 10.31689,1.96379 15.08903,4.00016 6.87064,2.93184 13.05156,7.21573 18.22918,12.63434 5.13685,5.37593 9.13989,11.74008 11.74548,18.6733 0.81869,2.17844 1.57321,4.68819 2.10391,6.99817 0.31845,1.38613 0.5192,2.45715 0.7857,4.19177 0.25011,1.62794 0.28482,1.95246 0.2113,1.97536 -0.0698,0.0218 -0.0917,-0.0509 -0.14985,-0.49746 -0.0809,-0.6218 -0.15116,-1.06805 -0.17107,-1.08696 -0.009,-0.009 -0.01,0.0177 -10e-4,0.0582 0.0205,0.0996 0.18707,1.42226 0.18707,1.4849 v 0.0498 h -15.0224 -15.02222 l -0.0456,-0.17802 c -0.14676,-0.57302 -0.48817,-1.56262 -0.83656,-2.42481 -1.03398,-2.55889 -2.36228,-5.01683 -3.47669,-6.4334 -0.73026,-0.92827 -1.38887,-1.66384 -2.3419,-2.61557 -1.56069,-1.55856 -2.84518,-2.61405 -4.11433,-3.38082 -2.2139,-1.33756 -5.45717,-2.73791 -7.59976,-3.28137 -2.07733,-0.5269 -5.43195,-0.72747 -8.47147,-0.50652 -2.07223,0.15065 -3.31536,0.41123 -5.53715,1.16071 -2.15388,0.72657 -4.01214,1.64436 -5.94231,2.93489 -2.01549,1.34757 -4.36865,3.59357 -6.02444,5.75006 -0.98894,1.288 -1.90026,2.76155 -2.59439,4.19503 -0.75227,1.55355 -1.27149,2.96658 -1.718,4.67546 l -0.0273,0.10436 h -9.32995 -9.32994 z m 96.92898,10.22014 c -0.0375,-0.20179 -0.0727,-0.36229 -0.0784,-0.35667 -0.006,0.006 0.0212,0.18231 0.0595,0.39261 0.0384,0.21031 0.0736,0.37081 0.0784,0.35667 0.005,-0.0141 -0.0221,-0.19082 -0.0595,-0.39261 z m -0.0924,-0.47162 c -0.007,-0.0169 -0.0124,-0.003 -0.0124,0.0307 0,0.0338 0.006,0.0476 0.0124,0.0307 0.007,-0.0169 0.007,-0.0445 0,-0.0614 z m -0.0246,-0.12278 c -0.007,-0.0169 -0.0124,-0.003 -0.0124,0.0307 0,0.0338 0.006,0.0476 0.0124,0.0307 0.007,-0.0169 0.007,-0.0445 0,-0.0614 z m -0.0246,-0.12277 c -0.007,-0.0169 -0.0124,-0.003 -0.0124,0.0307 0,0.0338 0.006,0.0476 0.0124,0.0307 0.007,-0.0169 0.007,-0.0445 0,-0.0614 z m -0.0245,-0.12278 c -0.007,-0.0169 -0.0124,-0.003 -0.0124,0.0307 0,0.0338 0.006,0.0476 0.0124,0.0307 0.007,-0.0169 0.007,-0.0445 0,-0.0614 z m -0.024,-0.0967 c -0.008,-0.0196 -0.0137,-0.0138 -0.0148,0.0148 -0.001,0.0259 0.005,0.0404 0.0129,0.0322 0.008,-0.008 0.009,-0.0293 0.002,-0.0471 z m -0.33299,-1.53438 c -0.029,-0.0498 -0.0359,-0.0338 -0.0122,0.0279 0.008,0.022 0.0205,0.0347 0.0268,0.0284 0.006,-0.006 -2.5e-4,-0.0317 -0.0146,-0.0563 z m -5.35022,-14.03502 c -0.17285,-0.33011 -0.59419,-1.05234 -0.59477,-1.01951 -2.4e-4,0.01 0.106,0.20876 0.23593,0.44199 0.12993,0.23323 0.2963,0.53179 0.36971,0.66347 0.0734,0.13167 0.13932,0.23941 0.14647,0.23941 0.007,0 -0.0636,-0.14641 -0.15734,-0.32536 z m -1.05106,-1.82934 c -0.1148,-0.20709 -0.1579,-0.27081 -0.1579,-0.23347 0,0.0328 0.21773,0.39921 0.23723,0.39921 0.007,0 -0.0288,-0.0746 -0.0793,-0.16574 z m -0.19813,-0.33763 c -0.008,-0.0203 -0.0236,-0.0368 -0.0353,-0.0368 -0.0116,0 -0.0148,0.0166 -0.007,0.0368 0.008,0.0203 0.0236,0.0368 0.0353,0.0368 0.0116,0 0.0148,-0.0166 0.007,-0.0368 z m -73.29104,-19.5013 c 0.26155,-0.14436 0.47138,-0.26663 0.46629,-0.27172 -0.017,-0.017 -0.76879,0.38588 -0.93434,0.50062 -0.13239,0.0917 0.0386,0.008 0.46805,-0.2289 z m 50.49514,-1.32114 c 0,-0.0322 -1.3197,-0.65827 -2.18436,-1.03635 -0.58,-0.2536 -1.94189,-0.80036 -1.9567,-0.78555 -0.006,0.006 0.19699,0.096 0.45073,0.20033 1.06971,0.43987 2.22001,0.94781 3.1624,1.39642 0.48382,0.23031 0.52793,0.24912 0.52793,0.22515 z m -4.17435,-1.83919 c 0,-0.005 -0.0172,-0.0162 -0.0381,-0.0243 -0.0219,-0.008 -0.0317,-0.004 -0.0231,0.01 0.0144,0.0233 0.0612,0.0345 0.0612,0.0146 z M 373.25404,353.05 c -0.25765,-0.11352 -1.93892,-0.70389 -1.95597,-0.68684 -0.005,0.005 0.16543,0.0707 0.3782,0.14658 0.21277,0.0759 0.6631,0.23739 1.00073,0.35897 0.56955,0.20508 0.78392,0.27243 0.57704,0.18129 z m -2.58041,-0.90155 c -0.0646,-0.0646 -3.42755,-1.00323 -3.56196,-0.9942 -0.0183,0.001 0.17121,0.0549 0.42106,0.11927 0.53876,0.1388 1.84234,0.5072 2.566,0.72516 0.47851,0.14413 0.60122,0.17609 0.5749,0.14977 z m -3.61409,-1.01126 c -0.008,-0.008 -0.0293,-0.009 -0.0471,-0.002 -0.0196,0.008 -0.0138,0.0137 0.0148,0.0148 0.0259,10e-4 0.0404,-0.005 0.0322,-0.0129 z m -1.38685,-0.32065 c -0.0169,-0.007 -0.0445,-0.007 -0.0614,0 -0.0169,0.007 -0.003,0.0124 0.0307,0.0124 0.0338,0 0.0476,-0.006 0.0307,-0.0124 z m -0.21485,-0.047 c -0.10813,-0.0302 -0.68725,-0.15152 -0.91903,-0.19246 -0.0463,-0.008 -0.0773,-0.008 -0.0689,3.7e-4 0.018,0.018 0.99017,0.22476 1.0616,0.22575 0.027,3.7e-4 -0.006,-0.0148 -0.0737,-0.0337 z m -17.86277,-0.79521 c 0.3913,-0.0488 1.70719,-0.18165 2.09342,-0.21132 0.11878,-0.009 0.21085,-0.0217 0.20461,-0.0279 -0.0134,-0.0134 -0.92845,0.0534 -1.43959,0.1051 -0.41104,0.0415 -1.25829,0.15559 -1.27424,0.17153 -0.0159,0.0159 0,0.0145 0.4158,-0.0374 z m 12.47955,-0.0661 c -0.0166,-0.007 -0.0498,-0.007 -0.0737,-9.1e-4 -0.0239,0.006 -0.0103,0.0117 0.0302,0.0122 0.0405,5e-4 0.0601,-0.005 0.0434,-0.0113 z m -0.25215,-0.0347 c -0.34449,-0.0512 -1.38529,-0.1367 -1.26459,-0.10383 0.0702,0.0191 1.15703,0.12339 1.28914,0.12368 l 0.1105,2.4e-4 -0.13505,-0.0201 z m -8.54514,-0.2211 c 0.2148,-0.0146 0.17366,-0.0161 -0.17188,-0.006 -0.24985,0.007 -0.52057,0.022 -0.6016,0.0331 -0.16148,0.0222 0.27858,0.007 0.77348,-0.0267 z m 2.6458,-0.0888 c -0.0236,-0.006 -0.0623,-0.006 -0.0859,0 -0.0236,0.006 -0.004,0.0112 0.043,0.0112 0.0473,0 0.0666,-0.005 0.043,-0.0112 z m 0.12227,0.002 c -0.008,-0.008 -0.0293,-0.009 -0.0471,-0.002 -0.0196,0.008 -0.0138,0.0137 0.0148,0.0148 0.0259,10e-4 0.0404,-0.005 0.0322,-0.0129 z"
   id="path938"
   inkscape:connector-curvature="0" /></svg>