<?xml version="1.0" encoding="UTF-8" standalone="no"?>
<svg
   xmlns:osb="http://www.openswatchbook.org/uri/2009/osb"
   xmlns:dc="http://purl.org/dc/elements/1.1/"
   xmlns:cc="http://creativecommons.org/ns#"
   xmlns:rdf="http://www.w3.org/1999/02/22-rdf-syntax-ns#"
   xmlns:svg="http://www.w3.org/2000/svg"
   xmlns="http://www.w3.org/2000/svg"
   xmlns:xlink="http://www.w3.org/1999/xlink"
   xmlns:sodipodi="http://sodipodi.sourceforge.net/DTD/sodipodi-0.dtd"
   xmlns:inkscape="http://www.inkscape.org/namespaces/inkscape"
   id="svg"
   version="1.1"
   width="400"
   height="400"
   viewBox="0, 0, 400,400"
   sodipodi:docname="thinking.svg"
   inkscape:version="0.92.3 (2405546, 2018-03-11)">
  <metadata
     id="metadata53">
    <rdf:RDF>
      <cc:Work
         rdf:about="">
        <dc:format>image/svg+xml</dc:format>
        <dc:type
           rdf:resource="http://purl.org/dc/dcmitype/StillImage" />
      </cc:Work>
    </rdf:RDF>
  </metadata>
  <defs
     id="defs51">
    <linearGradient
       id="linearGradient829"
       osb:paint="solid">
      <stop
         style="stop-color:#e31b6d;stop-opacity:1;"
         offset="0"
         id="stop827" />
    </linearGradient>
    <linearGradient
       inkscape:collect="always"
       xlink:href="#linearGradient829"
       id="linearGradient831"
       x1="52.494822"
       y1="188.13559"
       x2="338.60688"
       y2="188.13559"
       gradientUnits="userSpaceOnUse" />
  </defs>
  <sodipodi:namedview
     pagecolor="#ffffff"
     bordercolor="#666666"
     borderopacity="1"
     objecttolerance="10"
     gridtolerance="10"
     guidetolerance="10"
     inkscape:pageopacity="0"
     inkscape:pageshadow="2"
     inkscape:window-width="3840"
     inkscape:window-height="2066"
     id="namedview49"
     showgrid="false"
     inkscape:zoom="3.337544"
     inkscape:cx="3.0277213"
     inkscape:cy="146.30292"
     inkscape:window-x="2869"
     inkscape:window-y="-11"
     inkscape:window-maximized="1"
     inkscape:current-layer="svgg" />
  <g
     id="svgg">
    <path
       id="path3"
       d="m 186.20264,39.161651 c -0.202,0.527 -0.828,0.578 -4.243,0.343 -3.585,-0.247 -4.005,-0.206 -4.005,0.392 0,0.581 -0.33,0.635 -2.538,0.408 -2.121,-0.217 -2.579,-0.154 -2.786,0.383 -0.199,0.519 -0.609,0.594 -2.111,0.388 -1.515,-0.207 -1.936,-0.128 -2.246,0.426 -0.309,0.552 -0.718,0.63 -2.166,0.413 -1.4,-0.21 -1.76,-0.149 -1.669,0.28 0.087,0.412 -0.306,0.515 -1.584,0.414 -1.385,-0.11 -1.7,-0.009 -1.7,0.544 0,0.555 -0.247,0.633 -1.354,0.425 -1.006,-0.189 -1.412,-0.099 -1.584,0.349 -0.164,0.426 -0.569,0.535 -1.389,0.371 -0.859,-0.172 -1.224,-0.059 -1.415,0.438 -0.197,0.512 -0.541,0.608 -1.458,0.407 -0.932,-0.205 -1.2,-0.125 -1.2,0.358 0,0.48 -0.279,0.566 -1.218,0.378 -0.914,-0.182 -1.188,-0.105 -1.1,0.31 0.079,0.371 -0.198,0.519 -0.835,0.449 -0.544,-0.059 -1.175,0.198 -1.473,0.6 -0.417,0.565 -0.621,0.606 -1.027,0.205 -0.683,-0.674 -1.147,-0.63 -1.147,0.108 0,0.448 -0.262,0.541 -1,0.356 -0.765,-0.192 -1,-0.095 -1,0.411 0,0.539 -0.259,0.613 -1.4,0.399 -0.918,-0.173 -1.4,-0.11 -1.4,0.181 0,0.245 -0.264,0.445 -0.587,0.445 -0.382,0 -0.499,0.231 -0.335,0.66 0.21,0.546 0.07,0.614 -0.812,0.392 -0.804,-0.202 -1.066,-0.118 -1.066,0.34 0,0.733 -0.651,0.808 -0.94,0.108 -0.126,-0.307 -0.309,-0.163 -0.472,0.372 -0.169,0.553 -0.482,0.79 -0.853,0.648 -0.337,-0.13 -0.846,0.145 -1.197,0.646 -0.454,0.649 -0.742,0.763 -1.125,0.445 -0.389,-0.323 -0.572,-0.213 -0.744,0.446 -0.202,0.775 -0.307,0.81 -0.914,0.309 -0.53,-0.438 -0.723,-0.453 -0.853,-0.066 -0.093,0.275 -0.514,0.5 -0.935,0.5 -0.422,0 -0.767,0.18 -0.767,0.4 0,0.22 -0.32,0.4 -0.712,0.4 -0.391,0 -0.971,0.36 -1.288,0.8 -0.317,0.44 -0.807,0.8 -1.088,0.8 -0.282,0 -0.512,0.289 -0.512,0.643 0,0.407 -0.22,0.558 -0.6,0.412 -0.374,-0.143 -0.6,0.003 -0.6,0.389 0,0.476 -0.27,0.56 -1.165,0.364 -0.951,-0.209 -1.214,-0.104 -1.427,0.568 -0.144,0.453 -0.52,0.824 -0.835,0.824 -0.315,0 -0.573,0.29 -0.573,0.643 0,0.476 -0.245,0.582 -0.939,0.408 -0.739,-0.185 -1.039,-0.018 -1.404,0.783 -0.33,0.725 -0.673,0.951 -1.193,0.786 -0.526,-0.167 -0.867,0.068 -1.216,0.835 -0.367,0.805 -0.599,0.954 -0.947,0.606 -0.722,-0.722 -1.017,-0.555 -1.301,0.739 -0.255,1.16 -0.676,1.385 -2.287,1.223 -0.438,-0.044 -0.782,0.314 -0.951,0.987 -0.204,0.811 -0.452,1.008 -1.066,0.847 -0.937,-0.245 -1.896,0.573 -1.896,1.618 0,0.971 -1.282,1.733 -2.416,1.437 -0.63,-0.165 -0.821,-0.096 -0.623,0.225 0.157,0.255 0.099,0.463 -0.13,0.463 -0.229,0 -0.531,0.458 -0.671,1.018 -0.251,1 -2.67,2.982 -3.639,2.982 -0.271004,0 -1.679004,1.125 -3.130004,2.5 -7.412,7.027 -8.974,8.679 -8.752,9.257 0.255,0.665 -0.986,2.611 -1.678,2.63 -0.722,0.021 -2.161,1.459 -2.161,2.16 0,0.677 -0.838,1.625 -2.334,2.641 -0.476,0.324 -0.866,0.894 -0.866,1.268 0,1.3 -0.492,1.944 -1.486,1.944 -0.856,0 -0.966,0.139 -0.76,0.957 0.196,0.783 0.057,1.004 -0.757,1.208 -0.716,0.179999 -0.997,0.520999 -0.997,1.209999 0,1.365 -0.398,2.225 -1.03,2.225 -0.3,0 -0.45,0.248 -0.334,0.551 0.135,0.349 -0.164,0.645 -0.818,0.809 -0.858,0.215 -0.987,0.422 -0.78,1.249 0.173,0.689 0.083,0.993 -0.295,0.997 -1.177,0.013 -1.734,0.682 -1.151,1.384 0.466,0.561 0.427,0.68 -0.28,0.865 -0.545,0.142 -0.757,0.452 -0.633,0.924 0.124,0.475 -0.09,0.783 -0.647,0.928 -0.508,0.133 -0.832,0.544 -0.832,1.056 0,0.46 -0.192,0.837 -0.427,0.837 -0.245,0 -0.319,0.341 -0.172,0.802 0.166,0.524 0.046,0.882 -0.348,1.033 -0.331,0.127 -0.505,0.485 -0.386,0.795 0.119,0.31 -0.061,0.67 -0.4,0.8 -0.339,0.13 -0.519,0.491 -0.399,0.803 0.134,0.35 -0.039,0.567 -0.452,0.567 -0.488,0 -0.601,0.217 -0.416,0.8 0.183,0.577 0.072,0.8 -0.4,0.8 -0.472,0 -0.583,0.223 -0.4,0.8 0.183,0.577 0.072,0.8 -0.4,0.8 -0.472,0 -0.583,0.223 -0.4,0.8 0.176,0.553 0.072,0.8 -0.336,0.8 -0.392,0 -0.519,0.267 -0.38,0.8 0.146,0.556 0.012,0.8 -0.437,0.8 -0.356,0 -0.647,0.27 -0.647,0.6 0,0.33 -0.203,0.6 -0.45,0.6 -0.288,0 -0.362,0.438 -0.207,1.215 0.168,0.839 0.073,1.281 -0.306,1.426 -0.315,0.121 -0.462,0.54 -0.346,0.985 0.14,0.535 -0.002,0.774 -0.459,0.774 -0.484,0 -0.631,0.297 -0.547,1.1 0.074,0.712 -0.061,1.065 -0.385,1 -0.275,-0.055 -0.5,0.17 -0.5,0.5 0,0.33 -0.225,0.603 -0.5,0.606 -0.339,0.004 -0.307,0.143 0.1,0.431 0.448,0.317 0.474,0.475 0.103,0.626 -0.368,0.149 -0.387,0.407 -0.07,0.999 0.355,0.663 0.288,0.834 -0.403,1.014 -0.959,0.251 -0.975,0.306 -0.4,1.38 0.359,0.671 0.293,0.839 -0.4,1.02 -0.935,0.245 -1.035,0.559 -0.385,1.209 0.547,0.547 0.13,1.315 -0.713,1.315 -0.493,0 -0.567,0.288 -0.358,1.4 0.208,1.109 0.134,1.4 -0.356,1.4 -0.71899,0 -0.81699,0.841 -0.173,1.485 0.569,0.569 0.052,1.438 -0.68499,1.155 -0.687,-0.264 -0.779,1.381 -0.115,2.045 0.54699,0.547 0.13,1.315 -0.714,1.315 -0.51,0 -0.573,0.323 -0.352,1.8 0.252,1.678 -0.217,2.532 -0.714,1.3 -0.111,-0.275 -0.216,0.229 -0.233,1.12 -0.018,0.891 0.193,1.848 0.468,2.127 0.401,0.406 0.35,0.618 -0.256,1.065 -0.623,0.46 -0.713,0.877 -0.511,2.355 0.182,1.322 0.088,1.955 -0.355,2.398 -0.453,0.453 -0.574,1.353 -0.49,3.632 0.066,1.791 -0.059,3.147 -0.307,3.317 -0.651,0.444 -0.551,26.527 0.103,27.208 0.359,0.372 0.432,1.354 0.256,3.436 -0.21,2.482 -0.149,2.953 0.411,3.168 0.545,0.209 0.615,0.625 0.406,2.402 -0.208,1.766 -0.137,2.194 0.395,2.398 0.713,0.274 0.881,1.683 0.248,2.074 -0.715,0.442 -0.471,2.117 0.3,2.056 0.441,-0.035 0.641,0.166 0.54,0.544 -0.533,2.003 -0.507,2.8 0.091,2.8 0.844,0 1.26099,0.768 0.714,1.315 -0.637,0.637 -0.55,1.885 0.131,1.885 0.80499,0 1.20299,0.781 0.66899,1.315 -0.65299,0.653 -0.54199,1.485 0.198,1.485 0.491,0 0.583,0.243 0.387,1.025 -0.196,0.778 -0.038,1.204 0.656,1.771 0.733,0.599 0.815,0.848 0.414,1.256 -0.704,0.716 -0.625,1.022 0.33,1.272 0.693,0.181 0.759,0.349 0.4,1.02 -0.577,1.078 -0.561,1.128 0.436,1.389 0.766,0.201 0.801,0.305 0.3,0.912 -0.438,0.53 -0.453,0.723 -0.066,0.853 0.275,0.093 0.5,0.584 0.5,1.093 0,0.508 0.274,1.029 0.61,1.157 0.427,0.164 0.534,0.536 0.356,1.243 -0.197,0.787 -0.101,1.009 0.437,1.009 0.493,0 0.631,0.228 0.481,0.8 -0.135,0.515 -0.012,0.8 0.343,0.8 0.402,0 0.487,0.33 0.311,1.209 -0.196,0.983 -0.042,1.381 0.826,2.126 0.709,0.609 0.981,1.144 0.809,1.591 -0.179,0.467 -0.052,0.674 0.411,0.674 0.488,0 0.601,0.217 0.416,0.8 -0.183,0.577 -0.072,0.8 0.4,0.8 0.472,0 0.583,0.223 0.4,0.8 -0.176,0.553 -0.072,0.8 0.336,0.8 0.392,0 0.519,0.267 0.38,0.8 -0.144,0.552 -0.012,0.8 0.425,0.8 0.373,0 0.547,0.226 0.423,0.548 -0.115,0.302 0.067,0.655 0.406,0.785 0.339,0.13 0.519,0.49 0.4,0.8 -0.119,0.31 0.061,0.67 0.4,0.8 0.356,0.137 0.517,0.496 0.38,0.852 -0.153,0.4 -0.005,0.615 0.422,0.615 0.439,0 0.632,0.3 0.581,0.9 -0.178,2.071 0.046,2.685 1.078,2.943 0.845,0.213 0.987,0.43 0.792,1.208 -0.134,0.534 -0.06,0.949 0.169,0.949 0.225,0 0.422,0.405 0.44,0.9 0.017,0.495 0.122,0.675 0.233,0.4 0.111,-0.275 0.361,-0.5 0.556,-0.5 0.195,0 0.247,0.277 0.117,0.616 -0.15,0.393 -0.036,0.574 0.313,0.5 0.374,-0.079 0.525,0.236 0.474,0.984 -0.064,0.932 0.08,1.1 0.943,1.1 0.884,0 0.986,0.131 0.77,0.991 -0.205,0.815 -0.077,1.034 0.719,1.234 0.532,0.133 1.058,0.588 1.168,1.009 0.11,0.422 0.037,0.666 -0.162,0.543 -0.2,-0.123 -0.363,-0.111 -0.363,0.028 0,0.384 0.911,1.212 1.939,1.763 0.587,0.313 0.837,0.718 0.686,1.111 -0.263,0.685 1.145,2.121 2.08,2.121 0.43,0 0.515,0.287 0.326,1.1 -0.189,0.816 -0.151,0.945 0.151,0.5 0.332,-0.491 0.407,-0.437 0.412,0.3 0.004,0.582 0.249,0.9 0.693,0.9 0.705,0 2.513,1.812 2.513,2.518 0,0.217 0.29,0.606 0.644,0.865 0.563,0.412 0.571,0.544 0.065,1.051 -0.67,0.67 -1.165,2.766 -0.654,2.766 0.555,0 0.396,2.006 -0.176,2.225 -0.729,0.28 -0.745,19.327 -0.018,20.078 0.299,0.308 0.399,1.051 0.258,1.916 -0.177,1.096 -0.06,1.538 0.526,1.972 0.64,0.475 0.679,0.685 0.255,1.379 -0.275,0.451 -0.479,1.227 -0.454,1.725 0.035,0.677 0.093,0.729 0.23,0.205 0.1,-0.385 0.339,-0.7 0.53,-0.7 0.613,0 0.899,0.855 0.439,1.315 -0.653,0.653 -0.549,0.965 0.407,1.214 0.569,0.149 0.772,0.43 0.613,0.847 -0.132,0.343 -0.046,0.624 0.191,0.624 0.26,0 0.331,0.397 0.18,1 -0.189,0.752 -0.094,1 0.383,1 0.453,0 0.562,0.229 0.381,0.8 -0.185,0.583 -0.072,0.8 0.416,0.8 0.431,0 0.588,0.214 0.439,0.6 -0.144,0.377 0.005,0.6 0.401,0.6 0.472,0 0.568,0.25 0.382,0.991 -0.208,0.828 -0.078,1.034 0.787,1.251 0.848,0.213 0.993,0.431 0.8,1.2 -0.192,0.767 -0.047,0.987 0.788,1.197 1.072,0.269 3.282,3.063 2.602,3.289 -0.596,0.199 1.446,2.071 2.267,2.078 0.613004,0.005 0.631004,0.065 0.118,0.412 -0.446,0.302 -0.319,0.341 0.495004,0.152 0.93,-0.216 1.2,-0.068 1.8,0.985 0.388,0.682 1.008,1.241 1.378,1.242 0.37,0.002 0.792,0.378 0.938,0.837 0.205,0.647 0.482,0.779 1.235,0.59 0.656,-0.164 1.044,-0.054 1.196,0.341 0.123,0.321 0.478,0.487 0.788,0.368 0.31,-0.119 0.67,0.061 0.8,0.4 0.13,0.339 0.49,0.519 0.8,0.4 0.31,-0.119 0.679,0.086 0.821,0.455 0.182,0.474 0.535,0.602 1.203,0.434 0.707,-0.177 0.946,-0.071 0.946,0.42 0,0.52 0.256,0.607 1.215,0.415 0.894,-0.179 1.279,-0.077 1.456,0.384 0.182,0.474 0.57,0.565 1.59,0.374 1.047,-0.196 1.407,-0.103 1.606,0.415 0.217,0.565 0.64,0.629 2.759,0.411 1.958,-0.2 2.634,-0.124 3.109,0.352 0.913,0.912 14.067,0.9 14.418,-0.014 0.201,-0.525 0.762,-0.579 3.618,-0.347 2.825,0.229 3.486,0.168 4.025,-0.371 0.515,-0.515 1.132,-0.594 3.074,-0.391 2.008,0.21 2.492,0.141 2.795,-0.4 0.3,-0.536 0.786,-0.611 2.688,-0.412 1.901,0.199 2.367,0.128 2.566,-0.391 0.196,-0.512 0.64,-0.587 2.312,-0.389 1.689,0.2 2.137,0.122 2.444,-0.427 0.307,-0.547 0.738,-0.624 2.33,-0.413 1.491,0.198 2.101,0.113 2.574,-0.36 0.473,-0.472 1.139,-0.567 2.796,-0.396 1.737,0.18 2.315,0.085 2.869,-0.469 0.523,-0.523 1.069,-0.633 2.225,-0.448 0.927,0.148 1.531,0.085 1.531,-0.16 0,-0.223 0.601,-0.405 1.336,-0.405 1.051,0 1.437,-0.222 1.811,-1.044 0.341,-0.748 0.695,-0.986 1.25,-0.841 0.438,0.115 1.156,-0.128 1.65,-0.556 0.705,-0.611 0.748,-0.759 0.223,-0.759 -0.551,0 -0.582,-0.156 -0.197,-1 0.25,-0.55 0.707,-1 1.015,-1 0.308,0 0.436,-0.199 0.284,-0.445 -0.711,-1.151 3.552,-1.254 4.472,-0.108 0.538,0.67 15.177,0.834 14.763,0.165 -0.132,-0.214 0.218,-0.484 0.777,-0.6 0.559,-0.117 1.455,-0.303 1.991,-0.413 0.537,-0.111 1.088,-0.021 1.224,0.2 0.404,0.653 5.401,0.512 5.401,-0.152 0,-0.657 1.723,-1.069 2.474,-0.593 0.882,0.56 3.021,0.397 3.268,-0.248 0.178,-0.462 0.643,-0.538 2.093,-0.339 1.515,0.207 1.936,0.128 2.246,-0.426 0.308,-0.551 0.718,-0.63 2.15,-0.415 1.475,0.221 1.769,0.157 1.769,-0.385 0,-0.531 0.284,-0.605 1.541,-0.404 1.233,0.197 1.594,0.109 1.804,-0.439 0.209,-0.543 0.554,-0.631 1.659,-0.424 1.085,0.204 1.396,0.13 1.396,-0.331 0,-0.454 0.327,-0.54 1.4,-0.366 1.134,0.184 1.4,0.1 1.4,-0.443 0,-0.549 0.252,-0.623 1.4,-0.408 1.1,0.207 1.4,0.133 1.4,-0.344 0,-0.422 0.259,-0.539 0.851,-0.385 0.536,0.141 0.979,-0.007 1.199,-0.4 0.22,-0.393 0.662,-0.541 1.2,-0.4 0.531,0.139 0.979,-0.005 1.191,-0.384 0.217,-0.388 0.702,-0.536 1.349,-0.413 0.729,0.14 1.01,0.021 1.01,-0.428 0,-0.487 0.303,-0.572 1.4,-0.395 0.909,0.148 1.4,0.069 1.4,-0.225 0,-0.248 0.27,-0.452 0.6,-0.452 0.33,0 0.6,-0.266 0.6,-0.59 0,-0.443 0.301,-0.53 1.209,-0.348 0.989,0.198 1.381,0.041 2.156,-0.861 0.521,-0.606 1.128,-0.991 1.349,-0.854 0.221,0.137 0.517,-0.051 0.657,-0.416 0.195,-0.507 0.366,-0.554 0.722,-0.198 0.613,0.613 1.133,0.596 1.007,-0.033 -0.067,-0.336 0.358,-0.471 1.3,-0.412 0.77,0.049 1.175,-0.011 0.9,-0.133 -0.832,-0.369 -0.56,-1.028 0.31,-0.752 0.556,0.177 0.776,0.091 0.7,-0.273 -0.061,-0.294 0.201,-0.505 0.59,-0.474 0.385,0.03 0.7,-0.216 0.7,-0.547 0,-0.405 0.262,-0.534 0.8,-0.393 0.541,0.141 0.8,0.012 0.8,-0.4 0,-0.412 0.259,-0.542 0.8,-0.4 0.52,0.136 0.8,0.012 0.8,-0.353 0,-0.31 0.27,-0.563 0.6,-0.563 0.33,0 0.6,-0.202 0.6,-0.45 0,-0.286 0.435,-0.363 1.195,-0.211 1.036,0.207 1.229,0.104 1.449,-0.774 0.152,-0.605 0.463,-0.933 0.772,-0.814 0.285,0.109 0.624,-0.079 0.754,-0.418 0.139,-0.362 0.495,-0.517 0.863,-0.376 0.578,0.222 1.68,-0.506 1.881,-1.243 0.047,-0.173 0.347,-0.283 0.666,-0.245 0.319,0.038 0.88,-0.277 1.247,-0.7 0.367,-0.423 0.871,-0.769 1.12,-0.769 0.249,0 0.453,-0.251 0.453,-0.557 0,-0.6 0.837,-1.043 1.969,-1.043 0.386,0 0.901,-0.436 1.144,-0.969 0.318,-0.698 0.666,-0.909 1.246,-0.758 0.615,0.161 0.865,-0.031 1.063,-0.817 0.263,-1.051 1.435,-1.715 2.196,-1.245 0.559,0.346 1.991,-1.323 1.726,-2.013 -0.113,-0.295 0.156,-0.73 0.599,-0.967 1.088,-0.583 1.255,-0.547 1.269,0.269 0.011,0.618 0.065,0.608 0.468,-0.086 0.251,-0.433 0.876,-1.206 1.388,-1.719 0.513,-0.512 0.932,-1.116 0.932,-1.342 0,-0.511 0.675,-1.194 2.1,-2.126 0.637,-0.416 1.1,-0.533 1.1,-0.276 0,0.243 2.131,-1.671 4.735,-4.254 2.604,-2.584 4.6,-4.788 4.434,-4.899 -0.473,-0.319 1.783,-3.378 2.608,-3.537 1.022,-0.197 2.655,-1.903 2.43,-2.539 -0.245,-0.693 0.588,-1.739 1.653,-2.077 0.567,-0.181 0.941,-0.726 1.109,-1.618 0.186,-0.992 0.512,-1.411 1.241,-1.594 0.68,-0.171 0.992,-0.528 0.996,-1.141 0.008,-1.177 0.402,-1.724 1.485,-2.062 0.611,-0.191 0.862,-0.553 0.8,-1.153 -0.067,-0.645 0.154,-0.909 0.844,-1.008 0.77,-0.11 0.892,-0.305 0.693,-1.101 -0.161,-0.642 -0.072,-0.97 0.264,-0.974 1.146,-0.014 1.692,-0.691 1.116,-1.384 -0.467,-0.563 -0.423,-0.681 0.326,-0.877 0.476,-0.124 0.869,-0.52 0.872,-0.88 0.005,-0.568 0.057,-0.575 0.394,-0.053 0.316,0.489 0.389,0.44 0.394,-0.267 0.003,-0.476 0.231,-0.942 0.506,-1.035 0.387,-0.13 0.372,-0.323 -0.066,-0.853 -0.499,-0.605 -0.47,-0.711 0.254,-0.9 0.553,-0.144 0.757,-0.45 0.629,-0.941 -0.127,-0.487 0.086,-0.815 0.646,-0.992 0.469,-0.149 0.837,-0.606 0.837,-1.039 0,-0.425 0.183,-0.773 0.408,-0.773 0.235,0 0.301,-0.423 0.156,-1 -0.185,-0.737 -0.091,-1 0.355,-1 0.409,0 0.538,-0.26 0.397,-0.8 -0.144,-0.552 -0.012,-0.8 0.425,-0.8 0.398,0 0.549,-0.222 0.405,-0.597 -0.129,-0.335 0.041,-0.7 0.387,-0.833 0.339,-0.13 0.519,-0.49 0.4,-0.8 -0.119,-0.31 0.053,-0.666 0.381,-0.792 0.359,-0.138 0.517,-0.539 0.395,-1.004 -0.116,-0.445 0,-0.774 0.273,-0.774 0.898,0 1.71,-1.207 1.511,-2.247 -0.116,-0.608 0.009,-1.094 0.312,-1.21 0.279,-0.107 0.415,-0.543 0.304,-0.969 -0.138,-0.53 0.002,-0.774 0.444,-0.774 0.423,0 0.647,-0.346 0.647,-1 0,-0.55 0.183,-1 0.408,-1 0.235,0 0.301,-0.423 0.156,-1 -0.194,-0.776 -0.097,-1 0.436,-1 0.533,0 0.63,-0.224 0.436,-1 -0.192,-0.763 -0.095,-1 0.406,-1 0.518,0 0.607,-0.256 0.418,-1.2 -0.187,-0.933 -0.098,-1.2 0.4,-1.2 0.498,0 0.587,-0.267 0.4,-1.2 -0.187,-0.933 -0.098,-1.2 0.4,-1.2 0.498,0 0.587,-0.267 0.4,-1.2 -0.182,-0.912 -0.094,-1.2 0.368,-1.2 0.478,0 0.552,-0.299 0.346,-1.4 -0.218,-1.16 -0.145,-1.4 0.426,-1.4 0.571,0 0.644,-0.24 0.426,-1.4 -0.215,-1.147 -0.141,-1.4 0.407,-1.4 0.557,0 0.626,-0.269 0.413,-1.6 -0.203,-1.274 -0.132,-1.6 0.349,-1.6 0.737,0 0.815,-1.63 0.112,-2.333 -0.391,-0.391 -0.308,-0.542 0.4,-0.727 0.945,-0.247 1.304,-2.239 0.493,-2.74 -0.573,-0.354 -0.495,-0.848 0.25,-1.593 0.48,-0.48 0.596,-1.118 0.447,-2.447 -0.139,-1.229 -0.027,-1.973 0.353,-2.353 0.398,-0.398 0.527,-1.421 0.453,-3.594 -0.063,-1.859 0.066,-3.15 0.332,-3.326 0.578,-0.381 0.545,-25.76 -0.034,-26.174 -0.225,-0.162 -0.355,-1.639 -0.296,-3.373 0.073,-2.151 -0.048,-3.181 -0.4,-3.399 -0.321,-0.199 -0.474,-1.061 -0.419,-2.369 0.058,-1.37 -0.109,-2.252 -0.5,-2.643 -0.685,-0.685 -0.745,-1.183 -0.186,-1.529 0.742,-0.459 0.484,-2.918 -0.3,-2.856 -0.441,0.035 -0.641,-0.166 -0.54,-0.544 0.533,-2.003 0.507,-2.8 -0.091,-2.8 -0.844,0 -1.261,-0.768 -0.714,-1.315 0.637,-0.637 0.55,-1.885 -0.131,-1.885 -0.805,0 -1.203,-0.781 -0.669,-1.315 0.653,-0.653 0.542,-1.485 -0.198,-1.485 -0.495,0 -0.583,-0.243 -0.381,-1.048 0.2,-0.796 0.065,-1.188 -0.558,-1.624 -0.643,-0.451 -0.734,-0.737 -0.419,-1.325 0.543,-1.016 0.523,-1.078 -0.429,-1.327 -0.688,-0.18 -0.757,-0.352 -0.407,-1.006 0.331,-0.62 0.285,-0.843 -0.216,-1.035 -0.43,-0.165 -0.576,-0.57 -0.448,-1.24 0.122,-0.637 0.008,-0.995 -0.317,-0.995 -0.32,0 -0.425,-0.313 -0.285,-0.851 0.143,-0.545 -0.009,-0.98 -0.425,-1.212 -0.467,-0.262 -0.581,-0.693 -0.409,-1.55 0.15,-0.753 0.073,-1.187 -0.213,-1.187 -0.247,0 -0.45,-0.251 -0.45,-0.557 0,-0.307 -0.282,-0.666 -0.628,-0.798 -0.417,-0.16 -0.542,-0.51 -0.373,-1.043 0.147,-0.461 0.073,-0.802 -0.172,-0.802 -0.235,0 -0.427,-0.54 -0.427,-1.2 0,-0.66 -0.18,-1.2 -0.4,-1.2 -0.22,0 -0.4,-0.27 -0.4,-0.6 0,-0.33 -0.291,-0.6 -0.647,-0.6 -0.449,0 -0.583,-0.244 -0.437,-0.8 0.139,-0.533 0.012,-0.8 -0.38,-0.8 -0.408,0 -0.512,-0.247 -0.336,-0.8 0.185,-0.583 0.072,-0.8 -0.416,-0.8 -0.413,0 -0.586,-0.217 -0.452,-0.567 0.12,-0.312 -0.06,-0.673 -0.399,-0.803 -0.339,-0.13 -0.519,-0.49 -0.4,-0.8 0.119,-0.31 -0.061,-0.67 -0.4,-0.8 -0.339,-0.13 -0.519,-0.49 -0.4,-0.8 0.119,-0.31 -0.055,-0.668 -0.386,-0.795 -0.394,-0.151 -0.514,-0.509 -0.348,-1.033 0.145,-0.455 0.073,-0.802 -0.164,-0.802 -0.231,0 -0.533,-0.45 -0.671,-1 -0.138,-0.55 -0.522,-1 -0.854,-1 -0.397,0 -0.535,-0.261 -0.403,-0.765 0.139,-0.534 -0.048,-0.831 -0.619,-0.98 -0.707,-0.185 -0.746,-0.304 -0.28,-0.865 0.583,-0.702 0.026,-1.371 -1.151,-1.384 -0.378,-0.004 -0.468,-0.308 -0.295,-0.997 0.206,-0.822 0.078,-1.034 -0.754,-1.243 -0.813,-0.204 -0.958,-0.428 -0.766,-1.191 0.193,-0.769 0.048,-0.987 -0.8,-1.2 -0.842,-0.211 -0.992,-0.433 -0.804,-1.185 0.188,-0.749 0.054,-0.95 -0.703,-1.058 -0.692,-0.098 -0.937,-0.390999 -0.943,-1.127999 -0.005,-0.667 -0.266,-1.046 -0.79,-1.147 -0.953,-0.183 -1.784,-1.239 -1.519,-1.93 0.219,-0.571 -0.469,-1.37 -1.787,-2.075 -0.487,-0.261 -1.007,-0.965 -1.155,-1.564 -0.277,-1.121 -1.527,-2.478 -2.302,-2.501 -0.692,-0.019 -1.933,-1.965 -1.678,-2.63 0.222,-0.578 -1.34,-2.23 -8.752,-9.257 -1.451,-1.375 -2.828,-2.5 -3.061,-2.5 -0.721,0 -2.748,-1.347 -2.748,-1.825 0,-0.249 -0.36,-0.868 -0.8,-1.375 -0.44,-0.507 -0.8,-1.096 -0.8,-1.308 0,-0.212 -0.381,-0.286 -0.846,-0.164 -1.08,0.282 -2.354,-0.504 -2.354,-1.453 0,-1.045 -0.959,-1.863 -1.896,-1.618 -0.61,0.16 -0.862,-0.035 -1.058,-0.818 -0.163,-0.646 -0.516,-1.006 -0.952,-0.97 -1.599,0.133 -2.04,-0.111 -2.294,-1.269 -0.284,-1.294 -0.579,-1.461 -1.301,-0.739 -0.348,0.348 -0.58,0.199 -0.947,-0.606 -0.349,-0.767 -0.69,-1.002 -1.216,-0.835 -0.52,0.165 -0.863,-0.061 -1.193,-0.786 -0.365,-0.801 -0.665,-0.968 -1.404,-0.783 -0.817,0.205 -0.943,0.087 -0.971,-0.908 -0.017,-0.628 -0.122,-0.918 -0.233,-0.643 -0.302,0.748 -0.848,0.604 -1.135,-0.301 -0.195,-0.614 -0.481,-0.744 -1.223,-0.557 -0.67,0.168 -1.043,0.052 -1.206,-0.374 -0.131,-0.34 -0.492,-0.52 -0.804,-0.4 -0.344,0.132 -0.567,-0.035 -0.567,-0.425 0,-0.354 -0.23,-0.643 -0.512,-0.643 -0.281,0 -0.771,-0.36 -1.088,-0.8 -0.317,-0.44 -0.897,-0.8 -1.288,-0.8 -0.392,0 -0.712,-0.18 -0.712,-0.4 0,-0.22 -0.345,-0.4 -0.767,-0.4 -0.421,0 -0.842,-0.225 -0.935,-0.5 -0.13,-0.387 -0.323,-0.372 -0.853,0.066 -0.607,0.501 -0.711,0.466 -0.912,-0.3 -0.124,-0.476 -0.475,-0.866 -0.78,-0.866 -0.304,0 -0.553,-0.202 -0.553,-0.45 0,-0.287 -0.436,-0.363 -1.2,-0.21 -0.918,0.184 -1.2,0.095 -1.2,-0.377 0,-0.435 -0.236,-0.542 -0.8,-0.363 -0.571,0.181 -0.8,0.072 -0.8,-0.381 0,-0.477 -0.248,-0.572 -1,-0.383 -0.777,0.195 -1,0.097 -1,-0.439 0,-0.493 -0.228,-0.631 -0.8,-0.481 -0.873,0.228 -1.107,-0.306 -0.3,-0.683 0.275,-0.129 -0.175,-0.136 -1,-0.015 -1.217,0.177 -1.5,0.093 -1.5,-0.443 0,-0.506 -0.235,-0.603 -1,-0.411 -0.738,0.185 -1,0.092 -1,-0.356 0,-0.738 -0.464,-0.782 -1.147,-0.108 -0.406,0.401 -0.615,0.354 -1.051,-0.236 -0.369,-0.501 -0.808,-0.652 -1.373,-0.473 -0.61,0.193 -0.829,0.089 -0.829,-0.396 0,-0.524 -0.246,-0.605 -1.2,-0.395 -0.957,0.21 -1.2,0.129 -1.2,-0.4 0,-0.529 -0.243,-0.61 -1.2,-0.4 -0.917,0.201 -1.261,0.105 -1.458,-0.407 -0.191,-0.497 -0.556,-0.61 -1.415,-0.438 -0.82,0.164 -1.225,0.055 -1.389,-0.371 -0.172,-0.448 -0.578,-0.538 -1.584,-0.349 -1.118,0.21 -1.354,0.132 -1.354,-0.443 0,-0.583 -0.263,-0.662 -1.6,-0.483 -1.258,0.169 -1.6,0.085 -1.6,-0.392 0,-0.492 -0.337,-0.557 -1.769,-0.343 -1.432,0.215 -1.842,0.136 -2.15,-0.415 -0.31,-0.554 -0.731,-0.633 -2.246,-0.426 -1.502,0.206 -1.912,0.131 -2.111,-0.388 -0.207,-0.537 -0.665,-0.6 -2.794,-0.382 -2.131,0.218 -2.586,0.156 -2.793,-0.384 -0.215,-0.559 -0.75,-0.608 -3.987,-0.365 -3.241,0.243 -3.772,0.194 -3.987,-0.367 -0.368,-0.957 -18.348,-0.985 -18.715,-0.028 m 3.352,6.181 c 0,0.578 11.408,0.527 12.34,-0.055 1.047,-0.654 4.601,-0.089 4.304,0.684 -0.263,0.685 5.136,0.851 5.556,0.171 0.369,-0.597 1.259,-0.484 1.996,0.253 0.509,0.509 1.134,0.604 2.825,0.43 1.722,-0.178 2.245,-0.094 2.524,0.404 0.271,0.485 0.782,0.58 2.233,0.417 1.386,-0.157 1.938,-0.066 2.095,0.342 0.131,0.341 0.812,0.554 1.77,0.554 0.892,0 1.557,0.193 1.557,0.453 0,0.297 0.55,0.379 1.601,0.238 1.193,-0.16 1.69,-0.057 1.948,0.404 0.233,0.415 0.702,0.55 1.43,0.411 0.72,-0.138 1.158,-0.015 1.303,0.364 0.152,0.396 0.563,0.496 1.335,0.326 0.811,-0.178 1.219,-0.06 1.493,0.43 0.208,0.371 0.853,0.674 1.434,0.674 0.581,0 1.056,0.158 1.056,0.35 0,0.192 0.54,0.35 1.2,0.35 0.66,0 1.2,0.183 1.2,0.408 0,0.235 0.423,0.301 1,0.156 0.776,-0.194 1,-0.097 1,0.436 0,0.533 0.224,0.63 1,0.436 0.738,-0.185 1,-0.092 1,0.356 0,0.409 0.393,0.608 1.2,0.608 0.66,0 1.2,0.163 1.2,0.363 0,0.199 0.36,0.268 0.8,0.153 0.556,-0.146 0.8,-0.012 0.8,0.437 0,0.356 0.27,0.647 0.6,0.647 0.33,0 0.6,0.203 0.6,0.45 0,0.287 0.436,0.363 1.2,0.21 0.905,-0.181 1.2,-0.093 1.2,0.358 0,0.437 0.268,0.53 1,0.346 0.778,-0.195 1,-0.097 1,0.442 0,0.58 0.101,0.609 0.62,0.177 0.524,-0.435 0.656,-0.379 0.849,0.36 0.18,0.686 0.346,0.776 0.775,0.42 0.418,-0.346 0.601,-0.31 0.779,0.153 0.128,0.333 0.598,0.701 1.045,0.818 0.447,0.117 0.704,0.387 0.572,0.602 -0.14,0.225 0.096,0.301 0.559,0.18 0.542,-0.142 0.801,-0.013 0.801,0.4 0,0.412 0.259,0.541 0.8,0.4 0.571,-0.15 0.8,-0.012 0.8,0.48 0,0.413 0.216,0.607 0.538,0.483 0.296,-0.113 0.782,0.132 1.079,0.545 0.372,0.516 0.831,0.679 1.462,0.52 0.675,-0.169 0.921,-0.059 0.921,0.413 0,0.369 0.329,0.643 0.773,0.643 0.427,0 0.889,0.366 1.032,0.817 0.185,0.582 0.479,0.747 1.024,0.574 0.561,-0.178 0.888,0.028 1.228,0.775 0.365,0.801 0.665,0.968 1.404,0.783 0.808,-0.203 0.939,-0.088 0.939,0.823 0,0.916 0.148,1.043 1.1,0.943 0.891,-0.093 1.125,0.063 1.233,0.823 0.104,0.738 0.315,0.891 0.985,0.715 1.029,-0.269 2.282,0.75 2.282,1.856 0,0.567 0.205,0.731 0.743,0.59 0.909,-0.238 2.057,0.354 2.057,1.06 0,0.846 1.457,2.271 2.079,2.032 0.691,-0.265 2.721,1.24 2.721,2.018 0,0.303 0.225,0.695 0.501,0.871 0.275,0.176 1.073,0.987 1.772,1.803 0.77,0.897 1.349,1.292 1.468,1 0.108,-0.266 0.213,-0.033 0.234,0.517 0.027,0.718 0.134,0.847 0.38,0.459 0.549,-0.866 4.649,2.914 5.117,4.717 0.299,1.155 2.66,3.624 3.464,3.624 0.573,0 3.064,2.654 3.064,3.264 0,0.185 -0.193,0.336 -0.429,0.336 -0.235,0 -0.158,0.27 0.172,0.6 0.33,0.33 0.953,0.6 1.386,0.6 0.834,0 1.334,0.809 1.437,2.323 0.064,0.95 0.82,1.659999 1.777,1.670999 0.374,0.004 0.468,0.307 0.302,0.968 -0.201,0.804 -0.045,1.03 0.957,1.379 1.157,0.403 1.357,0.744 1.231,2.089 -0.033,0.346 0.42,0.848 1.005,1.115 0.586,0.267 0.96,0.591 0.831,0.72 -0.129,0.129 0.162,0.584 0.648,1.01 0.614,0.54 0.731,0.84 0.383,0.984 -0.795,0.33 -0.581,0.874 0.4,1.013 0.712,0.101 0.877,0.352 0.79,1.198 -0.081,0.78 0.108,1.139 0.7,1.327 0.445,0.141 0.81,0.496 0.81,0.787 0,0.292 0.289,0.641 0.642,0.777 0.366,0.14 0.543,0.502 0.412,0.842 -0.143,0.374 0.007,0.597 0.402,0.597 0.473,0 0.568,0.25 0.38,1 -0.145,0.577 -0.079,1 0.156,1 0.225,0 0.408,0.36 0.408,0.8 0,0.44 0.18,0.8 0.4,0.8 0.22,0 0.4,0.36 0.4,0.8 0,0.44 0.18,0.8 0.4,0.8 0.22,0 0.4,0.36 0.4,0.8 0,0.44 0.18,0.8 0.4,0.8 0.22,0 0.4,0.317 0.4,0.705 0,0.388 0.453,1.046 1.007,1.462 0.682,0.512 0.932,0.995 0.773,1.495 -0.161,0.508 -0.034,0.738 0.407,0.738 0.517,0 0.558,0.155 0.213,0.8 -0.343,0.64 -0.304,0.8 0.194,0.8 0.453,0 0.557,0.255 0.384,0.946 -0.189,0.753 -0.049,0.994 0.685,1.186 0.732,0.192 0.821,0.344 0.43,0.735 -0.668,0.668 -0.621,1.133 0.115,1.133 0.439,0 0.541,0.262 0.37,0.946 -0.189,0.753 -0.049,0.994 0.685,1.186 0.732,0.192 0.821,0.344 0.43,0.735 -0.665,0.665 -0.627,1.559 0.055,1.297 0.633,-0.242 1.209,0.891 0.635,1.247 -0.581,0.359 -0.458,0.989 0.193,0.989 0.805,0 1.203,0.781 0.669,1.315 -0.633,0.633 -0.551,1.085 0.2,1.085 0.519,0 0.593,0.271 0.381,1.4 -0.204,1.089 -0.13,1.4 0.331,1.4 0.454,0 0.54,0.327 0.366,1.4 -0.183,1.124 -0.098,1.4 0.429,1.4 0.543,0 0.613,0.279 0.402,1.6 -0.211,1.32 -0.142,1.6 0.4,1.6 0.541,0 0.611,0.28 0.4,1.6 -0.216,1.346 -0.147,1.6 0.432,1.6 0.597,0 0.652,0.268 0.414,2 -0.235,1.71 -0.178,2 0.391,2 0.572,0 0.629,0.303 0.399,2.142 -0.223,1.785 -0.157,2.185 0.396,2.397 0.57,0.219 0.624,0.655 0.383,3.1 -0.208,2.105 -0.15,2.926 0.223,3.156 0.732,0.452 0.732,28.758 0,29.21 -0.373,0.23 -0.431,1.05 -0.224,3.153 0.248,2.517 0.203,2.842 -0.399,2.842 -0.588,0 -0.644,0.296 -0.419,2.211 0.21,1.791 0.142,2.256 -0.36,2.448 -0.462,0.177 -0.59,0.711 -0.505,2.09 0.088,1.413 -0.017,1.823 -0.442,1.732 -0.439,-0.094 -0.504,0.265 -0.308,1.7 0.207,1.508 0.14,1.819 -0.394,1.819 -0.526,0 -0.597,0.29 -0.387,1.6 0.203,1.274 0.132,1.6 -0.349,1.6 -0.685,0 -0.755,0.344 -0.236,1.164 0.456,0.719 0.112,1.636 -0.613,1.636 -0.385,0 -0.527,0.405 -0.458,1.3 0.072,0.911 -0.058,1.267 -0.432,1.189 -0.397,-0.083 -0.466,0.2 -0.269,1.1 0.213,0.968 0.134,1.211 -0.397,1.211 -0.529,0 -0.61,0.243 -0.4,1.2 0.206,0.938 0.126,1.2 -0.368,1.2 -0.701,0 -0.863,1.01 -0.225,1.404 0.61,0.378 0.004,1.086 -0.699,0.816 -0.496,-0.19 -0.564,0 -0.361,1.015 0.201,1.005 0.133,1.205 -0.349,1.02 -0.71,-0.273 -0.744,-0.075 -0.168,1.001 0.36,0.672 0.293,0.839 -0.411,1.023 -0.606,0.158 -0.775,0.431 -0.603,0.971 0.136,0.43 0.046,0.75 -0.213,0.75 -0.247,0 -0.339,-0.18 -0.203,-0.4 0.136,-0.22 0.037,-0.4 -0.221,-0.4 -0.318,0 -0.384,0.448 -0.205,1.4 0.172,0.919 0.109,1.4 -0.183,1.4 -0.263,0 -0.341,0.327 -0.191,0.8 0.183,0.577 0.072,0.8 -0.4,0.8 -0.472,0 -0.583,0.223 -0.4,0.8 0.176,0.553 0.072,0.8 -0.336,0.8 -0.392,0 -0.519,0.267 -0.38,0.8 0.142,0.541 0.012,0.8 -0.4,0.8 -0.412,0 -0.541,0.259 -0.4,0.8 0.142,0.541 0.012,0.8 -0.4,0.8 -0.412,0 -0.541,0.259 -0.4,0.8 0.142,0.541 0.012,0.8 -0.4,0.8 -0.412,0 -0.541,0.259 -0.4,0.8 0.144,0.552 0.012,0.8 -0.425,0.8 -0.398,0 -0.549,0.222 -0.405,0.597 0.133,0.345 -0.051,0.704 -0.435,0.851 -0.366,0.14 -0.577,0.486 -0.469,0.767 0.115,0.298 -0.205,0.612 -0.766,0.753 -0.824,0.207 -0.928,0.413 -0.723,1.437 0.185,0.927 0.096,1.195 -0.398,1.195 -0.377,0 -0.552,0.225 -0.427,0.551 0.135,0.349 -0.164,0.645 -0.818,0.809 -0.84,0.211 -0.986,0.43 -0.793,1.198 0.193,0.768 0.048,0.987 -0.794,1.199 -0.985,0.247 -1.467,1.043 -0.631,1.043 0.877,0 0.328,0.867 -0.798,1.259 -0.979,0.341 -1.156,0.585 -0.969,1.328 0.185,0.74 0.028,0.961 -0.839,1.179 -0.742,0.186 -0.995,0.454 -0.832,0.88 0.316,0.822 -0.495,2.265 -1.134,2.02 -0.281,-0.108 -0.795,0.137 -1.144,0.544 -0.35,0.409 -0.455,0.8 -0.236,0.873 0.543,0.181 -0.011,1.517 -0.63,1.517 -0.713,0 -2.218,1.394 -2.218,2.054 0,0.865 -1.96,3.546 -2.592,3.546 -0.774,0 -5.408,4.608 -5.408,5.378 0,0.349 -0.341,0.622 -0.777,0.622 -0.428,0 -1.058,0.4 -1.4,0.889 -0.343,0.489 -0.623,0.736 -0.623,0.55 0,-0.625 -2.884,2.745 -3.427,4.002 -0.587,1.362 -2.357,2.74 -3.006,2.339 -0.47,-0.291 -1.967,1.282 -1.967,2.067 0,0.644 -1.211,1.312 -1.919,1.059 -0.59,-0.211 -2.081,1.338 -2.081,2.163 0,0.383 -0.299,0.471 -1,0.295 -0.826,-0.207 -1,-0.106 -1,0.579 0,0.899 -1.073,1.657 -2.347,1.657 -0.439,0 -0.909,0.345 -1.043,0.768 -0.166,0.523 -0.78,0.86 -1.927,1.059 -0.926,0.16 -1.458,0.37 -1.183,0.465 0.275,0.096 0.5,0.359 0.5,0.584 0,0.225 -0.27,0.306 -0.6,0.179 -0.358,-0.137 -0.6,-0.003 -0.6,0.334 0,0.802 -0.829,1.211 -1.208,0.597 -0.421,-0.681 -1.543,0.36 -1.271,1.178 0.134,0.4 -0.055,0.494 -0.667,0.334 -0.594,-0.155 -0.854,-0.039 -0.854,0.383 0,0.446 -0.263,0.54 -1,0.355 -0.577,-0.145 -1,-0.079 -1,0.156 0,0.225 -0.348,0.408 -0.773,0.408 -0.425,0 -0.887,0.36 -1.027,0.8 -0.14,0.44 -0.587,0.8 -0.994,0.8 -0.406,0 -0.831,0.225 -0.942,0.5 -0.155,0.38 -0.3,0.361 -0.606,-0.079 -0.322,-0.463 -0.46,-0.351 -0.69,0.563 -0.264,1.051 -0.328,1.086 -0.807,0.43 -0.485,-0.663 -0.538,-0.645 -0.766,0.264 -0.208,0.827 -0.433,0.948 -1.477,0.795 -0.851,-0.125 -1.145,-0.04 -0.951,0.273 0.174,0.282 -0.031,0.454 -0.543,0.454 -0.492,0 -0.824,0.26 -0.824,0.647 0,0.449 -0.244,0.583 -0.8,0.437 -0.541,-0.141 -0.8,-0.012 -0.8,0.4 0,0.406 -0.259,0.542 -0.774,0.407 -0.426,-0.111 -0.862,0.025 -0.969,0.304 -0.118,0.308 -0.604,0.428 -1.242,0.306 -0.75,-0.144 -1.015,-0.044 -0.932,0.349 0.076,0.358 -0.197,0.517 -0.783,0.455 -0.495,-0.053 -0.9,0.082 -0.9,0.3 0,0.217 -0.54,0.395 -1.2,0.395 -0.747,0 -1.162,0.189 -1.1,0.5 0.064,0.319 -0.282,0.461 -0.954,0.392 -0.669,-0.068 -1.144,0.125 -1.298,0.528 -0.169,0.439 -0.507,0.552 -1.096,0.365 -0.535,-0.17 -0.976,-0.07 -1.186,0.27 -0.196,0.317 -0.839,0.487 -1.56,0.411 -0.847,-0.089 -1.193,0.033 -1.116,0.393 0.06,0.287 -0.295,0.584 -0.79,0.659 -0.495,0.076 -0.9,-0.055 -0.9,-0.29 0,-0.235 -0.27,-0.428 -0.6,-0.428 -0.333,0 -0.6,0.356 -0.6,0.8 0,0.895 -0.414,1.026 -1.093,0.347 -0.512,-0.512 -1.879,-0.149 -1.535,0.408 0.328,0.531 -1.035,0.942 -1.519,0.458 -0.688,-0.688 -1.746,-0.464 -1.977,0.417 -0.181,0.693 -0.349,0.759 -1.02,0.4 -1.128,-0.604 -2.456,-0.535 -2.456,0.127 0,0.678 -1.082,1.158 -1.411,0.626 -0.383,-0.621 -2.989,-0.469 -2.989,0.174 0,0.729 -1.217,1.186 -1.747,0.656 -0.645,-0.645 -3.853,-0.526 -3.853,0.144 0,0.708 -1.977,1.226 -2.538,0.665 -0.62,-0.62 -5.889,-0.556 -5.762,0.069 0.139,0.686 -7.219,1.352 -8.194,0.743 -0.878,-0.548 -4.013,-0.567 -4.552,-0.028 -0.509,0.509 -5.75,-0.035 -5.844,-0.606 -0.036,-0.22 -0.39,-0.749 -0.788,-1.175 -0.803,-0.863 -0.928,-1.65 -0.322,-2.025 0.697,-0.43 0.433,-1.298 -0.466,-1.533 -0.731,-0.191 -0.786,-0.323 -0.351,-0.847 0.429,-0.516 0.408,-0.62 -0.124,-0.62 -0.681,0 -1.997,-2.128 -1.576,-2.549 0.138,-0.138 0.67,-0.251 1.184,-0.251 0.666,0 0.933,-0.229 0.933,-0.8 0,-0.44 0.18,-0.8 0.4,-0.8 0.521,0 0.521,-2.278 0,-2.6 -0.526,-0.325 -0.526,-8.475 0,-8.8 0.675,-0.417 0.475,-2.2 -0.247,-2.2 -0.449,0 -0.583,-0.244 -0.437,-0.8 0.134,-0.513 0.012,-0.8 -0.339,-0.8 -0.553,0 -1.377,-1.182 -1.377,-1.974 0,-0.234 0.225,-0.429 0.5,-0.432 1.102,-0.014 1.68,-0.695 1.14,-1.346 -0.578,-0.696 -0.275,-1.448 0.584,-1.448 0.651,0 0.79,-1.421 0.176,-1.8 -0.232,-0.143 -0.4,-2.33 -0.4,-5.2 0,-2.87 0.168,-5.057 0.4,-5.2 0.767,-0.474 0.443,-2.095 -0.466,-2.333 -0.72,-0.189 -0.782,-0.328 -0.365,-0.83 0.579,-0.697 -0.846,-2.439 -2.21,-2.702 -1.195,-0.23 -0.668,-0.938 0.599,-0.805 0.739,0.078 1.22,-0.097 1.375,-0.498 0.175,-0.459 0.563,-0.553 1.502,-0.365 0.957,0.191 1.359,0.087 1.646,-0.427 0.306,-0.545 0.721,-0.629 2.093,-0.423 1.371,0.206 1.762,0.127 1.962,-0.395 0.204,-0.531 0.61,-0.604 2.198,-0.393 1.584,0.21 1.993,0.137 2.196,-0.39 0.204,-0.533 0.632,-0.603 2.398,-0.396 1.783,0.21 2.193,0.14 2.404,-0.41 0.209,-0.544 0.603,-0.616 2.202,-0.404 1.598,0.212 1.992,0.14 2.201,-0.404 0.199,-0.518 0.559,-0.606 1.646,-0.402 0.987,0.185 1.568,0.085 1.997,-0.344 0.426,-0.426 1.081,-0.541 2.214,-0.389 1.043,0.14 1.608,0.059 1.608,-0.23 0,-0.297 0.599,-0.363 1.809,-0.197 1.511,0.207 1.77,0.149 1.577,-0.356 -0.282,-0.735 0.969,-1.312 1.561,-0.72 0.623,0.623 1.853,0.496 1.853,-0.192 0,-0.481 0.326,-0.552 1.6,-0.349 1.342,0.215 1.6,0.146 1.6,-0.427 0,-0.55 0.232,-0.632 1.197,-0.42 1.197,0.263 2.403,-0.418 2.403,-1.358 0,-0.229 0.26,-0.316 0.579,-0.194 0.902,0.346 3.417,-2.376 3.147,-3.407 -0.152,-0.582 -0.032,-0.84 0.39,-0.84 0.412,0 0.541,-0.259 0.4,-0.8 -0.14,-0.534 -0.012,-0.8 0.382,-0.8 0.414,0 0.534,-0.298 0.401,-0.995 -0.129,-0.673 0.018,-1.075 0.455,-1.243 0.943,-0.362 0.943,-4.962 -0.001,-4.962 -0.47,0 -0.595,-0.267 -0.459,-0.98 0.114,-0.594 -0.023,-1.061 -0.347,-1.185 -0.293,-0.113 -0.427,-0.482 -0.297,-0.82 0.141,-0.368 0.017,-0.615 -0.311,-0.615 -0.772,0 -1.577,-1.437 -1.263,-2.254 0.203,-0.528 0.106,-0.625 -0.422,-0.422 -0.796,0.305 -2.254,-0.484 -2.254,-1.22 0,-0.277 -0.27,-0.504 -0.6,-0.504 -0.33,0 -0.6,-0.192 -0.6,-0.427 0,-0.245 -0.341,-0.319 -0.8,-0.173 -0.556,0.177 -0.8,0.072 -0.8,-0.343 0,-0.496 -0.525,-0.563 -3.1,-0.391 -3.428,0.228 -3.295,0.231 -5.396,-0.11 -1.175,-0.19 -1.551,-0.1 -1.751,0.423 -0.214,0.556 -0.61,0.621 -2.404,0.397 -1.799,-0.224 -2.149,-0.166 -2.149,0.359 0,0.518 -0.35,0.586 -2,0.39 -1.722,-0.203 -2,-0.14 -2,0.457 0,0.602 -0.264,0.657 -2,0.418 -1.726,-0.237 -2,-0.182 -2,0.408 0,0.58 -0.264,0.643 -1.751,0.42 -1.418,-0.212 -1.798,-0.137 -2.004,0.4 -0.207,0.539 -0.586,0.612 -2.05,0.392 -1.455,-0.218 -1.795,-0.154 -1.795,0.337 0,0.491 -0.376,0.561 -2,0.368 -1.683,-0.199 -2,-0.132 -2,0.419 0,0.361 -0.27,0.656 -0.6,0.656 -0.33,0 -0.6,-0.155 -0.6,-0.345 0,-0.522 -2.155,-0.014 -2.514,0.594 -0.222,0.375 -0.823,0.462 -2.04,0.295 -1.333,-0.182 -1.778,-0.097 -1.96,0.375 -0.179,0.468 -0.629,0.559 -1.911,0.387 -1.319,-0.177 -1.758,-0.08 -2.057,0.454 -0.304,0.545 -0.72,0.629 -2.092,0.423 -1.371,-0.206 -1.762,-0.127 -1.962,0.395 -0.204,0.531 -0.61,0.604 -2.198,0.393 -1.608,-0.213 -1.992,-0.141 -2.205,0.414 -0.216,0.564 -0.605,0.63 -2.402,0.405 -1.776,-0.222 -2.187,-0.156 -2.394,0.386 -0.206,0.536 -0.609,0.606 -2.238,0.39 -1.553,-0.206 -2.128,-0.122 -2.635,0.385 -0.734,0.733 -1.624,0.845 -1.992,0.249 -0.136,-0.22 -1.182,-0.397 -2.324,-0.394 -1.503,0.005 -1.911,0.115 -1.476,0.4 0.533,0.35 0.533,0.438 0,0.788 -0.778,0.511 -1.886,0.514 -2.2,0.006 -0.138,-0.224 -1.868,-0.386 -3.924,-0.368 -2.022,0.017 -3.451,0.122 -3.176,0.233 0.982,0.396 0.477,0.935 -0.876,0.935 -1.512,0 -2.247,-0.617 -1.129,-0.948 0.388,-0.115 -0.69,-0.17 -2.395,-0.123 -2.136,0.06 -3.1,-0.058 -3.1,-0.378 0,-0.544 -1.689,-1.045 -2.487,-0.739 -0.751,0.288 -2.476,-1.609 -2.176,-2.392 0.153,-0.399 0.013,-0.62 -0.393,-0.62 -0.473,0 -0.568,-0.25 -0.38,-1 0.172,-0.684 0.086,-1 -0.271,-1 -0.412,0 -0.488,-1.114 -0.359,-5.257 0.146,-4.681 0.088,-5.299 -0.531,-5.646 -0.59,-0.329 -0.655,-0.748 -0.43,-2.743 0.227,-1.999 0.171,-2.354 -0.371,-2.354 -0.513,0 -0.587,-0.275 -0.376,-1.4 0.173,-0.918 0.11,-1.4 -0.181,-1.4 -0.245,0 -0.445,-0.357 -0.445,-0.792 0,-0.519 -0.357,-0.882 -1.033,-1.052 -0.782,-0.196 -0.983,-0.451 -0.828,-1.046 0.26,-0.994 -3.006,-4.413 -3.891,-4.073 -0.323,0.124 -0.967,-0.156 -1.432,-0.621 -0.465,-0.465 -1.019,-0.738 -1.231,-0.607 -0.351,0.217 -0.559,-0.333 -0.427,-1.126 0.03,-0.175 -0.309,-0.123 -0.752,0.114 -0.645,0.345 -0.806,0.309 -0.806,-0.183 0,-0.416 -0.388,-0.614 -1.2,-0.614 -0.66,0 -1.2,-0.14 -1.2,-0.311 0,-0.172 -2.07,-0.307 -4.6,-0.3 -3.479,0.008 -4.6,0.136 -4.6,0.526 0,0.322 -0.407,0.472 -1.086,0.4 -0.813,-0.086 -1.126,0.084 -1.246,0.675 -0.196,0.96 -1.205,1.78 -2.211,1.797 -0.594,0.01 -0.693,0.217 -0.491,1.022 0.178,0.707 0.071,1.079 -0.356,1.243 -0.336,0.128 -0.610004,0.664 -0.610004,1.191 0,0.526 -0.18,0.957 -0.4,0.957 -0.615,0 -0.512,5.472 0.108,5.709 0.704004,0.27 0.597004,13.055 -0.112,13.494 -0.312,0.193 -0.385,0.736 -0.207,1.547 0.221,1.008 0.146,1.25 -0.389,1.25 -0.529,0 -0.61,0.243 -0.4,1.2 0.212,0.963 0.13,1.2 -0.412,1.2 -0.522,0 -0.617,0.229 -0.422,1.009 0.172,0.683 0.071,1.079 -0.312,1.226 -0.33,0.126 -0.481,0.539 -0.363,0.991 0.142,0.544 -0.002,0.774 -0.488,0.774 -0.536,0 -0.634,0.223 -0.439,1 0.177,0.705 0.088,1 -0.301,1 -0.373,0 -0.49,0.324 -0.361,1 0.144,0.754 0.022,1 -0.499,1 -0.536,0 -0.634,0.223 -0.439,1 0.177,0.705 0.088,1 -0.301,1 -0.373,0 -0.49,0.324 -0.361,1 0.141,0.737 0.019,1 -0.463,1 -0.498,0 -0.594,0.239 -0.403,1 0.193,0.771 0.096,1 -0.424,1 -0.55,0 -0.624,0.235 -0.399,1.26 0.239,1.089 0.183,1.224 -0.419,0.993 -0.595,-0.228 -0.662,-0.091 -0.455,0.94 0.181,0.906 0.094,1.207 -0.349,1.207 -0.324,0 -0.59,0.255 -0.59,0.567 0,0.311 -0.225,0.657 -0.5,0.768 -0.299,0.121 -0.218,0.215 0.2,0.233 0.863,0.039 0.941,0.832 0.082,0.832 -0.485,0 -0.564,0.29 -0.366,1.344 0.197,1.05 0.103,1.402 -0.43,1.606 -0.556,0.213 -0.646,0.076 -0.489,-0.744 0.129,-0.676 0.014,-1.006 -0.352,-1.006 -0.3,0 -0.545,-0.18 -0.545,-0.4 0,-0.22 -0.366,-0.4 -0.813,-0.4 -0.952,0 -1.53,-1.141 -0.805,-1.589 0.563,-0.348 -0.938,-1.611 -1.914,-1.611 -0.391,0 -0.481,-0.293 -0.306,-0.991 0.205,-0.815 0.077,-1.034 -0.719,-1.234 -0.532,-0.133 -1.058,-0.588 -1.168,-1.009 -0.11,-0.422 -0.037,-0.666 0.162,-0.543 0.2,0.123 0.363,0.037 0.363,-0.192 0,-0.229 -0.464,-0.532 -1.031,-0.674 -0.842,-0.212 -0.987,-0.431 -0.794,-1.199 0.193,-0.769 0.047,-0.987 -0.8,-1.2 -0.848,-0.213 -0.993,-0.431 -0.8,-1.2 0.193,-0.768 0.047,-0.987 -0.793,-1.198 -0.618,-0.155 -0.95,-0.466 -0.831,-0.776 0.109,-0.285 -0.065,-0.619 -0.386,-0.742 -0.395,-0.152 -0.505,-0.54 -0.341,-1.196 0.189,-0.753 0.057,-1.03 -0.59,-1.235 -0.466,-0.148 -0.834,-0.606 -0.834,-1.038 0,-0.425 -0.264,-0.773 -0.587,-0.773 -0.334,0 -0.497,-0.237 -0.377,-0.548 0.115,-0.302 -0.067,-0.655 -0.406,-0.785 -0.339,-0.13 -0.519,-0.49 -0.4,-0.8 0.119,-0.31 -0.061,-0.67 -0.4,-0.8 -0.339,-0.13 -0.519,-0.49 -0.4,-0.8 0.119,-0.31 -0.061,-0.67 -0.4,-0.8 -0.339,-0.13 -0.519,-0.49 -0.4,-0.8 0.119,-0.31 -0.061,-0.67 -0.4,-0.8 -0.356,-0.137 -0.517,-0.496 -0.38,-0.852 0.129,-0.338 0.036,-0.615 -0.207,-0.615 -0.244,0 -0.443,-0.45 -0.443,-1 0,-0.55 -0.163,-1 -0.363,-1 -0.199,0 -0.268,-0.36 -0.153,-0.8 0.143,-0.547 0.012,-0.8 -0.414,-0.8 -0.885,0 -1.224,-0.733 -0.655,-1.418 0.391,-0.471 0.351,-0.582 -0.209,-0.582 -0.53,0 -0.637,-0.224 -0.453,-0.954 0.189,-0.756 0.054,-1.003 -0.65,-1.187 -0.705,-0.185 -0.787,-0.335 -0.396,-0.726 0.668,-0.668 0.621,-1.133 -0.115,-1.133 -0.448,0 -0.541,-0.262 -0.356,-1 0.193,-0.771 0.096,-1 -0.424,-1 -0.542,0 -0.624,-0.237 -0.412,-1.2 0.21,-0.957 0.129,-1.2 -0.4,-1.2 -0.529,0 -0.61,-0.243 -0.4,-1.2 0.21,-0.957 0.129,-1.2 -0.4,-1.2 -0.529,0 -0.61,-0.243 -0.4,-1.2 0.205,-0.932 0.125,-1.2 -0.358,-1.2 -0.483,0 -0.566,-0.279 -0.372,-1.25 0.183,-0.915 0.08,-1.346 -0.384,-1.606 -0.467,-0.261 -0.574,-0.721 -0.408,-1.749 0.182,-1.119 0.097,-1.395 -0.43,-1.395 -0.539,0 -0.613,-0.278 -0.411,-1.541 0.195,-1.22 0.107,-1.595 -0.42,-1.797 -0.542,-0.208 -0.618,-0.584 -0.405,-2.002 0.209,-1.396 0.133,-1.795 -0.38,-1.992 -0.529,-0.203 -0.595,-0.639 -0.379,-2.476 0.21,-1.793 0.152,-2.207 -0.296,-2.111 -0.447,0.096 -0.529,-0.481 -0.417,-2.923 0.109,-2.373 0.014,-3.09 -0.436,-3.263 -0.479,-0.184 -0.544,-1.276 -0.386,-6.484 0.133,-4.373 0.054,-6.399 -0.264,-6.717 -0.592,-0.592 -0.587,-2.294 0.007,-2.294 0.339,0 0.4,-1.8 0.231,-6.797 -0.201,-5.934 -0.15,-6.843 0.401,-7.151 0.519,-0.291 0.587,-0.83 0.383,-3.021 -0.207,-2.218 -0.143,-2.707 0.385,-2.91 0.516,-0.198 0.588,-0.643 0.383,-2.382 -0.213,-1.816 -0.152,-2.139 0.403,-2.139 0.545,0 0.622,-0.337 0.463,-2 -0.153,-1.586 -0.07,-2 0.4,-2 0.468,0 0.538,-0.339 0.335,-1.61 -0.203,-1.269 -0.122,-1.662 0.383,-1.856 0.488,-0.187 0.58,-0.566 0.387,-1.595 -0.195,-1.04 -0.103,-1.407 0.404,-1.602 0.48,-0.184 0.597,-0.559 0.432,-1.382 -0.142,-0.711 -0.033,-1.245 0.294,-1.442 0.287,-0.172 0.506,-0.853 0.488,-1.513 -0.021,-0.745 0.152,-1.163 0.456,-1.104 0.339,0.067 0.416,-0.27 0.25,-1.1 -0.186,-0.929 -0.096,-1.196 0.401,-1.196 0.498,0 0.587,-0.267 0.4,-1.2 -0.188,-0.939 -0.099,-1.2 0.41,-1.2 0.774,0 0.837,-0.453 0.157,-1.133 -0.391,-0.391 -0.304,-0.543 0.42,-0.732 0.781,-0.204 0.875,-0.415 0.648,-1.447 -0.22,-1.006 -0.157,-1.167 0.38,-0.961 0.765,0.294 0.846,-0.166 0.152,-0.86 -0.391,-0.391 -0.302,-0.543 0.43,-0.735 0.734,-0.192 0.874,-0.433 0.685,-1.186 -0.173,-0.691 -0.069,-0.946 0.384,-0.946 0.5,0 0.537,-0.159 0.191,-0.806 -0.337,-0.628 -0.301,-0.856 0.16,-1.033 0.326,-0.125 0.495,-0.481 0.376,-0.791 -0.119,-0.31 0.073,-0.674 0.425,-0.809 0.353,-0.136 0.642,-0.587 0.642,-1.004 0,-0.416 0.18,-0.757 0.4,-0.757 0.22,0 0.4,-0.294 0.4,-0.653 0,-0.359 0.388,-0.989 0.861,-1.4 0.509,-0.442 0.648,-0.747 0.339,-0.747 -0.309,0 -0.17,-0.305 0.339,-0.747 0.473,-0.411 0.861,-1.041 0.861,-1.4 0,-0.359 0.183,-0.653 0.408,-0.653 0.235,0 0.301,-0.423 0.156,-1 -0.188,-0.75 -0.093,-1 0.38,-1 0.395,0 0.545,-0.223 0.402,-0.597 -0.133,-0.345 0.051,-0.704 0.435,-0.851 0.366,-0.14 0.577,-0.486 0.469,-0.767 -0.115,-0.3 0.209,-0.613 0.782,-0.757 0.806,-0.203 0.935,-0.42 0.731,-1.233 -0.17,-0.679 -0.061,-1.059 0.35,-1.217 0.328,-0.126 0.703,-0.758 0.832,-1.404 0.134,-0.67 0.492,-1.174 0.832,-1.174 0.343,0 0.508,-0.235 0.387,-0.551 -0.136,-0.352 0.171,-0.646 0.849,-0.816 0.736,-0.185 0.988,-0.453 0.825,-0.879 -0.288,-0.749 0.411,-2.152 1.076,-2.16 1.11,-0.014 1.664,-0.697 1.109,-1.366 -0.455,-0.548 -0.355,-0.693 0.739,-1.075 0.931,-0.324 1.206,-0.622999 1.044,-1.133999 -0.286,-0.901 1.227,-2.819 2.223,-2.819 0.542,0 0.771,-0.278 0.771,-0.938 0,-1.036 1.539,-3.062 2.326,-3.062 0.635,0 3.274,-2.616 3.274,-3.245 0,-0.591 2.618,-3.83 4.144,-5.128 0.629,-0.535 1.425004,-1.253 1.768004,-1.596 0.467,-0.467 0.666,-0.498 0.791,-0.123 0.15,0.451 0.87,-0.196 2.998,-2.693 0.275,-0.322 0.679,-0.942 0.9,-1.378 0.22,-0.436 1.018,-1.154 1.772,-1.594 0.755,-0.441 1.239,-0.586 1.076,-0.322 -0.496,0.803 0.209,0.534 1.004,-0.382 0.411,-0.474 0.747,-1.098 0.747,-1.386 0,-0.702 1.386,-1.41 2.171,-1.109 0.44,0.169 0.629,0.006 0.629,-0.539 0,-1.103 1.255,-2.12 2.282,-1.852 0.67,0.176 0.881,0.023 0.986,-0.715 0.105,-0.741 0.359,-0.923 1.208,-0.866 0.828,0.055 1.105,-0.129 1.201,-0.8 0.089,-0.615 0.374,-0.847 0.967,-0.787 0.56,0.057 0.995,-0.253 1.302,-0.926 0.337,-0.74 0.665,-0.946 1.225,-0.768 0.545,0.173 0.839,0.008 1.024,-0.574 0.143,-0.451 0.605,-0.817 1.032,-0.817 0.445,0 0.773,-0.274 0.773,-0.647 0,-0.467 0.242,-0.583 0.87,-0.419 0.583,0.153 1.103,-0.042 1.579,-0.59 0.389,-0.45 0.898,-0.7 1.13,-0.557 0.231,0.143 0.421,-0.041 0.421,-0.41 0,-0.473 0.235,-0.609 0.8,-0.461 0.541,0.141 0.8,0.012 0.8,-0.4 0,-0.412 0.259,-0.542 0.8,-0.4 0.52,0.136 0.8,0.012 0.8,-0.353 0,-0.31 0.251,-0.563 0.557,-0.563 0.307,0 0.66,-0.267 0.785,-0.593 0.13,-0.338 0.493,-0.492 0.843,-0.357 0.347,0.133 0.615,0.022 0.615,-0.254 0,-0.287 0.32,-0.406 0.774,-0.287 0.46,0.12 0.865,-0.035 0.998,-0.381 0.145,-0.376 0.509,-0.493 1.026,-0.329 0.563,0.179 0.802,0.073 0.802,-0.353 0,-0.443 0.326,-0.567 1.2,-0.456 0.66,0.083 1.2,-0.015 1.2,-0.219 0,-0.204 0.27,-0.371 0.6,-0.371 0.33,0 0.6,-0.291 0.6,-0.647 0,-0.442 0.244,-0.582 0.774,-0.444 0.426,0.111 0.862,-0.025 0.969,-0.304 0.117,-0.305 0.603,-0.428 1.225,-0.309 0.787,0.15 1.032,0.033 1.032,-0.493 0,-0.536 0.223,-0.634 1,-0.439 0.76,0.191 1,0.095 1,-0.4 0,-0.487 0.241,-0.59 0.958,-0.41 0.668,0.167 1.033,0.047 1.204,-0.399 0.174,-0.455 0.534,-0.568 1.242,-0.39 0.573,0.144 0.996,0.077 0.996,-0.157 0,-0.225 0.521,-0.408 1.157,-0.408 0.686,0 1.256,-0.258 1.4,-0.632 0.178,-0.463 0.549,-0.564 1.392,-0.379 0.806,0.177 1.215,0.082 1.369,-0.319 0.145,-0.379 0.583,-0.502 1.303,-0.364 0.728,0.139 1.197,0.004 1.43,-0.411 0.258,-0.461 0.755,-0.564 1.948,-0.404 1.051,0.141 1.601,0.059 1.601,-0.238 0,-0.253 0.632,-0.453 1.429,-0.453 0.785,0 1.682,-0.253 1.991,-0.563 0.381,-0.38 1.078,-0.494 2.15,-0.35 1.133,0.152 1.768,0.032 2.217,-0.417 0.477,-0.477 1.108,-0.574 2.597,-0.397 1.513,0.179 2.118,0.082 2.62,-0.42 0.737,-0.737 1.627,-0.85 1.996,-0.253 0.419,0.677 5.819,0.514 5.557,-0.168 -0.238,-0.62 0.619,-0.886 3.143,-0.978 0.825,-0.029 1.5,0.126 1.5,0.346 m -54,43.005 c 0,0.481 -0.326,0.552 -1.6,0.349 -1.308,-0.209 -1.6,-0.139 -1.6,0.385 0,0.492 -0.266,0.588 -1.142,0.413 -0.808,-0.162 -1.211,-0.051 -1.376,0.378 -0.147,0.384 -0.537,0.529 -1.058,0.392 -0.598,-0.156 -0.824,-0.025 -0.824,0.478 0,0.489 -0.229,0.634 -0.774,0.491 -0.465,-0.122 -0.866,0.036 -1.004,0.395 -0.127,0.331 -0.495,0.495 -0.825,0.368 -0.375,-0.144 -0.597,0.008 -0.597,0.409 0,0.491 -0.268,0.583 -1.174,0.402 -0.994,-0.199 -1.194,-0.099 -1.301,0.65 -0.092,0.641 -0.369,0.86 -1.002,0.794 -0.6,-0.062 -0.962,0.189 -1.153,0.8 -0.337,1.08 -0.885,1.477 -2.05,1.485 -1.726,0.012 -6.52,5.295999 -6.52,7.186999 0,0.89 0.193,1.619 0.429,1.619 0.235,0 0.685,0.257 1,0.571 0.314,0.315 0.571,0.765 0.571,1 0,1.421 2.443,0.315 4.857,-2.199 1.497,-1.559 2.97,-2.717 3.622,-2.848 0.651,-0.13 1.205,-0.566 1.363,-1.072 0.32,-1.024999 0.882,-1.437999 1.97,-1.445999 0.446,-0.003 1.071,-0.366 1.388,-0.806 0.317,-0.44 0.807,-0.8 1.088,-0.8 0.282,0 0.512,-0.18 0.512,-0.4 0,-0.22 0.36,-0.4 0.8,-0.4 0.44,0 0.8,-0.2 0.8,-0.443 0,-0.274 0.384,-0.347 1,-0.193 0.725,0.182 1,0.09 1,-0.333 0,-0.811 0.779,-1.212 1.315,-0.676 0.558,0.558 1.519,0.584 1.385,0.037 -0.064,-0.261 2.231,-0.44 6.4,-0.5 5.262,-0.074 6.5,0.012 6.5,0.453 0,0.405 0.357,0.477 1.4,0.281 1.133,-0.212 1.4,-0.138 1.4,0.388 0,0.514 0.251,0.594 1.2,0.386 0.738,-0.162 1.2,-0.102 1.2,0.156 0,0.23 0.268,0.316 0.597,0.19 0.33,-0.127 0.698,0.037 0.825,0.368 0.138,0.359 0.539,0.517 1.004,0.395 0.525,-0.137 0.774,0.002 0.774,0.432 0,0.398 0.222,0.549 0.597,0.405 0.345,-0.133 0.704,0.051 0.851,0.435 0.14,0.366 0.486,0.577 0.767,0.469 0.302,-0.116 0.616,0.218 0.766,0.815999 0.21,0.838 0.422,0.97 1.236,0.765 0.685,-0.171 0.983,-0.08 0.983,0.3 0,0.849 1.441,2.305 2.052,2.073 0.562,-0.214 2.745,1.407 2.751,2.043 0.007,0.734 4.336,0.582 4.535,-0.16 0.944,-3.532 -0.968,-7.686999 -3.537,-7.686999 -0.551,0 -1.001,-0.152 -1.001,-0.339 0,-0.859 -1.498,-2.013 -2.33,-1.795 -0.628,0.164 -0.87,0.048 -0.87,-0.419 0,-0.356 -0.268,-0.647 -0.597,-0.647 -0.328,0 -0.817,-0.354 -1.087,-0.786 -0.345,-0.552 -0.761,-0.717 -1.403,-0.556 -0.65,0.163 -0.913,0.054 -0.913,-0.377 0,-0.409 -0.26,-0.538 -0.8,-0.397 -0.556,0.146 -0.8,0.012 -0.8,-0.437 0,-0.423 -0.346,-0.647 -1,-0.647 -0.55,0 -1,-0.192 -1,-0.427 0,-0.245 -0.341,-0.319 -0.802,-0.172 -0.54,0.171 -0.883,0.042 -1.051,-0.394 -0.184,-0.48 -0.546,-0.583 -1.398,-0.396 -0.915,0.201 -1.149,0.114 -1.149,-0.43 0,-0.574 -0.258,-0.642 -1.61,-0.426 -1.239,0.198 -1.664,0.118 -1.843,-0.349 -0.347,-0.904 -11.747,-0.906 -11.747,-0.001 m 6.2,5.795 c 0.146,0.236 -0.295,0.397 -1.076,0.394 -1.002,-0.005 -1.178,-0.101 -0.724,-0.394 0.778,-0.503 1.489,-0.503 1.8,0 m 102.798,9.757999 c -0.455,0.637 -4.099,1.126 -4.428,0.594 -0.381,-0.618 -3.262,-0.409 -3.517,0.254 -0.179,0.467 -0.604,0.547 -1.843,0.349 -1.304,-0.208 -1.61,-0.138 -1.61,0.369 0,0.492 -0.3,0.577 -1.4,0.399 -1.153,-0.188 -1.4,-0.104 -1.4,0.471 0,0.53 -0.242,0.653 -1,0.508 -0.676,-0.129 -1,-0.012 -1,0.361 0,0.398 -0.297,0.478 -1.06,0.286 -0.745,-0.187 -0.975,-0.13 -0.776,0.193 0.178,0.287 -0.023,0.458 -0.54,0.458 -0.453,0 -0.824,0.18 -0.824,0.4 0,0.22 -0.251,0.4 -0.557,0.4 -0.307,0 -0.666,0.282 -0.798,0.628 -0.15,0.389 -0.516,0.54 -0.965,0.397 -1.04,-0.33 -3.514,2.187 -3.132,3.185 0.121,0.313 -0.089,0.764 -0.465,1.003 -0.52,0.33 -0.557,0.486 -0.157,0.652 0.289,0.12 0.69,0.65 0.89,1.177 0.2,0.527 0.639,0.958 0.974,0.958 0.336,0 0.61,0.27 0.61,0.6 0,0.33 0.27,0.6 0.6,0.6 0.33,0 0.6,-0.18 0.6,-0.4 0,-0.22 0.36,-0.4 0.8,-0.4 0.44,0 0.8,-0.193 0.8,-0.429 0,-0.664 0.999,-1.505 2.123,-1.787 0.56,-0.141 1.115,-0.507 1.233,-0.813 0.118,-0.307 0.467,-0.46 0.777,-0.341 0.31,0.119 0.67,-0.061 0.8,-0.4 0.141,-0.366 0.494,-0.518 0.871,-0.373 0.376,0.144 0.86,-0.062 1.188,-0.507 0.444,-0.601 0.655,-0.651 1.061,-0.25 0.579,0.571 1.305,0.679 0.975,0.145 -0.385,-0.623 0.937,-1.44 1.469,-0.908 0.751,0.751 1.792,0.531 2.043,-0.43 0.185,-0.708 0.336,-0.791 0.727,-0.4 0.701,0.701 4.333,0.655 4.333,-0.055 0,-0.699 2.135,-1.056 6,-1 3.599,0.051 5.436,0.422 5.3,1.07 -0.118,0.564 3.784,0.666 4.644,0.121 0.778,-0.493 2.145,-0.052 1.891,0.61 -0.255,0.664 2.172,0.78 2.818,0.134 0.53,-0.53 1.747,-0.073 1.747,0.656 0,0.695 1.659,0.736 2.347,0.057 0.406,-0.401 0.615,-0.353 1.052,0.238 0.41,0.555 0.837,0.674 1.723,0.479 0.817,-0.179 1.373,-0.064 1.812,0.374 0.417,0.418 0.977,0.546 1.646,0.378 0.726,-0.182 1.082,-0.072 1.259,0.389 0.273,0.71 2.961,0.93 2.961,0.242 0,-0.22 0.372,-0.4 0.827,-0.4 0.646,0 0.771,-0.176 0.572,-0.802 -0.169,-0.533 -0.044,-0.883 0.373,-1.043 0.825,-0.316 0.811,-1.355 -0.019,-1.355 -0.463,0 -0.583,-0.242 -0.423,-0.852 0.34,-1.302 -0.65,-2.037 -2.321,-1.723 -1.163,0.218 -1.409,0.145 -1.409,-0.416 0,-0.571 -0.255,-0.636 -1.6,-0.409 -1.338,0.226 -1.6,0.16 -1.6,-0.4 0,-0.56 -0.262,-0.626 -1.599,-0.4 -1.275,0.215 -1.65,0.138 -1.849,-0.382 -0.202,-0.525 -0.592,-0.601 -1.997,-0.39 -1.427,0.214 -1.793,0.138 -2.006,-0.416 -0.221,-0.576 -0.612,-0.637 -2.604,-0.406 -1.995,0.232 -2.345,0.177 -2.345,-0.367 0,-0.737 -3.76,-0.95 -4.201,-0.238 -0.139,0.226 -0.977,0.302 -1.923,0.175 -2.855,-0.385 -3.517,-0.585 -3.269,-0.988 0.401,-0.649 -4.745,-0.481 -5.209,0.17 m -92.731,14.308 c -0.191,0.731 -0.323,0.786 -0.847,0.351 -0.519,-0.432 -0.62,-0.403 -0.62,0.177 0,0.537 -0.222,0.637 -0.991,0.444 -0.803,-0.202 -1.034,-0.076 -1.22,0.663 -0.283,1.126 -2.468,3.294 -3.709,3.68 -0.603,0.187 -0.878,0.543 -0.8,1.034 0.066,0.412 -0.021,0.75 -0.194,0.753 -0.545,0.006 -1.486,1.148 -1.486,1.803 0,0.346 -0.2,0.629 -0.445,0.629 -0.294,0 -0.352,0.491 -0.171,1.454 0.229,1.22 0.172,1.415 -0.356,1.212 -0.44,-0.169 -0.628,-0.005 -0.628,0.547 0,0.433 0.18,0.787 0.4,0.787 0.747,0 0.404,1.274 -0.4,1.484 -0.738,0.193 -0.8,0.546 -0.8,4.516 0,3.97 0.062,4.323 0.8,4.516 0.838,0.219 1.086,1.26 0.4,1.684 -0.595,0.368 -0.484,1 0.176,1 0.835,0 1.221,0.83 0.575,1.239 -0.44,0.278 -0.415,0.35 0.125,0.355 0.887,0.008 1.366,0.809 0.722,1.208 -0.701,0.433 3.021,4.153 3.84,3.839 0.328,-0.126 0.696,0.043 0.825,0.378 0.145,0.38 0.512,0.516 0.984,0.366 0.487,-0.155 0.753,-0.045 0.753,0.31 0,0.419 0.804,0.557 3.4,0.585 2.785,0.031 3.4,-0.072 3.4,-0.568 0,-0.402 0.26,-0.537 0.774,-0.403 0.445,0.116 0.864,-0.031 0.985,-0.346 0.116,-0.302 0.488,-0.443 0.826,-0.313 0.388,0.148 0.615,0.01 0.615,-0.375 0,-0.361 0.518,-0.725 1.264,-0.889 1.4,-0.308 3.312,-1.978 2.944,-2.573 -0.403,-0.652 0.739,-2.013 1.688,-2.013 0.637,0 0.904,-0.236 0.904,-0.8 0,-0.44 0.18,-0.8 0.4,-0.8 0.22,0 0.4,-0.641 0.4,-1.424 0,-0.847 0.162,-1.323 0.4,-1.176 0.543,0.335 0.509,-0.331 -0.045,-0.885 -0.534,-0.534 -0.136,-1.315 0.669,-1.315 0.65,0 0.779,-1.237 0.189,-1.827 -0.529,-0.529 -0.05,-2.173 0.634,-2.173 0.414,0 0.553,-0.653 0.553,-2.6 0,-1.867 -0.141,-2.572 -0.5,-2.5 -0.355,0.071 -0.467,-0.436 -0.385,-1.749 0.1,-1.618 0.004,-1.879 -0.766,-2.08 -0.744,-0.195 -0.801,-0.326 -0.366,-0.851 0.432,-0.52 0.402,-0.62 -0.181,-0.62 -0.498,0 -0.636,-0.226 -0.486,-0.8 0.141,-0.541 0.012,-0.8 -0.4,-0.8 -0.422,0 -0.542,-0.258 -0.39,-0.84 0.308,-1.178 -2.108,-3.594 -3.286,-3.286 -0.582,0.152 -0.84,0.032 -0.84,-0.39 0,-0.412 -0.259,-0.541 -0.8,-0.4 -0.556,0.146 -0.8,0.012 -0.8,-0.437 0,-0.661 -0.994,-0.904 -1.349,-0.33 -0.223,0.361 -3.769,0.298 -4.141,-0.073 -0.598,-0.599 -2.028,-0.203 -2.243,0.622 m 80.133,8.581 c 0,0.474 -0.267,0.595 -1,0.455 -0.693,-0.132 -1,-0.014 -1,0.387 0,0.318 -0.214,0.506 -0.475,0.419 -0.261,-0.087 -0.801,0.168 -1.2,0.567 -0.399,0.399 -1.165,0.725 -1.702,0.725 -0.538,0 -1.229,0.359 -1.536,0.797 -0.307,0.439 -0.704,0.664 -0.882,0.5 -0.178,-0.163 -0.216,0.137 -0.085,0.668 0.287,1.159 -0.381,2.574 -1.087,2.303 -0.972,-0.373 -1.651,0.387 -1.022,1.145 0.483,0.583 0.467,0.74 -0.12,1.17 -0.373,0.273 -0.547,0.628 -0.385,0.789 0.161,0.161 -0.038,0.535 -0.443,0.831 -0.501,0.367 -0.652,0.803 -0.472,1.368 0.196,0.617 0.089,0.829 -0.417,0.829 -0.564,0 -0.642,0.277 -0.461,1.626 0.159,1.185 0.065,1.684 -0.348,1.843 -0.811,0.311 -0.794,5.96 0.022,6.775 0.384,0.385 0.505,0.995 0.35,1.771 -0.15,0.752 -0.072,1.185 0.213,1.185 0.247,0 0.45,0.427 0.45,0.95 0,1.572 0.475,3.45 0.874,3.45 0.205,0 0.262,-0.18 0.126,-0.4 -0.136,-0.22 -0.044,-0.4 0.203,-0.4 0.269,0 0.348,0.323 0.197,0.8 -0.164,0.516 -0.067,0.816 0.273,0.846 0.29,0.026 0.797,0.071 1.127,0.1 0.33,0.03 0.661,0.488 0.736,1.019 0.162,1.147 0.963,2.035 1.835,2.035 0.346,0 0.629,0.18 0.629,0.4 0,0.543 1.332,0.508 1.89,-0.05 0.326,-0.326 0.787,-0.332 1.68,-0.021 0.875,0.306 1.585,0.306 2.46,0 0.893,-0.311 1.354,-0.305 1.68,0.021 0.692,0.692 1.504,0.551 1.212,-0.21 -0.209,-0.545 -0.07,-0.614 0.802,-0.395 0.874,0.219 1.011,0.151 0.8,-0.4 -0.211,-0.549 -0.075,-0.619 0.783,-0.404 0.848,0.213 1.089,0.095 1.312,-0.64 0.339,-1.115 2.594,-3.324 3.776,-3.699 0.626,-0.199 0.819,-0.504 0.673,-1.063 -0.142,-0.543 0.067,-0.909 0.678,-1.187 0.547,-0.249 0.918,-0.813 0.972,-1.477 0.049,-0.591 0.267,-1.135 0.485,-1.208 0.217,-0.073 0.286,-0.568 0.153,-1.1 -0.187,-0.745 -0.083,-0.967 0.452,-0.967 0.586,0 0.654,-0.249 0.438,-1.6 -0.203,-1.274 -0.132,-1.6 0.349,-1.6 0.5,0 0.605,-0.697 0.605,-4 0,-3.412 -0.095,-4 -0.645,-4 -0.519,0 -0.593,-0.271 -0.381,-1.4 0.214,-1.141 0.14,-1.4 -0.399,-1.4 -0.453,0 -0.58,-0.21 -0.404,-0.668 0.141,-0.368 0.025,-0.817 -0.257,-1 -0.408,-0.264 -0.39,-0.413 0.086,-0.726 0.418,-0.275 0.449,-0.411 0.1,-0.45 -0.275,-0.031 -0.725,-0.079 -1,-0.108 -0.275,-0.028 -0.5,-0.444 -0.5,-0.924 0,-1.129 -1.329,-2.357 -2.933,-2.709 -0.698,-0.153 -1.267,-0.534 -1.267,-0.847 0,-0.339 -0.403,-0.568 -1,-0.568 -0.55,0 -1,-0.18 -1,-0.4 0,-0.231 -1.267,-0.4 -3,-0.4 -2.496,0 -3,0.109 -3,0.647 m -53.43,81.704 c 0.391,0.632 -2.291,0.879 -6.607,0.609 -3.779,-0.237 -4.265,-0.192 -4.5,0.419 -0.226,0.589 -0.618,0.647 -2.804,0.413 -2.119,-0.227 -2.583,-0.167 -2.786,0.362 -0.195,0.508 -0.615,0.584 -2.108,0.379 -1.486,-0.203 -1.939,-0.124 -2.228,0.393 -0.262,0.469 -0.692,0.583 -1.55,0.411 -0.753,-0.15 -1.187,-0.073 -1.187,0.213 0,0.248 -0.32,0.45 -0.711,0.45 -0.609,0 -0.711,0.376 -0.711,2.623 0,2.318 0.083,2.602 0.711,2.438 0.432,-0.113 0.711,0.034 0.711,0.376 0,0.762 3.429,0.787 3.72,0.027 0.161,-0.418 1.136,-0.495 4.439,-0.348 3.232,0.144 4.39,0.058 4.899,-0.364 0.937,-0.778 8.552,-0.774 9.49,0.005 0.52,0.431 1.625,0.508 4.89,0.342 3.544,-0.181 4.256,-0.118 4.453,0.393 0.187,0.489 0.69,0.561 2.556,0.366 1.901,-0.199 2.388,-0.124 2.688,0.411 0.291,0.521 0.74,0.602 2.215,0.4 1.522,-0.209 1.85,-0.142 1.85,0.374 0,0.51 0.298,0.577 1.599,0.357 1.278,-0.216 1.65,-0.138 1.851,0.386 0.185,0.482 0.546,0.59 1.367,0.41 0.814,-0.178 1.219,-0.06 1.497,0.436 0.263,0.47 0.707,0.619 1.434,0.48 0.754,-0.144 1.052,-0.033 1.052,0.393 0,0.448 0.297,0.536 1.2,0.355 0.899,-0.18 1.2,-0.092 1.2,0.35 0,0.324 0.27,0.59 0.6,0.59 0.33,0 0.6,0.2 0.6,0.445 0,0.287 0.473,0.355 1.339,0.193 1.13,-0.212 1.458,-0.091 2.1,0.776 0.633,0.855 0.979,0.987 2.061,0.788 0.979,-0.179 1.3,-0.095 1.3,0.342 0,0.384 0.271,0.51 0.8,0.372 0.541,-0.142 0.8,-0.012 0.8,0.4 0,0.398 0.259,0.541 0.748,0.413 0.551,-0.144 0.817,0.077 1.008,0.838 0.165,0.657 0.536,1.033 1.018,1.033 0.418,0 0.851,0.225 0.962,0.5 0.153,0.377 0.311,0.352 0.641,-0.1 0.385,-0.526 0.504,-0.514 0.975,0.1 0.621,0.81 4.648,1.03 4.648,0.253 0,-0.257 0.357,-0.353 0.844,-0.226 1.22,0.319 2.902,-1.45 2.648,-2.782 -0.121,-0.632 0.012,-1.087 0.357,-1.219 0.775,-0.298 0.725,-2.526 -0.057,-2.526 -0.448,0 -0.541,-0.262 -0.356,-1 0.154,-0.616 0.081,-1 -0.193,-1 -0.243,0 -0.443,-0.283 -0.443,-0.629 0,-0.808 -0.963,-1.771 -1.771,-1.771 -0.346,0 -0.629,-0.202 -0.629,-0.45 0,-0.287 -0.436,-0.363 -1.2,-0.21 -0.905,0.181 -1.2,0.093 -1.2,-0.358 0,-0.437 -0.268,-0.53 -1,-0.346 -0.778,0.195 -1,0.097 -1,-0.442 0,-0.58 -0.101,-0.609 -0.62,-0.177 -0.525,0.435 -0.657,0.377 -0.855,-0.381 -0.181,-0.694 -0.437,-0.844 -1.138,-0.669 -0.597,0.15 -0.983,0.021 -1.137,-0.38 -0.162,-0.424 -0.536,-0.531 -1.241,-0.353 -0.78,0.195 -1.009,0.1 -1.009,-0.422 0,-0.542 -0.237,-0.624 -1.2,-0.412 -0.755,0.166 -1.2,0.103 -1.2,-0.168 0,-0.238 -0.54,-0.432 -1.2,-0.432 -0.66,0 -1.2,-0.188 -1.2,-0.418 0,-0.261 -0.525,-0.32 -1.396,-0.156 -1.095,0.205 -1.451,0.117 -1.653,-0.408 -0.185,-0.483 -0.64,-0.637 -1.624,-0.552 -0.822,0.07 -1.498,-0.096 -1.697,-0.418 -0.239,-0.386 -0.79,-0.457 -1.98,-0.257 -1.347,0.228 -1.696,0.155 -1.909,-0.401 -0.221,-0.575 -0.615,-0.64 -2.558,-0.42 -1.794,0.203 -2.431,0.125 -2.915,-0.359 -0.501,-0.502 -1.51,-0.599 -5.307,-0.515 -3.47,0.077 -4.733,-0.026 -4.858,-0.396 -0.12,-0.353 -1.285,-0.5 -3.96,-0.5 -2.085,0 -3.693,0.158 -3.573,0.351 m -65.978,9.098 c 0.457,0.457 1.056,0.583 2.028,0.425 1,-0.162 1.38,-0.076 1.38,0.314 0,0.34 0.293,0.46 0.8,0.328 0.571,-0.15 0.8,-0.012 0.8,0.48 0,0.435 0.212,0.608 0.575,0.469 0.762,-0.293 3.825,2.698 3.825,3.735 0,0.444 0.267,0.8 0.6,0.8 0.723,0 0.773,0.467 0.12,1.12 -0.373,0.373 -0.331,0.48 0.192,0.48 0.568,0 0.634,0.283 0.425,1.809 -0.207,1.509 -0.148,1.77 0.355,1.577 0.97,-0.372 1.645,3.835 0.708,4.414 -0.672,0.415 -0.514,7.8 0.167,7.8 0.761,0 1.013,0.829 0.533,1.759 -0.296,0.574 -0.23,0.849 0.272,1.129 0.426,0.238 0.575,0.647 0.419,1.142 -0.175,0.551 -0.054,0.77 0.425,0.77 0.431,0 0.588,0.214 0.439,0.6 -0.126,0.33 -0.043,0.6 0.184,0.6 0.569,0 3.078,2.708 3.374,3.641 0.133,0.418 0.589,0.759 1.014,0.759 0.425,0 0.773,0.2 0.773,0.445 0,0.291 0.482,0.354 1.4,0.181 1.137,-0.213 1.4,-0.139 1.4,0.393 0,0.557 0.302,0.615 1.998,0.381 1.629,-0.224 2.044,-0.157 2.243,0.363 0.366,0.953 11.551,0.955 11.917,0.001 0.209,-0.543 0.733,-0.595 3.584,-0.357 2.855,0.237 3.375,0.185 3.585,-0.36 0.201,-0.525 0.662,-0.594 2.596,-0.392 1.958,0.205 2.395,0.136 2.604,-0.409 0.208,-0.541 0.627,-0.611 2.401,-0.403 1.783,0.21 2.193,0.14 2.404,-0.41 0.209,-0.544 0.603,-0.616 2.202,-0.404 1.528,0.203 1.996,0.13 2.176,-0.34 0.176,-0.458 0.67,-0.548 2.112,-0.385 1.499,0.169 1.958,0.074 2.261,-0.466 0.303,-0.543 0.72,-0.627 2.091,-0.421 1.353,0.203 1.763,0.124 1.954,-0.374 0.191,-0.497 0.616,-0.581 1.997,-0.391 1.412,0.193 1.804,0.11 2.009,-0.425 0.2,-0.52 0.559,-0.608 1.647,-0.404 1.018,0.191 1.568,0.086 2.045,-0.392 0.47,-0.47 1.029,-0.582 2,-0.4 0.964,0.181 1.53,0.071 1.989,-0.389 0.738,-0.738 1.232,-0.813 1.585,-0.242 0.452,0.732 2.094,0.448 2.316,-0.4 0.219,-0.838 1.26,-1.086 1.684,-0.4 0.401,0.649 2.212,0.497 1.959,-0.164 -0.276,-0.719 1.356,-1.281 1.961,-0.676 0.624,0.624 1.88,0.546 1.88,-0.117 0,-0.729 1.217,-1.186 1.747,-0.656 0.611,0.611 2.253,0.506 2.253,-0.144 0,-0.729 1.217,-1.186 1.747,-0.656 0.648,0.648 2.653,0.511 2.653,-0.181 0,-0.487 0.432,-0.549 2.4,-0.343 1.996,0.209 2.4,0.148 2.4,-0.361 0,-0.364 0.444,-0.671 1.1,-0.76 1.698,-0.229 2.9,0.055 2.9,0.686 0,0.315 0.194,0.572 0.431,0.572 0.238,0 1.093,0.685 1.9,1.522 0.808,0.838 1.814,1.653 2.236,1.813 0.584,0.222 0.656,0.402 0.3,0.758 -0.58,0.58 -0.609,2.894 -0.05,3.939 0.323,0.604 0.278,0.833 -0.2,1.017 -0.339,0.13 -0.617,0.48 -0.617,0.778 0,0.845 -1.576,2.104 -2.372,1.896 -0.424,-0.111 -0.82,0.079 -0.968,0.464 -0.194,0.507 -0.561,0.593 -1.655,0.388 -1.159,-0.218 -1.405,-0.145 -1.405,0.416 0,0.571 -0.255,0.636 -1.6,0.409 -1.329,-0.225 -1.6,-0.159 -1.6,0.389 0,0.556 -0.285,0.617 -1.816,0.388 -1.428,-0.214 -1.791,-0.156 -1.7,0.275 0.088,0.414 -0.35,0.524 -1.784,0.451 -1.451,-0.074 -1.9,0.042 -1.9,0.492 0,0.466 -0.366,0.54 -1.74,0.351 -1.375,-0.188 -1.791,-0.104 -1.985,0.402 -0.194,0.508 -0.61,0.591 -2,0.4 -1.42,-0.194 -1.803,-0.112 -2.013,0.435 -0.217,0.566 -0.604,0.632 -2.403,0.407 -1.764,-0.22 -2.187,-0.154 -2.391,0.376 -0.202,0.527 -0.635,0.598 -2.396,0.391 -1.794,-0.211 -2.192,-0.141 -2.408,0.42 -0.21,0.548 -0.581,0.624 -2.004,0.411 -1.326,-0.199 -1.799,-0.124 -1.966,0.311 -0.148,0.385 -0.621,0.514 -1.442,0.394 -0.788,-0.116 -1.451,0.049 -1.866,0.464 -0.422,0.422 -0.986,0.558 -1.635,0.395 -0.708,-0.178 -1.151,-0.035 -1.547,0.5 -0.471,0.634 -0.68,0.672 -1.374,0.248 -1.049,-0.64 -1.23,-0.629 -1.23,0.076 0,0.805 -0.781,1.203 -1.315,0.669 -0.644,-0.644 -1.485,-0.546 -1.485,0.173 0,0.49 -0.291,0.564 -1.405,0.355 -1.185,-0.223 -1.366,-0.164 -1.158,0.378 0.156,0.406 -0.018,0.743 -0.472,0.918 -0.419,0.161 -0.782,0.079 -0.874,-0.197 -0.087,-0.26 -0.407,-0.472 -0.712,-0.472 -0.31,0 -0.459,0.246 -0.339,0.56 0.283,0.737 -0.586,1.254 -1.155,0.685 -0.594,-0.594 -1.109,-0.565 -0.985,0.055 0.067,0.337 -0.323,0.459 -1.2,0.374 -0.956,-0.092 -1.3,0.037 -1.3,0.488 0,0.38 -0.228,0.526 -0.6,0.383 -0.362,-0.139 -0.6,-0.002 -0.6,0.345 0,0.316 -0.45,0.816 -1,1.11 -1.023,0.548 -1.483,2.8 -0.571,2.8 0.568,0 1.571,1.023 1.571,1.603 0,0.335 1.986,0.425 7.3,0.329 l 7.3,-0.132 -0.108,5.6 c -0.059,3.08 -0.196,6.148 -0.303,6.818 l -0.195,1.219 -3.797,-0.166 c -3.371,-0.148 -3.797,-0.09 -3.797,0.513 0,0.547 -0.234,0.628 -1.197,0.417 -1.668,-0.367 -2.197,0.363 -2.235,3.082 -0.028,2.081 0.042,2.276 0.8,2.2 0.503,-0.05 0.789,0.124 0.724,0.44 -0.085,0.414 0.94,0.497 4.901,0.4 2.755,-0.068 5.008,0.012 5.008,0.177 -0.001,0.165 -0.226,0.303 -0.501,0.306 -0.367,0.005 -0.377,0.085 -0.037,0.301 0.518,0.329 0.901,11.062 0.413,11.55 -0.156,0.157 -2.308,0.247 -4.78,0.201 -3.151,-0.059 -4.316,0.038 -3.896,0.323 0.476,0.323 0.373,0.408 -0.5,0.413 -0.708,0.004 -1.1,0.22 -1.1,0.606 0,0.33 -0.23,0.6 -0.51,0.6 -0.347,0 -0.508,0.641 -0.503,2 0.007,1.822 0.09,2 0.934,2 0.516,0 0.817,0.177 0.679,0.4 -0.159,0.258 1.339,0.4 4.205,0.4 3.136,0 4.607,0.155 4.976,0.524 0.768,0.767 1.007,6.516 0.265,6.358 -0.43,-0.092 -0.498,0.234 -0.302,1.457 0.23,1.438 0.165,1.597 -0.74,1.824 -0.605,0.152 -1.087,0.63 -1.237,1.225 -0.211,0.843 -0.411,0.943 -1.456,0.734 -0.901,-0.18 -1.31,-0.067 -1.593,0.439 -0.325,0.581 -0.779,0.642 -3.089,0.414 -2.337,-0.23 -2.744,-0.173 -2.97,0.417 -0.22,0.572 -0.586,0.638 -2.253,0.409 -1.532,-0.211 -2.132,-0.132 -2.607,0.343 -0.468,0.468 -1.109,0.558 -2.657,0.375 -1.683,-0.2 -2.109,-0.12 -2.43,0.452 -0.321,0.574 -0.724,0.647 -2.342,0.425 -1.516,-0.209 -2.097,-0.126 -2.591,0.368 -0.722,0.722 -1.613,0.828 -1.979,0.236 -0.136,-0.22 -1.452,-0.373 -2.924,-0.34 -1.472,0.033 -2.181,0.135 -1.576,0.227 0.605,0.091 1.1,0.322 1.1,0.513 0,0.571 -1.647,0.913 -2.12,0.44 -0.69,-0.69 -5.109,-0.58 -4.84,0.12 0.28,0.73 -2.901,1.339 -3.558,0.682 -0.608,-0.608 -11.164,-0.6 -11.773,0.009 -0.599,0.599 -2.509,0.098 -2.509,-0.659 0,-0.713 -2.015,-0.817 -2.693,-0.139 -0.496,0.496 -1.707,0.203 -1.707,-0.413 0,-0.211 0.405,-0.462 0.9,-0.558 0.648,-0.125 0.534,-0.188 -0.405,-0.228 -0.718,-0.029 -1.674,0.171 -2.125,0.446 -0.688,0.42 -0.901,0.389 -1.338,-0.2 -0.286,-0.385 -0.725,-0.7 -0.976,-0.7 -0.251,0 -0.456,-0.194 -0.456,-0.43 0,-0.241 -0.536,-0.374 -1.216,-0.303 -0.72,0.076 -1.355,-0.096 -1.555,-0.421 -0.187,-0.302 -0.541,-0.424 -0.787,-0.272 -0.246,0.152 -0.556,-0.005 -0.688,-0.349 -0.132,-0.344 -0.418,-0.625 -0.636,-0.625 -0.219,0 -0.901,-0.54 -1.518,-1.2 -1.101,-1.178 -1.91,-1.626 -1.375,-0.76 0.642,1.039 -1.435,-0.537 -3.582,-2.719 -1.765,-1.794 -2.231004,-2.515 -2.061004,-3.192 0.182,-0.724 0.029,-0.898 -0.881,-1.002 -0.865,-0.1 -1.128,-0.363 -1.228,-1.227 -0.075,-0.66 -0.368,-1.1 -0.731,-1.1 -0.465,0 -0.544,-0.279 -0.342,-1.2 0.166,-0.755 0.103,-1.2 -0.168,-1.2 -0.238,0 -0.432,-0.27 -0.432,-0.6 0,-0.33 -0.18,-0.6 -0.4,-0.6 -0.22,0 -0.4,-0.27 -0.4,-0.6 0,-0.33 -0.291,-0.6 -0.647,-0.6 -0.442,0 -0.582,-0.244 -0.444,-0.774 0.113,-0.433 -0.029,-0.863 -0.322,-0.976 -0.318,-0.121 -0.435,-0.543 -0.299,-1.066 0.135,-0.516 0.005,-1.003 -0.322,-1.205 -0.343,-0.212 -0.503,-0.874 -0.427,-1.759 0.094,-1.09 -0.028,-1.42 -0.522,-1.42 -0.544,0 -0.602,-0.319 -0.374,-2.041 0.2,-1.509 0.131,-2.128 -0.265,-2.373 -0.795,-0.491 -0.83,-12.277 -0.039,-13.068 0.42,-0.419 0.493,-1.148 0.294,-2.91 -0.223,-1.97 -0.157,-2.411 0.411,-2.729 0.522,-0.292 0.622,-0.714 0.438,-1.85 -0.176,-1.087 -0.085,-1.53 0.349,-1.696 0.432,-0.166 0.521,-0.584 0.335,-1.575 -0.198,-1.053 -0.104,-1.407 0.424,-1.61 0.525,-0.201 0.622,-0.558 0.431,-1.577 -0.186,-0.994 -0.083,-1.409 0.423,-1.691 0.466,-0.261 0.606,-0.705 0.462,-1.459 -0.139,-0.726 -0.016,-1.158 0.373,-1.307 0.387,-0.148 0.501,-0.541 0.341,-1.177 -0.167,-0.664 -0.045,-1.029 0.4,-1.2 0.43,-0.165 0.566,-0.539 0.415,-1.139 -0.161,-0.644 0.047,-1.098 0.744,-1.621 0.889,-0.668 0.913,-0.769 0.295,-1.239 -0.605,-0.46 -0.608,-0.514 -0.029,-0.525 0.469,-0.01 0.592,-0.284 0.453,-1.013 -0.144,-0.754 -0.022,-1 0.499,-1 0.536,0 0.634,-0.223 0.439,-1 -0.177,-0.705 -0.088,-1 0.301,-1 0.373,0 0.49,-0.324 0.361,-1 -0.141,-0.737 -0.019,-1 0.463004,-1 0.498,0 0.594,-0.239 0.403,-1 -0.195,-0.778 -0.097,-1 0.442,-1 0.58,0 0.609,-0.101 0.177,-0.62 -0.435,-0.525 -0.377,-0.657 0.381,-0.855 0.708,-0.185 0.846,-0.432 0.658,-1.179 -0.171,-0.684 -0.069,-0.946 0.37,-0.946 0.736,0 0.783,-0.465 0.115,-1.133 -0.391,-0.391 -0.302,-0.543 0.43,-0.735 0.734,-0.192 0.874,-0.433 0.685,-1.186 -0.141,-0.563 -0.06,-0.946 0.201,-0.946 0.249,0 0.382,-0.524 0.31,-1.216 -0.076,-0.726 0.096,-1.355 0.428,-1.56 0.376,-0.233 0.476,-0.737 0.31,-1.568 -0.163,-0.818 -0.05,-1.42 0.342,-1.812 0.805,-0.805 0.857,-11.231 0.06,-12.028 -1.871,-1.871 0.226,-9.734 2.441,-9.154 0.512,0.134 1.116,-0.035 1.5,-0.419 0.827,-0.827 2.348,-0.824 3.178,0.006"
       style="fill:url(#linearGradient831);fill-opacity:1;fill-rule:evenodd;stroke:none;stroke-width:0.1;stroke-miterlimit:4;stroke-dasharray:none"
       inkscape:connector-curvature="0" />
  </g>
</svg>
